{"glyphs":{"0":{"ha":633,"x_min":32,"x_max":601,"o":"m 317 -17 q 110 64 188 -17 q 32 276 32 144 l 32 696 q 110 908 32 828 q 317 989 188 989 q 524 908 446 989 q 601 696 601 828 l 601 276 q 524 64 601 144 q 317 -17 446 -17 m 317 182 q 356 204 342 182 q 371 263 371 226 l 371 710 q 356 768 371 746 q 317 790 342 790 q 277 768 292 790 q 263 710 263 746 l 263 263 q 277 204 263 226 q 317 182 292 182 z "},"1":{"ha":408,"x_min":11,"x_max":371,"o":"m 131 968 q 151 972 142 972 l 354 972 q 366 967 361 972 q 371 956 371 963 l 371 17 q 366 5 371 10 q 354 0 361 0 l 157 0 q 145 5 150 0 q 140 17 140 10 l 140 749 q 133 756 140 756 l 31 750 q 14 765 14 750 l 11 913 q 25 931 11 926 l 131 968 z "},"2":{"ha":626,"x_min":26,"x_max":608,"o":"m 310 206 q 308 200 307 203 q 314 197 310 197 l 592 197 q 603 192 599 197 q 608 181 608 188 l 608 17 q 603 5 608 10 q 592 0 599 0 l 47 0 q 35 5 40 0 q 31 17 31 10 l 31 186 q 38 207 31 196 q 110 292 33 201 q 213 416 163 354 q 294 525 263 478 q 364 708 364 632 q 349 767 364 747 q 311 786 335 786 q 273 767 288 786 q 260 717 258 747 l 260 657 q 255 645 260 650 q 243 640 250 640 l 43 640 q 31 645 36 640 q 26 657 26 650 l 26 726 q 115 913 33 842 q 322 983 197 983 q 465 949 403 983 q 563 851 528 914 q 597 707 597 789 q 574 570 597 633 q 500 435 551 507 q 365 271 458 375 l 310 206 z "},"3":{"ha":619,"x_min":25,"x_max":586,"o":"m 582 397 q 586 313 586 356 q 583 222 586 281 q 504 53 578 117 q 311 -11 431 -11 q 165 19 229 -11 q 65 103 101 49 q 28 226 29 157 q 25 300 25 274 q 42 317 25 317 l 239 317 q 256 300 256 317 q 258 250 256 281 q 275 204 261 221 q 311 188 289 188 q 348 203 333 188 q 365 247 363 219 q 367 338 367 278 q 364 426 367 399 q 348 469 363 453 q 311 485 333 485 q 264 463 289 485 q 253 457 258 457 q 240 463 249 457 l 139 568 q 133 581 133 576 q 139 592 133 586 l 303 768 q 300 776 308 776 l 61 776 q 49 781 54 776 q 44 793 44 786 l 44 956 q 49 967 44 963 q 61 972 54 972 l 568 972 q 580 967 575 972 q 585 956 585 963 l 585 788 q 576 768 585 776 l 426 594 q 429 586 421 586 q 535 528 492 582 q 582 397 578 474 z "},"4":{"ha":706,"x_min":15,"x_max":692,"o":"m 675 447 q 687 442 682 447 q 692 431 692 438 l 692 256 q 687 244 692 249 q 675 239 682 239 l 629 239 q 622 232 622 239 l 622 17 q 617 5 622 10 q 606 0 613 0 l 408 0 q 397 5 401 0 q 392 17 392 10 l 392 232 q 385 239 392 239 l 32 239 q 20 244 25 239 q 15 256 15 249 l 15 394 q 18 414 15 406 l 196 958 q 214 972 200 972 l 425 972 q 438 967 433 972 q 439 953 442 961 l 285 456 q 290 447 283 447 l 385 447 q 392 454 392 447 l 392 574 q 397 585 392 581 q 408 590 401 590 l 606 590 q 617 585 613 590 q 622 574 622 581 l 622 454 q 629 447 622 447 l 675 447 z "},"5":{"ha":625,"x_min":33,"x_max":599,"o":"m 596 374 q 599 306 599 353 q 597 226 599 253 q 519 52 596 115 q 315 -11 443 -11 q 124 47 197 -11 q 38 219 51 104 l 35 258 q 51 275 35 275 l 249 275 q 265 263 264 275 l 265 254 l 268 239 q 315 186 275 186 q 351 201 338 186 q 367 243 364 215 q 368 306 368 263 q 365 360 368 344 q 349 400 363 385 q 315 415 336 415 q 284 406 297 415 q 267 382 271 397 q 249 367 263 367 l 50 367 q 38 372 43 367 q 33 383 33 376 l 33 956 q 38 967 33 963 q 50 972 43 972 l 576 972 q 588 967 583 972 q 593 956 593 963 l 593 792 q 588 780 593 785 q 576 775 583 775 l 271 775 q 264 768 264 775 l 264 572 q 267 567 264 568 q 272 569 269 567 q 389 614 321 614 q 539 550 483 614 q 596 374 594 486 z "},"6":{"ha":626,"x_min":32,"x_max":600,"o":"m 599 372 q 600 306 600 351 l 600 229 q 522 52 599 115 q 318 -11 446 -11 q 124 47 199 -11 q 40 219 50 106 q 36 285 36 249 l 33 732 q 109 915 32 847 q 314 983 186 983 q 511 915 435 983 q 588 732 588 847 l 588 681 q 583 669 588 674 q 571 664 578 664 l 374 664 q 362 669 367 664 q 357 681 357 674 l 357 717 q 344 763 357 744 q 314 781 331 781 q 278 763 292 781 q 265 717 265 744 l 265 581 q 268 576 265 576 q 274 578 271 575 q 381 618 324 618 q 538 552 479 618 q 599 372 596 486 m 365 246 q 367 322 367 281 l 364 396 q 349 436 361 421 q 317 451 336 451 q 283 436 296 451 q 267 394 269 421 q 265 322 265 360 q 267 244 265 279 q 282 201 269 217 q 317 186 294 186 q 350 202 338 186 q 365 246 363 218 z "},"7":{"ha":586,"x_min":13,"x_max":575,"o":"m 119 0 q 107 6 111 0 q 106 19 103 11 l 329 767 q 324 775 332 775 l 206 775 q 199 768 199 775 l 199 721 q 194 709 199 714 q 182 704 189 704 l 29 704 q 17 709 22 704 q 13 721 13 714 l 14 956 q 19 967 14 963 q 31 972 24 972 l 558 972 q 570 967 565 972 q 575 956 575 963 l 575 785 q 572 765 575 779 l 346 14 q 328 0 342 0 l 119 0 z "},"8":{"ha":619,"x_min":32,"x_max":589,"o":"m 493 510 q 494 500 488 504 q 564 418 542 471 q 589 285 589 354 q 565 158 589 218 q 467 35 535 81 q 310 -11 399 -11 q 153 34 221 -11 q 53 158 85 79 q 32 285 32 217 q 54 415 32 361 q 125 499 75 469 q 125 508 133 503 q 56 593 78 539 q 32 717 32 646 q 56 842 32 790 q 153 951 86 911 q 310 992 221 992 q 463 953 396 992 q 563 842 531 915 q 589 717 589 785 q 564 594 589 649 q 493 510 542 542 m 263 738 q 258 694 258 717 q 263 646 258 669 q 278 604 265 619 q 310 589 292 589 q 342 604 329 589 q 358 647 356 619 q 361 693 361 675 q 357 738 361 719 q 342 779 354 764 q 310 794 329 794 q 278 779 290 794 q 263 738 265 764 m 360 250 q 361 299 361 265 q 357 354 361 329 q 342 398 356 382 q 310 414 329 414 q 277 397 290 414 q 261 353 264 381 q 258 303 258 322 q 261 250 258 283 q 276 203 263 221 q 310 186 290 186 q 344 203 331 186 q 360 250 357 221 z "},"9":{"ha":619,"x_min":19,"x_max":588,"o":"m 586 242 q 510 58 588 126 q 306 -11 433 -11 q 108 58 185 -11 q 32 242 32 126 l 32 292 q 37 303 32 299 q 49 308 42 308 l 246 308 q 258 303 253 308 q 263 292 263 299 l 263 257 q 276 210 263 229 q 306 192 289 192 q 341 210 328 192 q 354 257 354 228 l 354 390 q 351 395 354 394 q 346 393 349 396 q 239 354 297 354 q 82 421 140 354 q 21 600 24 488 q 19 668 19 621 q 21 743 19 718 q 99 920 22 857 q 303 983 175 983 q 496 926 422 983 q 581 753 569 868 q 585 688 585 694 l 586 242 m 304 522 q 338 537 325 522 q 353 578 350 551 l 354 650 q 353 728 354 693 q 338 772 350 756 q 304 788 325 788 q 269 771 283 788 q 254 726 256 754 l 253 650 l 256 578 q 271 537 258 551 q 304 522 283 522 z "},"\u0000":{"ha":0,"x_min":0,"x_max":0,"o":""},"\r":{"ha":278,"x_min":0,"x_max":0,"o":""}," ":{"ha":278,"x_min":0,"x_max":0,"o":""},"A":{"ha":706,"x_min":17,"x_max":686,"o":"m 469 0 q 451 15 453 0 l 433 136 q 425 143 433 143 l 275 143 q 267 136 267 143 l 250 15 q 232 0 249 0 l 35 0 q 21 18 17 0 l 222 957 q 240 972 225 972 l 467 972 q 485 957 482 972 l 685 18 l 686 13 q 671 0 686 0 l 469 0 m 297 328 q 303 321 297 321 l 396 321 q 401 328 401 321 l 351 644 q 347 650 350 650 q 343 644 344 650 l 297 328 z "},"Á":{"ha":706,"x_min":17,"x_max":686,"o":"m 469 0 q 451 15 453 0 l 433 136 q 425 143 433 143 l 275 143 q 267 136 267 143 l 250 15 q 232 0 249 0 l 35 0 q 21 18 17 0 l 222 957 q 240 972 225 972 l 467 972 q 485 957 482 972 l 685 18 l 686 13 q 671 0 686 0 l 469 0 m 297 328 q 303 321 297 321 l 396 321 q 401 328 401 321 l 351 644 q 347 650 350 650 q 343 644 344 650 l 297 328 m 268 1057 q 254 1063 258 1057 q 256 1076 250 1068 l 338 1215 q 357 1226 343 1226 l 513 1226 q 526 1217 526 1226 q 522 1206 526 1213 l 414 1067 q 393 1057 406 1057 l 268 1057 z "},"Ă":{"ha":706,"x_min":17,"x_max":686,"o":"m 469 0 q 451 15 453 0 l 433 136 q 425 143 433 143 l 275 143 q 267 136 267 143 l 250 15 q 232 0 249 0 l 35 0 q 21 18 17 0 l 222 957 q 240 972 225 972 l 467 972 q 485 957 482 972 l 685 18 l 686 13 q 671 0 686 0 l 469 0 m 297 328 q 303 321 297 321 l 396 321 q 401 328 401 321 l 351 644 q 347 650 350 650 q 343 644 344 650 l 297 328 m 354 1013 q 233 1054 279 1013 q 179 1165 186 1096 q 196 1182 179 1182 l 281 1182 q 299 1165 297 1182 q 317 1125 301 1140 q 354 1110 332 1110 q 391 1125 376 1110 q 410 1165 406 1140 q 428 1182 413 1182 l 513 1182 q 529 1165 529 1182 q 475 1054 522 1096 q 354 1013 428 1013 z "},"Ắ":{"ha":706,"x_min":17,"x_max":686,"o":"m 469 0 q 451 15 453 0 l 433 136 q 425 143 433 143 l 275 143 q 267 136 267 143 l 250 15 q 232 0 249 0 l 35 0 q 21 18 17 0 l 222 957 q 240 972 225 972 l 467 972 q 485 957 482 972 l 685 18 l 686 13 q 671 0 686 0 l 469 0 m 297 328 q 303 321 297 321 l 396 321 q 401 328 401 321 l 351 644 q 347 650 350 650 q 343 644 344 650 l 297 328 z "},"Ặ":{"ha":706,"x_min":17,"x_max":686,"o":"m 469 0 q 451 15 453 0 l 433 136 q 425 143 433 143 l 275 143 q 267 136 267 143 l 250 15 q 232 0 249 0 l 35 0 q 21 18 17 0 l 222 957 q 240 972 225 972 l 467 972 q 485 957 482 972 l 685 18 l 686 13 q 671 0 686 0 l 469 0 m 297 328 q 303 321 297 321 l 396 321 q 401 328 401 321 l 351 644 q 347 650 350 650 q 343 644 344 650 l 297 328 m 354 -358 q 270 -326 303 -358 q 238 -243 238 -293 q 270 -159 238 -192 q 354 -126 303 -126 q 437 -159 404 -126 q 469 -243 469 -192 q 437 -325 469 -292 q 354 -358 404 -358 m 354 1032 q 232 1074 279 1032 q 179 1185 185 1115 q 196 1201 179 1201 l 281 1201 q 297 1185 297 1201 q 317 1144 301 1160 q 354 1129 332 1129 q 390 1144 375 1129 q 410 1185 406 1160 q 428 1201 411 1201 l 513 1201 q 528 1185 529 1201 q 474 1074 522 1117 q 354 1032 426 1032 z "},"Ằ":{"ha":706,"x_min":17,"x_max":686,"o":"m 469 0 q 451 15 453 0 l 433 136 q 425 143 433 143 l 275 143 q 267 136 267 143 l 250 15 q 232 0 249 0 l 35 0 q 21 18 17 0 l 222 957 q 240 972 225 972 l 467 972 q 485 957 482 972 l 685 18 l 686 13 q 671 0 686 0 l 469 0 m 297 328 q 303 321 297 321 l 396 321 q 401 328 401 321 l 351 644 q 347 650 350 650 q 343 644 344 650 l 297 328 z "},"Ẳ":{"ha":706,"x_min":17,"x_max":686,"o":"m 469 0 q 451 15 453 0 l 433 136 q 425 143 433 143 l 275 143 q 267 136 267 143 l 250 15 q 232 0 249 0 l 35 0 q 21 18 17 0 l 222 957 q 240 972 225 972 l 467 972 q 485 957 482 972 l 685 18 l 686 13 q 671 0 686 0 l 469 0 m 297 328 q 303 321 297 321 l 396 321 q 401 328 401 321 l 351 644 q 347 650 350 650 q 343 644 344 650 l 297 328 m 338 1244 q 326 1265 318 1249 q 363 1324 340 1299 q 378 1345 374 1336 q 383 1369 383 1354 q 375 1386 383 1379 q 356 1393 367 1393 q 333 1386 343 1393 q 307 1360 322 1379 q 294 1353 300 1353 q 283 1357 290 1353 l 238 1390 q 231 1403 231 1397 q 235 1414 231 1408 q 290 1467 261 1451 q 361 1483 318 1483 q 451 1453 418 1483 q 485 1369 485 1422 q 474 1322 485 1340 q 440 1281 463 1304 q 410 1244 418 1258 q 389 1235 401 1233 l 338 1244 m 354 1032 q 233 1074 279 1032 q 179 1185 186 1115 q 196 1201 179 1201 l 281 1201 q 299 1185 296 1201 q 317 1144 301 1160 q 354 1129 332 1129 q 391 1144 376 1129 q 410 1185 406 1160 q 428 1201 411 1201 l 513 1201 q 529 1185 529 1201 q 475 1074 522 1115 q 354 1032 428 1032 z "},"Ẵ":{"ha":706,"x_min":17,"x_max":686,"o":"m 469 0 q 451 15 453 0 l 433 136 q 425 143 433 143 l 275 143 q 267 136 267 143 l 250 15 q 232 0 249 0 l 35 0 q 21 18 17 0 l 222 957 q 240 972 225 972 l 467 972 q 485 957 482 972 l 685 18 l 686 13 q 671 0 686 0 l 469 0 m 297 328 q 303 321 297 321 l 396 321 q 401 328 401 321 l 351 644 q 347 650 350 650 q 343 644 344 650 l 297 328 z "},"Ǎ":{"ha":706,"x_min":17,"x_max":686,"o":"m 469 0 q 451 15 453 0 l 433 136 q 425 143 433 143 l 275 143 q 267 136 267 143 l 250 15 q 232 0 249 0 l 35 0 q 21 18 17 0 l 222 957 q 240 972 225 972 l 467 972 q 485 957 482 972 l 685 18 l 686 13 q 671 0 686 0 l 469 0 m 297 328 q 303 321 297 321 l 396 321 q 401 328 401 321 l 351 644 q 347 650 350 650 q 343 644 344 650 l 297 328 z "},"Â":{"ha":706,"x_min":17,"x_max":686,"o":"m 469 0 q 451 15 453 0 l 433 136 q 425 143 433 143 l 275 143 q 267 136 267 143 l 250 15 q 232 0 249 0 l 35 0 q 21 18 17 0 l 222 957 q 240 972 225 972 l 467 972 q 485 957 482 972 l 685 18 l 686 13 q 671 0 686 0 l 469 0 m 297 328 q 303 321 297 321 l 396 321 q 401 328 401 321 l 351 644 q 347 650 350 650 q 343 644 344 650 l 297 328 m 146 1049 q 133 1053 136 1049 q 135 1068 129 1058 l 222 1215 q 242 1226 228 1226 l 456 1226 q 475 1215 469 1226 l 567 1068 q 569 1058 569 1060 q 556 1049 569 1049 l 410 1049 q 390 1061 396 1049 l 354 1132 q 346 1132 350 1139 l 310 1061 q 290 1049 303 1049 l 146 1049 z "},"Ấ":{"ha":706,"x_min":17,"x_max":826,"o":"m 469 0 q 451 15 453 0 l 433 136 q 425 143 433 143 l 275 143 q 267 136 267 143 l 250 15 q 232 0 249 0 l 35 0 q 21 18 17 0 l 222 957 q 240 972 225 972 l 467 972 q 485 957 482 972 l 685 18 l 686 13 q 671 0 686 0 l 469 0 m 297 328 q 303 321 297 321 l 396 321 q 401 328 401 321 l 351 644 q 347 650 350 650 q 343 644 344 650 l 297 328 z "},"Ậ":{"ha":706,"x_min":17,"x_max":686,"o":"m 469 0 q 451 15 453 0 l 433 136 q 425 143 433 143 l 275 143 q 267 136 267 143 l 250 15 q 232 0 249 0 l 35 0 q 21 18 17 0 l 222 957 q 240 972 225 972 l 467 972 q 485 957 482 972 l 685 18 l 686 13 q 671 0 686 0 l 469 0 m 297 328 q 303 321 297 321 l 396 321 q 401 328 401 321 l 351 644 q 347 650 350 650 q 343 644 344 650 l 297 328 m 354 -358 q 270 -326 303 -358 q 238 -243 238 -293 q 270 -159 238 -192 q 354 -126 303 -126 q 437 -159 404 -126 q 469 -243 469 -192 q 437 -325 469 -292 q 354 -358 404 -358 m 146 1049 q 133 1053 136 1049 q 135 1068 129 1058 l 222 1215 q 242 1226 228 1226 l 456 1226 q 475 1215 469 1226 l 567 1068 q 569 1058 569 1060 q 556 1049 569 1049 l 410 1049 q 390 1061 396 1049 l 354 1132 q 346 1132 350 1139 l 310 1061 q 290 1049 303 1049 l 146 1049 z "},"Ầ":{"ha":706,"x_min":17,"x_max":686,"o":"m 469 0 q 451 15 453 0 l 433 136 q 425 143 433 143 l 275 143 q 267 136 267 143 l 250 15 q 232 0 249 0 l 35 0 q 21 18 17 0 l 222 957 q 240 972 225 972 l 467 972 q 485 957 482 972 l 685 18 l 686 13 q 671 0 686 0 l 469 0 m 297 328 q 303 321 297 321 l 396 321 q 401 328 401 321 l 351 644 q 347 650 350 650 q 343 644 344 650 l 297 328 z "},"Ẩ":{"ha":706,"x_min":17,"x_max":718,"o":"m 469 0 q 451 15 453 0 l 433 136 q 425 143 433 143 l 275 143 q 267 136 267 143 l 250 15 q 232 0 249 0 l 35 0 q 21 18 17 0 l 222 957 q 240 972 225 972 l 467 972 q 485 957 482 972 l 685 18 l 686 13 q 671 0 686 0 l 469 0 m 297 328 q 303 321 297 321 l 396 321 q 401 328 401 321 l 351 644 q 347 650 350 650 q 343 644 344 650 l 297 328 m 557 1197 q 546 1218 538 1201 q 586 1283 561 1257 q 603 1306 597 1296 q 608 1332 608 1317 q 599 1351 608 1343 q 579 1358 590 1358 q 553 1351 565 1358 q 525 1322 542 1343 q 513 1314 519 1314 q 501 1318 508 1314 l 449 1357 q 442 1369 442 1364 q 446 1381 442 1375 q 507 1440 475 1422 q 585 1457 539 1457 q 682 1424 646 1457 q 718 1332 718 1390 q 706 1281 718 1301 q 669 1236 693 1260 q 636 1196 649 1215 q 615 1186 628 1185 l 557 1197 m 146 1049 q 133 1053 136 1049 q 135 1068 129 1058 l 222 1215 q 242 1226 228 1226 l 456 1226 q 475 1215 469 1226 l 567 1068 q 569 1058 569 1060 q 556 1049 569 1049 l 410 1049 q 390 1061 396 1049 l 354 1132 q 346 1132 350 1139 l 310 1061 q 290 1049 303 1049 l 146 1049 z "},"Ẫ":{"ha":706,"x_min":17,"x_max":686,"o":"m 469 0 q 451 15 453 0 l 433 136 q 425 143 433 143 l 275 143 q 267 136 267 143 l 250 15 q 232 0 249 0 l 35 0 q 21 18 17 0 l 222 957 q 240 972 225 972 l 467 972 q 485 957 482 972 l 685 18 l 686 13 q 671 0 686 0 l 469 0 m 297 328 q 303 321 297 321 l 396 321 q 401 328 401 321 l 351 644 q 347 650 350 650 q 343 644 344 650 l 297 328 z "},"Ä":{"ha":706,"x_min":17,"x_max":686,"o":"m 469 0 q 451 15 453 0 l 433 136 q 425 143 433 143 l 275 143 q 267 136 267 143 l 250 15 q 232 0 249 0 l 35 0 q 21 18 17 0 l 222 957 q 240 972 225 972 l 467 972 q 485 957 482 972 l 685 18 l 686 13 q 671 0 686 0 l 469 0 m 297 328 q 303 321 297 321 l 396 321 q 401 328 401 321 l 351 644 q 347 650 350 650 q 343 644 344 650 l 297 328 z "},"Ạ":{"ha":706,"x_min":17,"x_max":686,"o":"m 469 0 q 451 15 453 0 l 433 136 q 425 143 433 143 l 275 143 q 267 136 267 143 l 250 15 q 232 0 249 0 l 35 0 q 21 18 17 0 l 222 957 q 240 972 225 972 l 467 972 q 485 957 482 972 l 685 18 l 686 13 q 671 0 686 0 l 469 0 m 297 328 q 303 321 297 321 l 396 321 q 401 328 401 321 l 351 644 q 347 650 350 650 q 343 644 344 650 l 297 328 m 354 -358 q 270 -326 303 -358 q 238 -243 238 -293 q 270 -159 238 -192 q 354 -126 303 -126 q 437 -159 404 -126 q 469 -243 469 -192 q 437 -325 469 -292 q 354 -358 404 -358 z "},"À":{"ha":706,"x_min":17,"x_max":686,"o":"m 469 0 q 451 15 453 0 l 433 136 q 425 143 433 143 l 275 143 q 267 136 267 143 l 250 15 q 232 0 249 0 l 35 0 q 21 18 17 0 l 222 957 q 240 972 225 972 l 467 972 q 485 957 482 972 l 685 18 l 686 13 q 671 0 686 0 l 469 0 m 297 328 q 303 321 297 321 l 396 321 q 401 328 401 321 l 351 644 q 347 650 350 650 q 343 644 344 650 l 297 328 m 428 1068 q 413 1057 428 1057 l 286 1057 q 265 1067 274 1057 l 157 1206 q 153 1215 153 1213 q 168 1226 153 1226 l 324 1226 q 343 1215 338 1226 l 425 1076 l 428 1068 z "},"Ả":{"ha":706,"x_min":17,"x_max":686,"o":"m 469 0 q 451 15 453 0 l 433 136 q 425 143 433 143 l 275 143 q 267 136 267 143 l 250 15 q 232 0 249 0 l 35 0 q 21 18 17 0 l 222 957 q 240 972 225 972 l 467 972 q 485 957 482 972 l 685 18 l 686 13 q 671 0 686 0 l 469 0 m 297 328 q 303 321 297 321 l 396 321 q 401 328 401 321 l 351 644 q 347 650 350 650 q 343 644 344 650 l 297 328 m 331 1031 q 319 1051 311 1035 q 364 1122 336 1092 q 382 1148 376 1138 q 388 1176 388 1158 q 378 1196 388 1188 q 356 1204 368 1204 q 327 1196 340 1204 q 296 1164 314 1188 q 283 1157 289 1157 q 272 1161 278 1157 l 214 1203 q 206 1215 206 1210 q 210 1226 206 1221 q 276 1292 242 1272 q 361 1311 311 1311 q 468 1276 429 1311 q 507 1176 507 1240 q 494 1122 507 1144 q 454 1072 481 1100 q 418 1028 425 1040 q 397 1018 410 1017 l 331 1031 z "},"Ā":{"ha":706,"x_min":17,"x_max":686,"o":"m 469 0 q 451 15 453 0 l 433 136 q 425 143 433 143 l 275 143 q 267 136 267 143 l 250 15 q 232 0 249 0 l 35 0 q 21 18 17 0 l 222 957 q 240 972 225 972 l 467 972 q 485 957 482 972 l 685 18 l 686 13 q 671 0 686 0 l 469 0 m 297 328 q 303 321 297 321 l 396 321 q 401 328 401 321 l 351 644 q 347 650 350 650 q 343 644 344 650 l 297 328 m 207 1054 q 195 1059 200 1054 q 190 1071 190 1064 l 190 1193 q 195 1205 190 1200 q 207 1210 200 1210 l 488 1210 q 499 1205 494 1210 q 504 1193 504 1200 l 504 1071 q 499 1059 504 1064 q 488 1054 494 1054 l 207 1054 z "},"Ą":{"ha":706,"x_min":17,"x_max":686,"o":"m 469 0 q 451 15 453 0 l 433 136 q 425 143 433 143 l 275 143 q 267 136 267 143 l 250 15 q 232 0 249 0 l 35 0 q 21 18 17 0 l 222 957 q 240 972 225 972 l 467 972 q 485 957 482 972 l 685 18 l 686 13 q 671 0 686 0 l 469 0 m 297 328 q 303 321 297 321 l 396 321 q 401 328 401 321 l 351 644 q 347 650 350 650 q 343 644 344 650 l 297 328 m 682 -240 q 669 -257 682 -251 q 596 -268 633 -268 q 472 -181 493 -268 q 468 -143 468 -162 q 529 -8 468 -71 q 550 0 538 0 l 658 0 q 672 -8 672 0 q 665 -21 672 -14 q 623 -72 636 -47 q 614 -117 610 -97 q 653 -146 621 -149 l 657 -146 q 672 -158 671 -146 l 682 -236 l 682 -240 z "},"Å":{"ha":706,"x_min":17,"x_max":686,"o":"m 469 0 q 451 15 453 0 l 433 136 q 425 143 433 143 l 275 143 q 267 136 267 143 l 250 15 q 232 0 249 0 l 35 0 q 21 18 17 0 l 222 957 q 240 972 225 972 l 467 972 q 485 957 482 972 l 685 18 l 686 13 q 671 0 686 0 l 469 0 m 297 328 q 303 321 297 321 l 396 321 q 401 328 401 321 l 351 644 q 347 650 350 650 q 343 644 344 650 l 297 328 m 354 1028 q 225 1080 276 1028 q 174 1208 174 1132 q 226 1336 174 1285 q 354 1388 278 1388 q 482 1336 431 1388 q 533 1208 533 1285 q 482 1079 533 1131 q 354 1028 431 1028 m 354 1146 q 397 1164 379 1146 q 415 1208 415 1182 q 397 1253 415 1235 q 354 1272 379 1272 q 310 1253 328 1272 q 292 1208 292 1235 q 310 1164 292 1182 q 354 1146 328 1146 z "},"Ã":{"ha":706,"x_min":17,"x_max":686,"o":"m 469 0 q 451 15 453 0 l 433 136 q 425 143 433 143 l 275 143 q 267 136 267 143 l 250 15 q 232 0 249 0 l 35 0 q 21 18 17 0 l 222 957 q 240 972 225 972 l 467 972 q 485 957 482 972 l 685 18 l 686 13 q 671 0 686 0 l 469 0 m 297 328 q 303 321 297 321 l 396 321 q 401 328 401 321 l 351 644 q 347 650 350 650 q 343 644 344 650 l 297 328 m 449 1057 q 372 1079 417 1057 q 352 1091 361 1085 q 334 1101 343 1097 q 315 1104 325 1104 q 269 1075 288 1104 q 258 1066 265 1068 q 246 1069 251 1064 l 175 1119 q 168 1142 164 1128 q 220 1221 186 1194 q 296 1247 254 1247 q 388 1215 339 1247 q 401 1206 390 1213 q 422 1196 411 1200 q 443 1192 432 1192 q 490 1217 474 1192 q 513 1224 500 1232 l 582 1175 q 589 1161 589 1171 q 583 1143 589 1153 q 524 1077 560 1097 q 449 1057 488 1057 z "},"Æ":{"ha":1076,"x_min":22,"x_max":1046,"o":"m 1046 792 q 1041 780 1046 785 q 1029 775 1036 775 l 750 775 q 743 768 743 775 l 743 593 q 750 586 743 586 l 903 586 q 915 581 910 586 q 919 569 919 576 l 919 404 q 915 392 919 397 q 903 388 910 388 l 750 388 q 743 381 743 388 l 743 204 q 750 197 743 197 l 1029 197 q 1041 192 1036 197 q 1046 181 1046 188 l 1046 17 q 1041 5 1046 10 q 1029 0 1036 0 l 529 0 q 517 5 522 0 q 513 17 513 10 l 513 136 q 506 143 513 143 l 317 143 q 310 138 313 143 l 264 14 q 244 0 260 0 l 38 0 q 25 6 28 0 q 25 19 22 11 l 407 960 q 426 972 411 972 l 1029 972 q 1041 967 1036 972 q 1046 956 1046 963 l 1046 792 m 381 329 q 386 321 379 321 l 506 321 q 513 328 513 321 l 513 663 q 509 667 513 667 q 504 664 506 668 l 381 329 z "},"B":{"ha":663,"x_min":49,"x_max":636,"o":"m 636 271 q 554 70 636 140 q 346 0 472 0 l 65 0 q 53 5 58 0 q 49 17 49 10 l 49 956 q 53 967 49 963 q 65 972 58 972 l 310 972 q 537 905 454 972 q 619 703 619 838 q 532 507 619 569 q 531 499 525 503 q 636 271 636 421 m 286 775 q 279 768 279 775 l 279 590 q 286 583 279 583 l 313 583 q 372 608 351 583 q 393 678 393 632 q 372 750 393 725 q 313 775 351 775 l 286 775 m 328 199 q 385 226 364 199 q 406 306 406 254 q 385 388 406 357 q 329 418 364 418 l 286 418 q 279 411 279 418 l 279 206 q 286 199 279 199 l 328 199 z "},"C":{"ha":653,"x_min":38,"x_max":619,"o":"m 328 -11 q 117 67 196 -11 q 38 274 38 144 l 38 700 q 117 907 38 831 q 328 983 196 983 q 540 907 460 983 q 619 700 619 831 l 619 688 q 615 676 619 681 q 603 671 610 671 l 406 663 q 389 679 389 663 l 389 717 q 372 767 389 749 q 328 786 356 786 q 285 767 301 786 q 268 717 268 749 l 268 254 q 285 205 268 224 q 328 186 301 186 q 372 205 356 186 q 389 254 389 224 l 389 294 q 394 306 389 301 q 406 311 399 311 l 603 303 q 615 298 610 303 q 619 286 619 293 l 619 274 q 540 67 619 144 q 328 -11 460 -11 z "},"Ć":{"ha":653,"x_min":38,"x_max":619,"o":"m 328 -11 q 117 67 196 -11 q 38 274 38 144 l 38 700 q 117 907 38 831 q 328 983 196 983 q 540 907 460 983 q 619 700 619 831 l 619 688 q 615 676 619 681 q 603 671 610 671 l 406 663 q 389 679 389 663 l 389 717 q 372 767 389 749 q 328 786 356 786 q 285 767 301 786 q 268 717 268 749 l 268 254 q 285 205 268 224 q 328 186 301 186 q 372 205 356 186 q 389 254 389 224 l 389 294 q 394 306 389 301 q 406 311 399 311 l 603 303 q 615 298 610 303 q 619 286 619 293 l 619 274 q 540 67 619 144 q 328 -11 460 -11 m 242 1057 q 228 1063 232 1057 q 229 1076 224 1068 l 311 1215 q 331 1226 317 1226 l 486 1226 q 500 1217 500 1226 q 496 1206 500 1213 l 388 1067 q 367 1057 379 1057 l 242 1057 z "},"Č":{"ha":653,"x_min":38,"x_max":619,"o":"m 328 -11 q 117 67 196 -11 q 38 274 38 144 l 38 700 q 117 907 38 831 q 328 983 196 983 q 540 907 460 983 q 619 700 619 831 l 619 688 q 615 676 619 681 q 603 671 610 671 l 406 663 q 389 679 389 663 l 389 717 q 372 767 389 749 q 328 786 356 786 q 285 767 301 786 q 268 717 268 749 l 268 254 q 285 205 268 224 q 328 186 301 186 q 372 205 356 186 q 389 254 389 224 l 389 294 q 394 306 389 301 q 406 311 399 311 l 603 303 q 615 298 610 303 q 619 286 619 293 l 619 274 q 540 67 619 144 q 328 -11 460 -11 m 118 1207 q 115 1217 115 1215 q 129 1226 115 1226 l 274 1226 q 293 1214 288 1226 l 329 1143 q 338 1143 333 1138 l 374 1214 q 393 1226 381 1226 l 539 1226 q 552 1222 549 1226 q 550 1207 556 1217 l 458 1060 q 439 1049 453 1049 l 225 1049 q 206 1060 211 1049 l 118 1207 z "},"Ç":{"ha":653,"x_min":38,"x_max":619,"o":"m 619 686 q 615 675 619 679 q 603 671 610 671 l 406 663 q 389 679 389 663 l 389 717 q 372 767 389 749 q 328 786 356 786 q 285 767 301 786 q 268 717 268 749 l 268 254 q 285 205 268 224 q 328 186 301 186 q 372 205 356 186 q 389 254 389 224 l 389 294 q 394 306 389 301 q 406 311 399 311 l 603 303 q 615 298 610 303 q 619 286 619 293 l 619 274 q 563 92 619 165 q 408 -3 506 19 q 403 -6 404 -3 q 406 -11 403 -8 q 456 -133 456 -67 q 451 -171 456 -153 q 406 -237 440 -218 q 328 -257 372 -257 q 253 -246 289 -257 q 240 -226 239 -242 l 250 -147 q 256 -137 251 -139 q 267 -135 260 -135 q 276 -135 274 -135 q 308 -107 300 -135 q 298 -58 313 -85 q 253 -6 283 -32 l 244 -1 q 93 94 149 22 q 38 274 38 167 l 38 700 q 117 907 38 831 q 328 983 196 983 q 540 907 460 983 q 619 700 619 831 l 619 686 z "},"Ĉ":{"ha":653,"x_min":38,"x_max":619,"o":"m 328 -11 q 117 67 196 -11 q 38 274 38 144 l 38 700 q 117 907 38 831 q 328 983 196 983 q 540 907 460 983 q 619 700 619 831 l 619 688 q 615 676 619 681 q 603 671 610 671 l 406 663 q 389 679 389 663 l 389 717 q 372 767 389 749 q 328 786 356 786 q 285 767 301 786 q 268 717 268 749 l 268 254 q 285 205 268 224 q 328 186 301 186 q 372 205 356 186 q 389 254 389 224 l 389 294 q 394 306 389 301 q 406 311 399 311 l 603 303 q 615 298 610 303 q 619 286 619 293 l 619 274 q 540 67 619 144 q 328 -11 460 -11 m 121 1049 q 108 1053 111 1049 q 110 1068 104 1058 l 197 1215 q 217 1226 203 1226 l 431 1226 q 450 1215 444 1226 l 542 1068 q 544 1058 544 1060 q 531 1049 544 1049 l 385 1049 q 365 1061 371 1049 l 329 1132 q 321 1132 325 1139 l 285 1061 q 265 1049 278 1049 l 121 1049 z "},"Ċ":{"ha":653,"x_min":38,"x_max":619,"o":"m 328 -11 q 117 67 196 -11 q 38 274 38 144 l 38 700 q 117 907 38 831 q 328 983 196 983 q 540 907 460 983 q 619 700 619 831 l 619 688 q 615 676 619 681 q 603 671 610 671 l 406 663 q 389 679 389 663 l 389 717 q 372 767 389 749 q 328 786 356 786 q 285 767 301 786 q 268 717 268 749 l 268 254 q 285 205 268 224 q 328 186 301 186 q 372 205 356 186 q 389 254 389 224 l 389 294 q 394 306 389 301 q 406 311 399 311 l 603 303 q 615 298 610 303 q 619 286 619 293 l 619 274 q 540 67 619 144 q 328 -11 460 -11 m 329 1036 q 242 1070 276 1036 q 208 1157 208 1104 q 242 1244 208 1211 q 329 1278 276 1278 q 415 1244 382 1278 q 449 1157 449 1211 q 415 1070 449 1104 q 329 1036 381 1036 z "},"D":{"ha":667,"x_min":49,"x_max":625,"o":"m 65 0 q 53 5 58 0 q 49 17 49 10 l 49 956 q 53 967 49 963 q 65 972 58 972 l 331 972 q 544 897 464 972 q 625 699 625 822 l 625 274 q 544 75 625 150 q 331 0 464 0 l 65 0 m 279 204 q 286 197 279 197 l 325 199 q 374 224 354 200 q 394 289 393 249 l 394 683 q 375 750 394 725 q 324 775 356 775 l 286 775 q 279 768 279 775 l 279 204 z "},"Ð":{"ha":703,"x_min":49,"x_max":661,"o":"m 367 972 q 581 897 500 972 q 661 699 661 822 l 661 274 q 581 75 661 150 q 367 0 500 0 l 101 0 q 90 5 94 0 q 85 17 85 10 l 85 436 q 78 443 85 443 l 65 443 q 53 448 58 443 q 49 460 49 453 l 49 557 q 53 569 49 564 q 65 574 58 574 l 78 574 q 85 581 85 574 l 85 956 q 90 967 85 963 q 101 972 94 972 l 367 972 m 431 683 q 411 750 431 725 q 360 775 392 775 l 322 775 q 315 768 315 775 l 315 581 q 322 574 315 574 l 357 574 q 369 569 364 574 q 374 557 374 564 l 374 460 q 369 448 374 453 q 357 443 364 443 l 322 443 q 315 436 315 443 l 315 204 q 322 197 315 197 l 361 199 q 410 224 390 200 q 431 289 429 249 l 431 683 z "},"Ď":{"ha":667,"x_min":49,"x_max":625,"o":"m 65 0 q 53 5 58 0 q 49 17 49 10 l 49 956 q 53 967 49 963 q 65 972 58 972 l 331 972 q 544 897 464 972 q 625 699 625 822 l 625 274 q 544 75 625 150 q 331 0 464 0 l 65 0 m 279 204 q 286 197 279 197 l 325 199 q 374 224 354 200 q 394 289 393 249 l 394 683 q 375 750 394 725 q 324 775 356 775 l 286 775 q 279 768 279 775 l 279 204 z "},"Đ":{"ha":703,"x_min":49,"x_max":661,"o":"m 367 972 q 581 897 500 972 q 661 699 661 822 l 661 274 q 581 75 661 150 q 367 0 500 0 l 101 0 q 90 5 94 0 q 85 17 85 10 l 85 436 q 78 443 85 443 l 65 443 q 53 448 58 443 q 49 460 49 453 l 49 557 q 53 569 49 564 q 65 574 58 574 l 78 574 q 85 581 85 574 l 85 956 q 90 967 85 963 q 101 972 94 972 l 367 972 m 431 683 q 411 750 431 725 q 360 775 392 775 l 322 775 q 315 768 315 775 l 315 581 q 322 574 315 574 l 357 574 q 369 569 364 574 q 374 557 374 564 l 374 460 q 369 448 374 453 q 357 443 364 443 l 322 443 q 315 436 315 443 l 315 204 q 322 197 315 197 l 361 199 q 410 224 390 200 q 431 289 429 249 l 431 683 z "},"E":{"ha":613,"x_min":49,"x_max":582,"o":"m 582 792 q 577 780 582 785 q 565 775 572 775 l 286 775 q 279 768 279 775 l 279 593 q 286 586 279 586 l 439 586 q 451 581 446 586 q 456 569 456 576 l 456 404 q 451 392 456 397 q 439 388 446 388 l 286 388 q 279 381 279 388 l 279 204 q 286 197 279 197 l 565 197 q 577 192 572 197 q 582 181 582 188 l 582 17 q 577 5 582 10 q 565 0 572 0 l 65 0 q 53 5 58 0 q 49 17 49 10 l 49 956 q 53 967 49 963 q 65 972 58 972 l 565 972 q 577 967 572 972 q 582 956 582 963 l 582 792 z "},"É":{"ha":613,"x_min":49,"x_max":582,"o":"m 582 792 q 577 780 582 785 q 565 775 572 775 l 286 775 q 279 768 279 775 l 279 593 q 286 586 279 586 l 439 586 q 451 581 446 586 q 456 569 456 576 l 456 404 q 451 392 456 397 q 439 388 446 388 l 286 388 q 279 381 279 388 l 279 204 q 286 197 279 197 l 565 197 q 577 192 572 197 q 582 181 582 188 l 582 17 q 577 5 582 10 q 565 0 572 0 l 65 0 q 53 5 58 0 q 49 17 49 10 l 49 956 q 53 967 49 963 q 65 972 58 972 l 565 972 q 577 967 572 972 q 582 956 582 963 l 582 792 m 231 1057 q 217 1063 221 1057 q 218 1076 213 1068 l 300 1215 q 319 1226 306 1226 l 475 1226 q 489 1217 489 1226 q 485 1206 489 1213 l 376 1067 q 356 1057 368 1057 l 231 1057 z "},"Ě":{"ha":613,"x_min":49,"x_max":582,"o":"m 582 792 q 577 780 582 785 q 565 775 572 775 l 286 775 q 279 768 279 775 l 279 593 q 286 586 279 586 l 439 586 q 451 581 446 586 q 456 569 456 576 l 456 404 q 451 392 456 397 q 439 388 446 388 l 286 388 q 279 381 279 388 l 279 204 q 286 197 279 197 l 565 197 q 577 192 572 197 q 582 181 582 188 l 582 17 q 577 5 582 10 q 565 0 572 0 l 65 0 q 53 5 58 0 q 49 17 49 10 l 49 956 q 53 967 49 963 q 65 972 58 972 l 565 972 q 577 967 572 972 q 582 956 582 963 l 582 792 m 107 1207 q 104 1217 104 1215 q 118 1226 104 1226 l 263 1226 q 282 1214 276 1226 l 318 1143 q 326 1143 322 1138 l 363 1214 q 382 1226 369 1226 l 528 1226 q 541 1222 538 1226 q 539 1207 544 1217 l 447 1060 q 428 1049 442 1049 l 214 1049 q 194 1060 200 1049 l 107 1207 z "},"Ȩ":{"ha":613,"x_min":49,"x_max":582,"o":"m 582 792 q 577 780 582 785 q 565 775 572 775 l 286 775 q 279 768 279 775 l 279 593 q 286 586 279 586 l 439 586 q 451 581 446 586 q 456 569 456 576 l 456 404 q 451 392 456 397 q 439 388 446 388 l 286 388 q 279 381 279 388 l 279 204 q 286 197 279 197 l 565 197 q 577 192 572 197 q 582 181 582 188 l 582 17 q 577 5 582 10 q 565 0 572 0 l 393 0 q 388 -3 389 0 q 389 -8 386 -6 q 432 -122 432 -64 q 428 -160 432 -142 q 383 -226 417 -207 q 304 -246 349 -246 q 229 -235 265 -246 q 217 -215 215 -231 l 228 -136 q 247 -124 229 -121 q 275 -117 264 -126 q 286 -85 286 -107 q 240 -4 286 -50 q 231 0 236 0 l 65 0 q 53 5 58 0 q 49 17 49 10 l 49 956 q 53 967 49 963 q 65 972 58 972 l 565 972 q 577 967 572 972 q 582 956 582 963 l 582 792 z "},"Ê":{"ha":613,"x_min":49,"x_max":582,"o":"m 582 792 q 577 780 582 785 q 565 775 572 775 l 286 775 q 279 768 279 775 l 279 593 q 286 586 279 586 l 439 586 q 451 581 446 586 q 456 569 456 576 l 456 404 q 451 392 456 397 q 439 388 446 388 l 286 388 q 279 381 279 388 l 279 204 q 286 197 279 197 l 565 197 q 577 192 572 197 q 582 181 582 188 l 582 17 q 577 5 582 10 q 565 0 572 0 l 65 0 q 53 5 58 0 q 49 17 49 10 l 49 956 q 53 967 49 963 q 65 972 58 972 l 565 972 q 577 967 572 972 q 582 956 582 963 l 582 792 m 108 1049 q 95 1053 99 1049 q 97 1068 92 1058 l 185 1215 q 204 1226 190 1226 l 418 1226 q 438 1215 432 1226 l 529 1068 q 532 1058 532 1060 q 518 1049 532 1049 l 372 1049 q 353 1061 358 1049 l 317 1132 q 308 1132 313 1139 l 272 1061 q 253 1049 265 1049 l 108 1049 z "},"Ế":{"ha":613,"x_min":49,"x_max":789,"o":"m 582 792 q 577 780 582 785 q 565 775 572 775 l 286 775 q 279 768 279 775 l 279 593 q 286 586 279 586 l 439 586 q 451 581 446 586 q 456 569 456 576 l 456 404 q 451 392 456 397 q 439 388 446 388 l 286 388 q 279 381 279 388 l 279 204 q 286 197 279 197 l 565 197 q 577 192 572 197 q 582 181 582 188 l 582 17 q 577 5 582 10 q 565 0 572 0 l 65 0 q 53 5 58 0 q 49 17 49 10 l 49 956 q 53 967 49 963 q 65 972 58 972 l 565 972 q 577 967 572 972 q 582 956 582 963 l 582 792 z "},"Ệ":{"ha":613,"x_min":49,"x_max":582,"o":"m 582 792 q 577 780 582 785 q 565 775 572 775 l 286 775 q 279 768 279 775 l 279 593 q 286 586 279 586 l 439 586 q 451 581 446 586 q 456 569 456 576 l 456 404 q 451 392 456 397 q 439 388 446 388 l 286 388 q 279 381 279 388 l 279 204 q 286 197 279 197 l 565 197 q 577 192 572 197 q 582 181 582 188 l 582 17 q 577 5 582 10 q 565 0 572 0 l 65 0 q 53 5 58 0 q 49 17 49 10 l 49 956 q 53 967 49 963 q 65 972 58 972 l 565 972 q 577 967 572 972 q 582 956 582 963 l 582 792 m 306 -358 q 222 -326 254 -358 q 189 -243 189 -293 q 222 -159 189 -192 q 306 -126 254 -126 q 388 -159 356 -126 q 421 -243 421 -192 q 388 -325 421 -292 q 306 -358 356 -358 m 108 1049 q 95 1053 99 1049 q 97 1068 92 1058 l 185 1215 q 204 1226 190 1226 l 418 1226 q 438 1215 432 1226 l 529 1068 q 532 1058 532 1060 q 518 1049 532 1049 l 372 1049 q 353 1061 358 1049 l 317 1132 q 308 1132 313 1139 l 272 1061 q 253 1049 265 1049 l 108 1049 z "},"Ề":{"ha":613,"x_min":49,"x_max":632,"o":"m 582 792 q 577 780 582 785 q 565 775 572 775 l 286 775 q 279 768 279 775 l 279 593 q 286 586 279 586 l 439 586 q 451 581 446 586 q 456 569 456 576 l 456 404 q 451 392 456 397 q 439 388 446 388 l 286 388 q 279 381 279 388 l 279 204 q 286 197 279 197 l 565 197 q 577 192 572 197 q 582 181 582 188 l 582 17 q 577 5 582 10 q 565 0 572 0 l 65 0 q 53 5 58 0 q 49 17 49 10 l 49 956 q 53 967 49 963 q 65 972 58 972 l 565 972 q 577 967 572 972 q 582 956 582 963 l 582 792 z "},"Ể":{"ha":613,"x_min":49,"x_max":682,"o":"m 582 792 q 577 780 582 785 q 565 775 572 775 l 286 775 q 279 768 279 775 l 279 593 q 286 586 279 586 l 439 586 q 451 581 446 586 q 456 569 456 576 l 456 404 q 451 392 456 397 q 439 388 446 388 l 286 388 q 279 381 279 388 l 279 204 q 286 197 279 197 l 565 197 q 577 192 572 197 q 582 181 582 188 l 582 17 q 577 5 582 10 q 565 0 572 0 l 65 0 q 53 5 58 0 q 49 17 49 10 l 49 956 q 53 967 49 963 q 65 972 58 972 l 565 972 q 577 967 572 972 q 582 956 582 963 l 582 792 m 521 1197 q 510 1218 501 1201 q 550 1283 525 1257 q 567 1306 561 1296 q 572 1332 572 1317 q 563 1351 572 1343 q 543 1358 554 1358 q 517 1351 529 1358 q 489 1322 506 1343 q 476 1314 483 1314 q 465 1318 472 1314 l 413 1357 q 406 1369 406 1364 q 410 1381 406 1375 q 471 1440 439 1422 q 549 1457 503 1457 q 646 1424 610 1457 q 682 1332 682 1390 q 669 1281 682 1301 q 633 1236 657 1260 q 600 1196 613 1215 q 579 1186 592 1185 l 521 1197 m 110 1049 q 97 1053 100 1049 q 99 1068 93 1058 l 186 1215 q 206 1226 192 1226 l 419 1226 q 439 1215 433 1226 l 531 1068 q 533 1058 533 1060 q 519 1049 533 1049 l 374 1049 q 354 1061 360 1049 l 318 1132 q 310 1132 314 1139 l 274 1061 q 254 1049 267 1049 l 110 1049 z "},"Ễ":{"ha":613,"x_min":49,"x_max":582,"o":"m 582 792 q 577 780 582 785 q 565 775 572 775 l 286 775 q 279 768 279 775 l 279 593 q 286 586 279 586 l 439 586 q 451 581 446 586 q 456 569 456 576 l 456 404 q 451 392 456 397 q 439 388 446 388 l 286 388 q 279 381 279 388 l 279 204 q 286 197 279 197 l 565 197 q 577 192 572 197 q 582 181 582 188 l 582 17 q 577 5 582 10 q 565 0 572 0 l 65 0 q 53 5 58 0 q 49 17 49 10 l 49 956 q 53 967 49 963 q 65 972 58 972 l 565 972 q 577 967 572 972 q 582 956 582 963 l 582 792 z "},"Ë":{"ha":613,"x_min":49,"x_max":582,"o":"m 582 792 q 577 780 582 785 q 565 775 572 775 l 286 775 q 279 768 279 775 l 279 593 q 286 586 279 586 l 439 586 q 451 581 446 586 q 456 569 456 576 l 456 404 q 451 392 456 397 q 439 388 446 388 l 286 388 q 279 381 279 388 l 279 204 q 286 197 279 197 l 565 197 q 577 192 572 197 q 582 181 582 188 l 582 17 q 577 5 582 10 q 565 0 572 0 l 65 0 q 53 5 58 0 q 49 17 49 10 l 49 956 q 53 967 49 963 q 65 972 58 972 l 565 972 q 577 967 572 972 q 582 956 582 963 l 582 792 z "},"Ė":{"ha":613,"x_min":49,"x_max":582,"o":"m 582 792 q 577 780 582 785 q 565 775 572 775 l 286 775 q 279 768 279 775 l 279 593 q 286 586 279 586 l 439 586 q 451 581 446 586 q 456 569 456 576 l 456 404 q 451 392 456 397 q 439 388 446 388 l 286 388 q 279 381 279 388 l 279 204 q 286 197 279 197 l 565 197 q 577 192 572 197 q 582 181 582 188 l 582 17 q 577 5 582 10 q 565 0 572 0 l 65 0 q 53 5 58 0 q 49 17 49 10 l 49 956 q 53 967 49 963 q 65 972 58 972 l 565 972 q 577 967 572 972 q 582 956 582 963 l 582 792 m 317 1036 q 230 1070 264 1036 q 196 1157 196 1104 q 230 1244 196 1211 q 317 1278 264 1278 q 403 1244 369 1278 q 436 1157 436 1211 q 402 1070 436 1104 q 317 1036 368 1036 z "},"Ẹ":{"ha":613,"x_min":49,"x_max":582,"o":"m 582 792 q 577 780 582 785 q 565 775 572 775 l 286 775 q 279 768 279 775 l 279 593 q 286 586 279 586 l 439 586 q 451 581 446 586 q 456 569 456 576 l 456 404 q 451 392 456 397 q 439 388 446 388 l 286 388 q 279 381 279 388 l 279 204 q 286 197 279 197 l 565 197 q 577 192 572 197 q 582 181 582 188 l 582 17 q 577 5 582 10 q 565 0 572 0 l 65 0 q 53 5 58 0 q 49 17 49 10 l 49 956 q 53 967 49 963 q 65 972 58 972 l 565 972 q 577 967 572 972 q 582 956 582 963 l 582 792 m 306 -358 q 222 -326 254 -358 q 189 -243 189 -293 q 222 -159 189 -192 q 306 -126 254 -126 q 388 -159 356 -126 q 421 -243 421 -192 q 388 -325 421 -292 q 306 -358 356 -358 z "},"È":{"ha":613,"x_min":49,"x_max":582,"o":"m 582 792 q 577 780 582 785 q 565 775 572 775 l 286 775 q 279 768 279 775 l 279 593 q 286 586 279 586 l 439 586 q 451 581 446 586 q 456 569 456 576 l 456 404 q 451 392 456 397 q 439 388 446 388 l 286 388 q 279 381 279 388 l 279 204 q 286 197 279 197 l 565 197 q 577 192 572 197 q 582 181 582 188 l 582 17 q 577 5 582 10 q 565 0 572 0 l 65 0 q 53 5 58 0 q 49 17 49 10 l 49 956 q 53 967 49 963 q 65 972 58 972 l 565 972 q 577 967 572 972 q 582 956 582 963 l 582 792 m 390 1068 q 375 1057 390 1057 l 249 1057 q 228 1067 236 1057 l 119 1206 q 115 1215 115 1213 q 131 1226 115 1226 l 286 1226 q 306 1215 300 1226 l 388 1076 l 390 1068 z "},"Ẻ":{"ha":613,"x_min":49,"x_max":582,"o":"m 582 792 q 577 780 582 785 q 565 775 572 775 l 286 775 q 279 768 279 775 l 279 593 q 286 586 279 586 l 439 586 q 451 581 446 586 q 456 569 456 576 l 456 404 q 451 392 456 397 q 439 388 446 388 l 286 388 q 279 381 279 388 l 279 204 q 286 197 279 197 l 565 197 q 577 192 572 197 q 582 181 582 188 l 582 17 q 577 5 582 10 q 565 0 572 0 l 65 0 q 53 5 58 0 q 49 17 49 10 l 49 956 q 53 967 49 963 q 65 972 58 972 l 565 972 q 577 967 572 972 q 582 956 582 963 l 582 792 m 293 1031 q 282 1051 274 1035 q 326 1122 299 1092 q 344 1148 339 1138 q 350 1176 350 1158 q 340 1196 350 1188 q 318 1204 331 1204 q 290 1196 303 1204 q 258 1164 276 1188 q 246 1157 251 1157 q 235 1161 240 1157 l 176 1203 q 168 1215 168 1210 q 172 1226 168 1221 q 239 1292 204 1272 q 324 1311 274 1311 q 431 1276 392 1311 q 469 1176 469 1240 q 456 1122 469 1144 q 417 1072 443 1100 q 381 1028 388 1040 q 360 1018 372 1017 l 293 1031 z "},"Ē":{"ha":613,"x_min":49,"x_max":582,"o":"m 582 792 q 577 780 582 785 q 565 775 572 775 l 286 775 q 279 768 279 775 l 279 593 q 286 586 279 586 l 439 586 q 451 581 446 586 q 456 569 456 576 l 456 404 q 451 392 456 397 q 439 388 446 388 l 286 388 q 279 381 279 388 l 279 204 q 286 197 279 197 l 565 197 q 577 192 572 197 q 582 181 582 188 l 582 17 q 577 5 582 10 q 565 0 572 0 l 65 0 q 53 5 58 0 q 49 17 49 10 l 49 956 q 53 967 49 963 q 65 972 58 972 l 565 972 q 577 967 572 972 q 582 956 582 963 l 582 792 m 169 1054 q 158 1059 163 1054 q 153 1071 153 1064 l 153 1193 q 158 1205 153 1200 q 169 1210 163 1210 l 450 1210 q 462 1205 457 1210 q 467 1193 467 1200 l 467 1071 q 462 1059 467 1064 q 450 1054 457 1054 l 169 1054 z "},"Ę":{"ha":613,"x_min":49,"x_max":582,"o":"m 582 792 q 577 780 582 785 q 565 775 572 775 l 286 775 q 279 768 279 775 l 279 593 q 286 586 279 586 l 439 586 q 451 581 446 586 q 456 569 456 576 l 456 404 q 451 392 456 397 q 439 388 446 388 l 286 388 q 279 381 279 388 l 279 204 q 286 197 279 197 l 565 197 q 577 192 572 197 q 582 181 582 188 l 582 17 q 577 5 582 10 q 565 0 572 0 l 389 0 q 379 -3 385 0 q 324 -104 313 -62 q 356 -132 332 -132 l 367 -132 q 377 -134 374 -132 q 382 -144 381 -136 l 392 -224 l 392 -228 q 379 -243 392 -239 q 306 -254 343 -254 q 227 -235 261 -254 q 181 -168 193 -215 q 176 -131 176 -150 q 226 -8 176 -64 q 228 -3 229 -6 q 224 0 228 0 l 65 0 q 53 5 58 0 q 49 17 49 10 l 49 956 q 53 967 49 963 q 65 972 58 972 l 565 972 q 577 967 572 972 q 582 956 582 963 l 582 792 z "},"Ẽ":{"ha":613,"x_min":49,"x_max":582,"o":"m 582 792 q 577 780 582 785 q 565 775 572 775 l 286 775 q 279 768 279 775 l 279 593 q 286 586 279 586 l 439 586 q 451 581 446 586 q 456 569 456 576 l 456 404 q 451 392 456 397 q 439 388 446 388 l 286 388 q 279 381 279 388 l 279 204 q 286 197 279 197 l 565 197 q 577 192 572 197 q 582 181 582 188 l 582 17 q 577 5 582 10 q 565 0 572 0 l 65 0 q 53 5 58 0 q 49 17 49 10 l 49 956 q 53 967 49 963 q 65 972 58 972 l 565 972 q 577 967 572 972 q 582 956 582 963 l 582 792 m 411 1057 q 335 1079 379 1057 q 315 1091 324 1085 q 297 1101 306 1097 q 278 1104 288 1104 q 232 1075 250 1104 q 221 1066 228 1068 q 208 1069 214 1064 l 138 1119 q 131 1142 126 1128 q 183 1221 149 1194 q 258 1247 217 1247 q 350 1215 301 1247 q 363 1206 353 1213 q 384 1196 374 1200 q 406 1192 394 1192 q 453 1217 436 1192 q 475 1224 463 1232 l 544 1175 q 551 1161 551 1171 q 546 1143 551 1153 q 486 1077 522 1097 q 411 1057 450 1057 z "},"F":{"ha":593,"x_min":49,"x_max":582,"o":"m 582 792 q 577 780 582 785 q 565 775 572 775 l 286 775 q 279 768 279 775 l 279 593 q 286 586 279 586 l 439 586 q 451 581 446 586 q 456 569 456 576 l 456 404 q 451 392 456 397 q 439 388 446 388 l 286 388 q 279 381 279 388 l 279 17 q 274 5 279 10 q 263 0 269 0 l 65 0 q 53 5 58 0 q 49 17 49 10 l 49 956 q 53 967 49 963 q 65 972 58 972 l 565 972 q 577 967 572 972 q 582 956 582 963 l 582 792 z "},"G":{"ha":657,"x_min":38,"x_max":619,"o":"m 328 -11 q 117 63 196 -11 q 38 263 38 138 l 38 711 q 117 910 38 836 q 328 983 196 983 q 540 908 460 983 q 619 708 619 833 l 619 657 q 615 645 619 650 q 603 640 610 640 l 406 640 q 394 645 399 640 q 389 657 389 650 l 389 711 q 372 765 389 744 q 328 786 356 786 q 285 765 301 786 q 268 711 268 744 l 268 261 q 285 207 268 228 q 328 186 301 186 q 372 207 356 186 q 389 261 389 228 l 389 350 q 382 357 389 357 l 346 357 q 334 362 339 357 q 329 374 329 367 l 329 521 q 334 533 329 528 q 346 538 339 538 l 603 538 q 615 533 610 538 q 619 521 619 528 l 619 263 q 540 63 619 138 q 328 -11 460 -11 z "},"Ğ":{"ha":657,"x_min":38,"x_max":619,"o":"m 328 -11 q 117 63 196 -11 q 38 263 38 138 l 38 711 q 117 910 38 836 q 328 983 196 983 q 540 908 460 983 q 619 708 619 833 l 619 657 q 615 645 619 650 q 603 640 610 640 l 406 640 q 394 645 399 640 q 389 657 389 650 l 389 711 q 372 765 389 744 q 328 786 356 786 q 285 765 301 786 q 268 711 268 744 l 268 261 q 285 207 268 228 q 328 186 301 186 q 372 207 356 186 q 389 261 389 228 l 389 350 q 382 357 389 357 l 346 357 q 334 362 339 357 q 329 374 329 367 l 329 521 q 334 533 329 528 q 346 538 339 538 l 603 538 q 615 533 610 538 q 619 521 619 528 l 619 263 q 540 63 619 138 q 328 -11 460 -11 m 329 1013 q 208 1054 254 1013 q 154 1165 161 1096 q 171 1182 154 1182 l 256 1182 q 274 1165 272 1182 q 292 1125 276 1140 q 329 1110 307 1110 q 366 1125 351 1110 q 385 1165 381 1140 q 403 1182 388 1182 l 488 1182 q 504 1165 504 1182 q 450 1054 497 1096 q 329 1013 403 1013 z "},"Ĝ":{"ha":657,"x_min":38,"x_max":619,"o":"m 328 -11 q 117 63 196 -11 q 38 263 38 138 l 38 711 q 117 910 38 836 q 328 983 196 983 q 540 908 460 983 q 619 708 619 833 l 619 657 q 615 645 619 650 q 603 640 610 640 l 406 640 q 394 645 399 640 q 389 657 389 650 l 389 711 q 372 765 389 744 q 328 786 356 786 q 285 765 301 786 q 268 711 268 744 l 268 261 q 285 207 268 228 q 328 186 301 186 q 372 207 356 186 q 389 261 389 228 l 389 350 q 382 357 389 357 l 346 357 q 334 362 339 357 q 329 374 329 367 l 329 521 q 334 533 329 528 q 346 538 339 538 l 603 538 q 615 533 610 538 q 619 521 619 528 l 619 263 q 540 63 619 138 q 328 -11 460 -11 m 121 1049 q 108 1053 111 1049 q 110 1068 104 1058 l 197 1215 q 217 1226 203 1226 l 431 1226 q 450 1215 444 1226 l 542 1068 q 544 1058 544 1060 q 531 1049 544 1049 l 385 1049 q 365 1061 371 1049 l 329 1132 q 321 1132 325 1139 l 285 1061 q 265 1049 278 1049 l 121 1049 z "},"Ġ":{"ha":657,"x_min":38,"x_max":619,"o":"m 328 -11 q 117 63 196 -11 q 38 263 38 138 l 38 711 q 117 910 38 836 q 328 983 196 983 q 540 908 460 983 q 619 708 619 833 l 619 657 q 615 645 619 650 q 603 640 610 640 l 406 640 q 394 645 399 640 q 389 657 389 650 l 389 711 q 372 765 389 744 q 328 786 356 786 q 285 765 301 786 q 268 711 268 744 l 268 261 q 285 207 268 228 q 328 186 301 186 q 372 207 356 186 q 389 261 389 228 l 389 350 q 382 357 389 357 l 346 357 q 334 362 339 357 q 329 374 329 367 l 329 521 q 334 533 329 528 q 346 538 339 538 l 603 538 q 615 533 610 538 q 619 521 619 528 l 619 263 q 540 63 619 138 q 328 -11 460 -11 m 329 1036 q 242 1070 276 1036 q 208 1157 208 1104 q 242 1244 208 1211 q 329 1278 276 1278 q 415 1244 382 1278 q 449 1157 449 1211 q 415 1070 449 1104 q 329 1036 381 1036 z "},"H":{"ha":671,"x_min":49,"x_max":624,"o":"m 393 956 q 398 967 393 963 q 410 972 403 972 l 607 972 q 619 967 614 972 q 624 956 624 963 l 624 17 q 619 5 624 10 q 607 0 614 0 l 410 0 q 398 5 403 0 q 393 17 393 10 l 393 381 q 386 388 393 388 l 286 388 q 279 381 279 388 l 279 17 q 274 5 279 10 q 263 0 269 0 l 65 0 q 53 5 58 0 q 49 17 49 10 l 49 956 q 53 967 49 963 q 65 972 58 972 l 263 972 q 274 967 269 972 q 279 956 279 963 l 279 593 q 286 586 279 586 l 386 586 q 393 593 393 586 l 393 956 z "},"Ħ":{"ha":671,"x_min":-18,"x_max":690,"o":"m 674 858 q 685 853 681 858 q 690 842 690 849 l 690 721 q 685 709 690 714 q 674 704 681 704 l 631 704 q 624 697 624 704 l 624 17 q 619 5 624 10 q 607 0 614 0 l 410 0 q 398 5 403 0 q 393 17 393 10 l 393 381 q 386 388 393 388 l 286 388 q 279 381 279 388 l 279 17 q 274 5 279 10 q 263 0 269 0 l 65 0 q 53 5 58 0 q 49 17 49 10 l 49 697 q 42 704 49 704 l -1 704 q -13 709 -8 704 q -18 721 -18 714 l -18 842 q -13 853 -18 849 q -1 858 -8 858 l 42 858 q 49 865 49 858 l 49 956 q 53 967 49 963 q 65 972 58 972 l 263 972 q 274 967 269 972 q 279 956 279 963 l 279 865 q 286 858 279 858 l 386 858 q 393 865 393 858 l 393 956 q 398 967 393 963 q 410 972 403 972 l 607 972 q 619 967 614 972 q 624 956 624 963 l 624 865 q 631 858 624 858 l 674 858 m 386 586 q 393 593 393 586 l 393 697 q 386 704 393 704 l 286 704 q 279 697 279 704 l 279 593 q 286 586 279 586 l 386 586 z "},"Ĥ":{"ha":671,"x_min":49,"x_max":624,"o":"m 393 956 q 398 967 393 963 q 410 972 403 972 l 607 972 q 619 967 614 972 q 624 956 624 963 l 624 17 q 619 5 624 10 q 607 0 614 0 l 410 0 q 398 5 403 0 q 393 17 393 10 l 393 381 q 386 388 393 388 l 286 388 q 279 381 279 388 l 279 17 q 274 5 279 10 q 263 0 269 0 l 65 0 q 53 5 58 0 q 49 17 49 10 l 49 956 q 53 967 49 963 q 65 972 58 972 l 263 972 q 274 967 269 972 q 279 956 279 963 l 279 593 q 286 586 279 586 l 386 586 q 393 593 393 586 l 393 956 m 128 1050 q 115 1055 118 1050 q 117 1069 111 1060 l 204 1217 q 224 1228 210 1228 l 438 1228 q 457 1217 451 1228 l 549 1069 q 551 1060 551 1061 q 538 1050 551 1050 l 392 1050 q 372 1063 378 1050 l 336 1133 q 328 1133 332 1140 l 292 1063 q 272 1050 285 1050 l 128 1050 z "},"I":{"ha":326,"x_min":49,"x_max":279,"o":"m 65 0 q 53 5 58 0 q 49 17 49 10 l 49 956 q 53 967 49 963 q 65 972 58 972 l 263 972 q 274 967 269 972 q 279 956 279 963 l 279 17 q 274 5 279 10 q 263 0 269 0 l 65 0 z "},"Í":{"ha":326,"x_min":49,"x_max":336,"o":"m 65 0 q 53 5 58 0 q 49 17 49 10 l 49 956 q 53 967 49 963 q 65 972 58 972 l 263 972 q 274 967 269 972 q 279 956 279 963 l 279 17 q 274 5 279 10 q 263 0 269 0 l 65 0 m 78 1057 q 64 1063 68 1057 q 65 1076 60 1068 l 147 1215 q 167 1226 153 1226 l 322 1226 q 336 1217 336 1226 q 332 1206 336 1213 l 224 1067 q 203 1057 215 1057 l 78 1057 z "},"Î":{"ha":326,"x_min":-61,"x_max":379,"o":"m 65 0 q 53 5 58 0 q 49 17 49 10 l 49 956 q 53 967 49 963 q 65 972 58 972 l 263 972 q 274 967 269 972 q 279 956 279 963 l 279 17 q 274 5 279 10 q 263 0 269 0 l 65 0 m -44 1049 q -58 1053 -54 1049 q -56 1068 -61 1058 l 32 1215 q 51 1226 38 1226 l 265 1226 q 285 1215 279 1226 l 376 1068 q 379 1058 379 1060 q 365 1049 379 1049 l 219 1049 q 200 1061 206 1049 l 164 1132 q 156 1132 160 1139 l 119 1061 q 100 1049 113 1049 l -44 1049 z "},"Ï":{"ha":326,"x_min":-94,"x_max":419,"o":"m 65 0 q 53 5 58 0 q 49 17 49 10 l 49 956 q 53 967 49 963 q 65 972 58 972 l 263 972 q 274 967 269 972 q 279 956 279 963 l 279 17 q 274 5 279 10 q 263 0 269 0 l 65 0 z "},"İ":{"ha":326,"x_min":43,"x_max":283,"o":"m 65 0 q 53 5 58 0 q 49 17 49 10 l 49 956 q 53 967 49 963 q 65 972 58 972 l 263 972 q 274 967 269 972 q 279 956 279 963 l 279 17 q 274 5 279 10 q 263 0 269 0 l 65 0 m 164 1036 q 77 1070 111 1036 q 43 1157 43 1104 q 77 1244 43 1211 q 164 1278 111 1278 q 250 1244 217 1278 q 283 1157 283 1211 q 249 1070 283 1104 q 164 1036 215 1036 z "},"Ị":{"ha":326,"x_min":47,"x_max":279,"o":"m 65 0 q 53 5 58 0 q 49 17 49 10 l 49 956 q 53 967 49 963 q 65 972 58 972 l 263 972 q 274 967 269 972 q 279 956 279 963 l 279 17 q 274 5 279 10 q 263 0 269 0 l 65 0 m 164 -358 q 80 -326 113 -358 q 47 -243 47 -293 q 80 -159 47 -192 q 164 -126 113 -126 q 247 -159 214 -126 q 279 -243 279 -192 q 247 -325 279 -292 q 164 -358 214 -358 z "},"Ì":{"ha":326,"x_min":-37,"x_max":279,"o":"m 65 0 q 53 5 58 0 q 49 17 49 10 l 49 956 q 53 967 49 963 q 65 972 58 972 l 263 972 q 274 967 269 972 q 279 956 279 963 l 279 17 q 274 5 279 10 q 263 0 269 0 l 65 0 m 238 1068 q 222 1057 238 1057 l 96 1057 q 75 1067 83 1057 l -33 1206 q -37 1215 -37 1213 q -22 1226 -37 1226 l 133 1226 q 153 1215 147 1226 l 235 1076 l 238 1068 z "},"Ỉ":{"ha":326,"x_min":15,"x_max":317,"o":"m 65 0 q 53 5 58 0 q 49 17 49 10 l 49 956 q 53 967 49 963 q 65 972 58 972 l 263 972 q 274 967 269 972 q 279 956 279 963 l 279 17 q 274 5 279 10 q 263 0 269 0 l 65 0 m 140 1031 q 129 1051 121 1035 q 174 1122 146 1092 q 192 1148 186 1138 q 197 1176 197 1158 q 188 1196 197 1188 q 165 1204 178 1204 q 137 1196 150 1204 q 106 1164 124 1188 q 93 1157 99 1157 q 82 1161 88 1157 l 24 1203 q 15 1215 15 1210 q 19 1226 15 1221 q 86 1292 51 1272 q 171 1311 121 1311 q 278 1276 239 1311 q 317 1176 317 1240 q 303 1122 317 1144 q 264 1072 290 1100 q 228 1028 235 1040 q 207 1018 219 1017 l 140 1031 z "},"Ī":{"ha":326,"x_min":0,"x_max":314,"o":"m 65 0 q 53 5 58 0 q 49 17 49 10 l 49 956 q 53 967 49 963 q 65 972 58 972 l 263 972 q 274 967 269 972 q 279 956 279 963 l 279 17 q 274 5 279 10 q 263 0 269 0 l 65 0 m 17 1054 q 5 1059 10 1054 q 0 1071 0 1064 l 0 1193 q 5 1205 0 1200 q 17 1210 10 1210 l 297 1210 q 309 1205 304 1210 q 314 1193 314 1200 l 314 1071 q 309 1059 314 1064 q 297 1054 304 1054 l 17 1054 z "},"Į":{"ha":319,"x_min":44,"x_max":275,"o":"m 61 0 q 49 5 54 0 q 44 17 44 10 l 44 956 q 49 967 44 963 q 61 972 54 972 l 258 972 q 270 967 265 972 q 275 956 275 963 l 275 17 q 270 5 275 10 q 258 0 265 0 l 61 0 m 268 -240 q 256 -257 268 -251 q 182 -268 219 -268 q 58 -181 79 -268 q 53 -142 53 -156 q 115 -8 53 -72 q 136 0 124 0 l 244 0 q 258 -8 258 0 q 250 -21 258 -15 q 199 -106 199 -69 q 210 -137 199 -128 q 239 -146 221 -147 l 243 -146 q 258 -158 257 -146 l 268 -236 l 268 -240 z "},"Ĩ":{"ha":326,"x_min":-26,"x_max":399,"o":"m 65 0 q 53 5 58 0 q 49 17 49 10 l 49 956 q 53 967 49 963 q 65 972 58 972 l 263 972 q 274 967 269 972 q 279 956 279 963 l 279 17 q 274 5 279 10 q 263 0 269 0 l 65 0 m 258 1057 q 182 1079 226 1057 q 162 1091 171 1085 q 144 1101 153 1097 q 125 1104 135 1104 q 79 1075 97 1104 q 68 1066 75 1068 q 56 1069 61 1064 l -15 1119 q -22 1142 -26 1128 q 30 1221 -4 1194 q 106 1247 64 1247 q 197 1215 149 1247 q 210 1206 200 1213 q 231 1196 221 1200 q 253 1192 242 1192 q 300 1217 283 1192 q 322 1224 310 1232 l 392 1175 q 399 1161 399 1171 q 393 1143 399 1153 q 333 1077 369 1097 q 258 1057 297 1057 z "},"J":{"ha":642,"x_min":15,"x_max":593,"o":"m 303 -11 q 153 23 218 -11 q 51 118 88 57 q 15 258 15 179 l 15 349 q 20 360 15 356 q 32 365 25 365 l 229 365 q 241 360 236 365 q 246 349 246 356 l 246 256 q 262 206 246 225 q 303 186 278 186 q 346 206 329 186 q 363 256 363 225 l 363 956 q 367 967 363 963 q 379 972 372 972 l 576 972 q 588 967 583 972 q 593 956 593 963 l 593 258 q 557 118 593 179 q 455 23 521 57 q 303 -11 389 -11 z "},"Ĵ":{"ha":642,"x_min":15,"x_max":689,"o":"m 303 -11 q 153 23 218 -11 q 51 118 88 57 q 15 258 15 179 l 15 349 q 20 360 15 356 q 32 365 25 365 l 229 365 q 241 360 236 365 q 246 349 246 356 l 246 256 q 262 206 246 225 q 303 186 278 186 q 346 206 329 186 q 363 256 363 225 l 363 956 q 367 967 363 963 q 379 972 372 972 l 576 972 q 588 967 583 972 q 593 956 593 963 l 593 258 q 557 118 593 179 q 455 23 521 57 q 303 -11 389 -11 m 265 1050 q 252 1055 256 1050 q 254 1069 249 1060 l 342 1217 q 361 1228 347 1228 l 575 1228 q 594 1217 589 1228 l 686 1069 q 689 1060 689 1061 q 675 1050 689 1050 l 529 1050 q 510 1063 515 1050 l 474 1133 q 465 1133 469 1140 l 429 1063 q 410 1050 422 1050 l 265 1050 z "},"K":{"ha":701,"x_min":49,"x_max":683,"o":"m 65 0 q 53 5 58 0 q 49 17 49 10 l 49 956 q 53 967 49 963 q 65 972 58 972 l 263 972 q 274 967 269 972 q 279 956 279 963 l 279 642 q 282 636 279 636 q 288 640 285 636 l 433 960 q 453 972 439 972 l 661 972 q 674 967 671 972 q 674 953 678 963 l 472 544 q 471 536 471 539 l 682 19 q 683 11 683 17 q 669 0 683 0 l 460 0 q 440 13 444 0 l 315 338 q 311 342 314 342 q 306 338 308 342 l 281 288 q 279 279 279 285 l 279 17 q 274 5 279 10 q 263 0 269 0 l 65 0 z "},"L":{"ha":607,"x_min":49,"x_max":586,"o":"m 65 0 q 53 5 58 0 q 49 17 49 10 l 49 956 q 53 967 49 963 q 65 972 58 972 l 263 972 q 274 967 269 972 q 279 956 279 963 l 279 204 q 286 197 279 197 l 569 197 q 581 192 576 197 q 586 181 586 188 l 586 17 q 581 5 586 10 q 569 0 576 0 l 65 0 z "},"Ĺ":{"ha":607,"x_min":49,"x_max":586,"o":"m 65 0 q 53 5 58 0 q 49 17 49 10 l 49 956 q 53 967 49 963 q 65 972 58 972 l 263 972 q 274 967 269 972 q 279 956 279 963 l 279 204 q 286 197 279 197 l 569 197 q 581 192 576 197 q 586 181 586 188 l 586 17 q 581 5 586 10 q 569 0 576 0 l 65 0 m 82 1057 q 68 1063 72 1057 q 69 1076 64 1068 l 151 1215 q 171 1226 157 1226 l 326 1226 q 340 1217 340 1226 q 336 1206 340 1213 l 228 1067 q 207 1057 219 1057 l 82 1057 z "},"Ľ":{"ha":611,"x_min":49,"x_max":586,"o":"m 65 0 q 53 5 58 0 q 49 17 49 10 l 49 956 q 53 967 49 963 q 65 972 58 972 l 263 972 q 274 967 269 972 q 279 956 279 963 l 279 204 q 286 197 279 197 l 569 197 q 581 192 576 197 q 586 181 586 188 l 586 17 q 581 5 586 10 q 569 0 576 0 l 65 0 z "},"Ļ":{"ha":607,"x_min":49,"x_max":586,"o":"m 65 0 q 53 5 58 0 q 49 17 49 10 l 49 956 q 53 967 49 963 q 65 972 58 972 l 263 972 q 274 967 269 972 q 279 956 279 963 l 279 204 q 286 197 279 197 l 569 197 q 581 192 576 197 q 586 181 586 188 l 586 17 q 581 5 586 10 q 569 0 576 0 l 65 0 z "},"Ł":{"ha":717,"x_min":-19,"x_max":697,"o":"m 389 204 q 396 197 389 197 l 681 197 q 692 192 688 197 q 697 181 697 188 l 697 17 q 692 5 697 10 q 681 0 688 0 l 175 0 q 163 5 168 0 q 158 17 158 10 l 158 224 q 156 229 158 228 q 150 228 153 231 l 101 186 q 90 181 93 181 q 78 188 85 181 l -14 293 q -19 304 -19 301 q -12 317 -19 310 l 154 460 q 158 468 158 463 l 158 956 q 163 967 158 963 q 175 972 168 972 l 372 972 q 384 967 379 972 q 389 956 389 963 l 389 671 q 392 665 389 667 q 397 667 394 664 l 536 785 q 547 790 544 790 q 560 783 553 790 l 650 676 q 656 665 656 668 q 649 653 656 660 l 393 435 q 389 426 389 433 l 389 204 z "},"M":{"ha":775,"x_min":42,"x_max":732,"o":"m 501 961 q 522 972 507 972 l 715 972 q 727 967 722 972 q 732 956 732 963 l 732 17 q 727 5 732 10 q 715 0 722 0 l 518 0 q 506 5 511 0 q 501 17 501 10 l 501 613 q 499 619 501 618 q 493 615 496 619 l 396 446 q 388 435 390 435 q 378 446 385 435 l 281 615 q 275 619 278 619 q 272 614 272 619 l 272 17 q 267 5 272 10 q 256 0 263 0 l 58 0 q 47 5 51 0 q 42 17 42 10 l 42 956 q 47 967 42 963 q 58 972 51 972 l 253 972 q 274 961 267 972 l 385 760 q 393 760 389 754 l 501 961 z "},"N":{"ha":725,"x_min":49,"x_max":676,"o":"m 449 956 q 453 967 449 963 q 465 972 458 972 l 660 972 q 672 967 667 972 q 676 956 676 963 l 676 17 q 672 5 676 10 q 660 0 667 0 l 439 0 q 419 14 424 0 l 282 497 q 277 502 281 501 q 274 497 274 503 l 276 17 q 272 5 276 10 q 260 0 267 0 l 65 0 q 53 5 58 0 q 49 17 49 10 l 49 956 q 53 967 49 963 q 65 972 58 972 l 283 972 q 303 958 299 972 l 442 472 q 447 468 443 468 q 450 474 450 468 l 449 956 z "},"Ń":{"ha":725,"x_min":49,"x_max":676,"o":"m 449 956 q 453 967 449 963 q 465 972 458 972 l 660 972 q 672 967 667 972 q 676 956 676 963 l 676 17 q 672 5 676 10 q 660 0 667 0 l 439 0 q 419 14 424 0 l 282 497 q 277 502 281 501 q 274 497 274 503 l 276 17 q 272 5 276 10 q 260 0 267 0 l 65 0 q 53 5 58 0 q 49 17 49 10 l 49 956 q 53 967 49 963 q 65 972 58 972 l 283 972 q 303 958 299 972 l 442 472 q 447 468 443 468 q 450 474 450 468 l 449 956 m 274 1058 q 260 1064 264 1058 q 261 1078 256 1069 l 343 1217 q 363 1228 349 1228 l 518 1228 q 532 1218 532 1228 q 528 1207 532 1214 l 419 1068 q 399 1058 411 1058 l 274 1058 z "},"Ň":{"ha":725,"x_min":49,"x_max":676,"o":"m 449 956 q 453 967 449 963 q 465 972 458 972 l 660 972 q 672 967 667 972 q 676 956 676 963 l 676 17 q 672 5 676 10 q 660 0 667 0 l 439 0 q 419 14 424 0 l 282 497 q 277 502 281 501 q 274 497 274 503 l 276 17 q 272 5 276 10 q 260 0 267 0 l 65 0 q 53 5 58 0 q 49 17 49 10 l 49 956 q 53 967 49 963 q 65 972 58 972 l 283 972 q 303 958 299 972 l 442 472 q 447 468 443 468 q 450 474 450 468 l 449 956 m 150 1208 q 147 1218 147 1217 q 161 1228 147 1228 l 306 1228 q 325 1215 319 1228 l 361 1144 q 369 1144 365 1139 l 406 1215 q 425 1228 413 1228 l 571 1228 q 584 1223 581 1228 q 582 1208 588 1218 l 490 1061 q 471 1050 485 1050 l 257 1050 q 238 1061 243 1050 l 150 1208 z "},"Ŋ":{"ha":725,"x_min":49,"x_max":676,"o":"m 449 956 q 453 967 449 963 q 465 972 458 972 l 660 972 q 672 967 667 972 q 676 956 676 963 l 676 0 q 656 -163 675 -107 q 568 -251 638 -219 q 350 -279 499 -282 q 333 -262 333 -279 l 332 -99 q 338 -87 332 -90 q 354 -83 343 -83 q 411 -65 399 -83 q 424 -4 424 -46 l 422 4 l 282 497 q 277 502 281 501 q 274 497 274 503 l 276 17 q 272 5 276 10 q 260 0 267 0 l 65 0 q 53 5 58 0 q 49 17 49 10 l 49 956 q 53 967 49 963 q 65 972 58 972 l 283 972 q 303 958 299 972 l 442 472 q 447 468 443 468 q 450 474 450 468 l 449 956 z "},"Ñ":{"ha":725,"x_min":49,"x_max":676,"o":"m 449 956 q 453 967 449 963 q 465 972 458 972 l 660 972 q 672 967 667 972 q 676 956 676 963 l 676 17 q 672 5 676 10 q 660 0 667 0 l 439 0 q 419 14 424 0 l 282 497 q 277 502 281 501 q 274 497 274 503 l 276 17 q 272 5 276 10 q 260 0 267 0 l 65 0 q 53 5 58 0 q 49 17 49 10 l 49 956 q 53 967 49 963 q 65 972 58 972 l 283 972 q 303 958 299 972 l 442 472 q 447 468 443 468 q 450 474 450 468 l 449 956 m 456 1058 q 379 1081 424 1058 q 359 1092 368 1086 q 341 1102 350 1099 q 322 1106 332 1106 q 276 1076 294 1106 q 265 1067 272 1069 q 253 1071 258 1065 l 182 1121 q 175 1143 171 1129 q 227 1222 193 1196 q 303 1249 261 1249 q 394 1217 346 1249 q 408 1208 397 1214 q 428 1197 418 1201 q 450 1193 439 1193 q 497 1218 481 1193 q 519 1225 507 1233 l 589 1176 q 596 1163 596 1172 q 590 1144 596 1154 q 531 1078 567 1099 q 456 1058 494 1058 z "},"O":{"ha":665,"x_min":38,"x_max":628,"o":"m 332 -11 q 117 67 197 -11 q 38 276 38 144 l 38 696 q 117 905 38 826 q 332 983 197 983 q 547 905 465 983 q 628 696 628 826 l 628 276 q 547 67 628 144 q 332 -11 465 -11 m 332 186 q 380 208 363 186 q 397 267 397 229 l 397 706 q 380 765 397 743 q 332 786 363 786 q 285 765 301 786 q 268 706 268 743 l 268 267 q 285 208 268 229 q 332 186 301 186 z "},"Ó":{"ha":665,"x_min":38,"x_max":628,"o":"m 332 -11 q 117 67 197 -11 q 38 276 38 144 l 38 696 q 117 905 38 826 q 332 983 197 983 q 547 905 465 983 q 628 696 628 826 l 628 276 q 547 67 628 144 q 332 -11 465 -11 m 332 186 q 380 208 363 186 q 397 267 397 229 l 397 706 q 380 765 397 743 q 332 786 363 786 q 285 765 301 786 q 268 706 268 743 l 268 267 q 285 208 268 229 q 332 186 301 186 m 246 1057 q 232 1063 236 1057 q 233 1076 228 1068 l 315 1215 q 335 1226 321 1226 l 490 1226 q 504 1217 504 1226 q 500 1206 504 1213 l 392 1067 q 371 1057 383 1057 l 246 1057 z "},"Ô":{"ha":665,"x_min":38,"x_max":628,"o":"m 332 -11 q 117 67 197 -11 q 38 276 38 144 l 38 696 q 117 905 38 826 q 332 983 197 983 q 547 905 465 983 q 628 696 628 826 l 628 276 q 547 67 628 144 q 332 -11 465 -11 m 332 186 q 380 208 363 186 q 397 267 397 229 l 397 706 q 380 765 397 743 q 332 786 363 786 q 285 765 301 786 q 268 706 268 743 l 268 267 q 285 208 268 229 q 332 186 301 186 m 125 1049 q 112 1053 115 1049 q 114 1068 108 1058 l 201 1215 q 221 1226 207 1226 l 435 1226 q 454 1215 449 1226 l 546 1068 q 549 1058 549 1060 q 535 1049 549 1049 l 389 1049 q 369 1061 375 1049 l 333 1132 q 325 1132 329 1139 l 289 1061 q 269 1049 282 1049 l 125 1049 z "},"Ố":{"ha":665,"x_min":38,"x_max":806,"o":"m 332 -11 q 117 67 197 -11 q 38 276 38 144 l 38 696 q 117 905 38 826 q 332 983 197 983 q 547 905 465 983 q 628 696 628 826 l 628 276 q 547 67 628 144 q 332 -11 465 -11 m 332 186 q 380 208 363 186 q 397 267 397 229 l 397 706 q 380 765 397 743 q 332 786 363 786 q 285 765 301 786 q 268 706 268 743 l 268 267 q 285 208 268 229 q 332 186 301 186 z "},"Ộ":{"ha":665,"x_min":38,"x_max":628,"o":"m 332 -11 q 117 67 197 -11 q 38 276 38 144 l 38 696 q 117 905 38 826 q 332 983 197 983 q 547 905 465 983 q 628 696 628 826 l 628 276 q 547 67 628 144 q 332 -11 465 -11 m 332 186 q 380 208 363 186 q 397 267 397 229 l 397 706 q 380 765 397 743 q 332 786 363 786 q 285 765 301 786 q 268 706 268 743 l 268 267 q 285 208 268 229 q 332 186 301 186 m 333 -358 q 249 -326 282 -358 q 217 -243 217 -293 q 249 -159 217 -192 q 333 -126 282 -126 q 416 -159 383 -126 q 449 -243 449 -192 q 416 -325 449 -292 q 333 -358 383 -358 m 125 1049 q 112 1053 115 1049 q 114 1068 108 1058 l 201 1215 q 221 1226 207 1226 l 435 1226 q 454 1215 449 1226 l 546 1068 q 549 1058 549 1060 q 535 1049 549 1049 l 389 1049 q 369 1061 375 1049 l 333 1132 q 325 1132 329 1139 l 289 1061 q 269 1049 282 1049 l 125 1049 z "},"Ồ":{"ha":665,"x_min":38,"x_max":647,"o":"m 332 -11 q 117 67 197 -11 q 38 276 38 144 l 38 696 q 117 905 38 826 q 332 983 197 983 q 547 905 465 983 q 628 696 628 826 l 628 276 q 547 67 628 144 q 332 -11 465 -11 m 332 186 q 380 208 363 186 q 397 267 397 229 l 397 706 q 380 765 397 743 q 332 786 363 786 q 285 765 301 786 q 268 706 268 743 l 268 267 q 285 208 268 229 q 332 186 301 186 z "},"Ổ":{"ha":665,"x_min":38,"x_max":697,"o":"m 332 -11 q 117 67 197 -11 q 38 276 38 144 l 38 696 q 117 905 38 826 q 332 983 197 983 q 547 905 465 983 q 628 696 628 826 l 628 276 q 547 67 628 144 q 332 -11 465 -11 m 332 186 q 380 208 363 186 q 397 267 397 229 l 397 706 q 380 765 397 743 q 332 786 363 786 q 285 765 301 786 q 268 706 268 743 l 268 267 q 285 208 268 229 q 332 186 301 186 m 536 1197 q 525 1218 517 1201 q 565 1283 540 1257 q 582 1306 576 1296 q 588 1332 588 1317 q 578 1351 588 1343 q 558 1358 569 1358 q 533 1351 544 1358 q 504 1322 521 1343 q 492 1314 499 1314 q 481 1318 488 1314 l 428 1357 q 421 1369 421 1364 q 425 1381 421 1375 q 486 1440 454 1422 q 564 1457 518 1457 q 661 1424 625 1457 q 697 1332 697 1390 q 685 1281 697 1301 q 649 1236 672 1260 q 615 1196 628 1215 q 594 1186 607 1185 l 536 1197 m 125 1049 q 112 1053 115 1049 q 114 1068 108 1058 l 201 1215 q 221 1226 207 1226 l 435 1226 q 454 1215 449 1226 l 546 1068 q 549 1058 549 1060 q 535 1049 549 1049 l 389 1049 q 369 1061 375 1049 l 333 1132 q 325 1132 329 1139 l 289 1061 q 269 1049 282 1049 l 125 1049 z "},"Ỗ":{"ha":665,"x_min":38,"x_max":628,"o":"m 332 -11 q 117 67 197 -11 q 38 276 38 144 l 38 696 q 117 905 38 826 q 332 983 197 983 q 547 905 465 983 q 628 696 628 826 l 628 276 q 547 67 628 144 q 332 -11 465 -11 m 332 186 q 380 208 363 186 q 397 267 397 229 l 397 706 q 380 765 397 743 q 332 786 363 786 q 285 765 301 786 q 268 706 268 743 l 268 267 q 285 208 268 229 q 332 186 301 186 z "},"Ö":{"ha":665,"x_min":38,"x_max":628,"o":"m 332 -11 q 117 67 197 -11 q 38 276 38 144 l 38 696 q 117 905 38 826 q 332 983 197 983 q 547 905 465 983 q 628 696 628 826 l 628 276 q 547 67 628 144 q 332 -11 465 -11 m 332 186 q 380 208 363 186 q 397 267 397 229 l 397 706 q 380 765 397 743 q 332 786 363 786 q 285 765 301 786 q 268 706 268 743 l 268 267 q 285 208 268 229 q 332 186 301 186 z "},"Ọ":{"ha":665,"x_min":38,"x_max":628,"o":"m 332 -11 q 117 67 197 -11 q 38 276 38 144 l 38 696 q 117 905 38 826 q 332 983 197 983 q 547 905 465 983 q 628 696 628 826 l 628 276 q 547 67 628 144 q 332 -11 465 -11 m 332 186 q 380 208 363 186 q 397 267 397 229 l 397 706 q 380 765 397 743 q 332 786 363 786 q 285 765 301 786 q 268 706 268 743 l 268 267 q 285 208 268 229 q 332 186 301 186 m 333 -358 q 249 -326 282 -358 q 217 -243 217 -293 q 249 -159 217 -192 q 333 -126 282 -126 q 416 -159 383 -126 q 449 -243 449 -192 q 416 -325 449 -292 q 333 -358 383 -358 z "},"Ò":{"ha":665,"x_min":38,"x_max":628,"o":"m 332 -11 q 117 67 197 -11 q 38 276 38 144 l 38 696 q 117 905 38 826 q 332 983 197 983 q 547 905 465 983 q 628 696 628 826 l 628 276 q 547 67 628 144 q 332 -11 465 -11 m 332 186 q 380 208 363 186 q 397 267 397 229 l 397 706 q 380 765 397 743 q 332 786 363 786 q 285 765 301 786 q 268 706 268 743 l 268 267 q 285 208 268 229 q 332 186 301 186 m 407 1068 q 392 1057 407 1057 l 265 1057 q 244 1067 253 1057 l 136 1206 q 132 1215 132 1213 q 147 1226 132 1226 l 303 1226 q 322 1215 317 1226 l 404 1076 l 407 1068 z "},"Ỏ":{"ha":665,"x_min":38,"x_max":628,"o":"m 332 -11 q 117 67 197 -11 q 38 276 38 144 l 38 696 q 117 905 38 826 q 332 983 197 983 q 547 905 465 983 q 628 696 628 826 l 628 276 q 547 67 628 144 q 332 -11 465 -11 m 332 186 q 380 208 363 186 q 397 267 397 229 l 397 706 q 380 765 397 743 q 332 786 363 786 q 285 765 301 786 q 268 706 268 743 l 268 267 q 285 208 268 229 q 332 186 301 186 m 310 1031 q 299 1051 290 1035 q 343 1122 315 1092 q 361 1148 356 1138 q 367 1176 367 1158 q 357 1196 367 1188 q 335 1204 347 1204 q 306 1196 319 1204 q 275 1164 293 1188 q 263 1157 268 1157 q 251 1161 257 1157 l 193 1203 q 185 1215 185 1210 q 189 1226 185 1221 q 256 1292 221 1272 q 340 1311 290 1311 q 447 1276 408 1311 q 486 1176 486 1240 q 473 1122 486 1144 q 433 1072 460 1100 q 397 1028 404 1040 q 376 1018 389 1017 l 310 1031 z "},"Ơ":{"ha":665,"x_min":38,"x_max":628,"o":"m 547 914 q 547 904 543 910 q 628 696 628 826 l 628 276 q 547 67 628 144 q 332 -11 465 -11 q 117 67 197 -11 q 38 276 38 144 l 38 696 q 117 905 38 826 q 332 983 197 983 q 419 974 371 983 q 428 972 422 972 q 500 1075 493 978 q 517 1092 500 1092 l 601 1092 q 613 1085 608 1092 q 617 1065 618 1078 q 547 914 611 964 m 397 706 q 380 765 397 743 q 332 786 363 786 q 285 765 301 786 q 268 706 268 743 l 268 267 q 285 208 268 229 q 332 186 301 186 q 380 208 363 186 q 397 267 397 229 l 397 706 z "},"Ớ":{"ha":665,"x_min":38,"x_max":628,"o":"m 547 914 q 547 904 543 910 q 628 696 628 826 l 628 276 q 547 67 628 144 q 332 -11 465 -11 q 117 67 197 -11 q 38 276 38 144 l 38 696 q 117 905 38 826 q 332 983 197 983 q 419 974 371 983 q 428 972 422 972 q 500 1075 493 978 q 517 1092 500 1092 l 601 1092 q 613 1085 608 1092 q 617 1065 618 1078 q 547 914 611 964 m 397 706 q 380 765 397 743 q 332 786 363 786 q 285 765 301 786 q 268 706 268 743 l 268 267 q 285 208 268 229 q 332 186 301 186 q 380 208 363 186 q 397 267 397 229 l 397 706 m 246 1057 q 232 1063 236 1057 q 233 1076 228 1068 l 315 1215 q 335 1226 321 1226 l 490 1226 q 504 1217 504 1226 q 500 1206 504 1213 l 392 1067 q 371 1057 383 1057 l 246 1057 z "},"Ợ":{"ha":665,"x_min":38,"x_max":628,"o":"m 547 914 q 547 904 543 910 q 628 696 628 826 l 628 276 q 547 67 628 144 q 332 -11 465 -11 q 117 67 197 -11 q 38 276 38 144 l 38 696 q 117 905 38 826 q 332 983 197 983 q 419 974 371 983 q 428 972 422 972 q 500 1075 493 978 q 517 1092 500 1092 l 601 1092 q 613 1085 608 1092 q 617 1065 618 1078 q 547 914 611 964 m 397 706 q 380 765 397 743 q 332 786 363 786 q 285 765 301 786 q 268 706 268 743 l 268 267 q 285 208 268 229 q 332 186 301 186 q 380 208 363 186 q 397 267 397 229 l 397 706 m 333 -358 q 249 -326 282 -358 q 217 -243 217 -293 q 249 -159 217 -192 q 333 -126 282 -126 q 416 -159 383 -126 q 449 -243 449 -192 q 416 -325 449 -292 q 333 -358 383 -358 z "},"Ờ":{"ha":665,"x_min":38,"x_max":628,"o":"m 547 914 q 547 904 543 910 q 628 696 628 826 l 628 276 q 547 67 628 144 q 332 -11 465 -11 q 117 67 197 -11 q 38 276 38 144 l 38 696 q 117 905 38 826 q 332 983 197 983 q 419 974 371 983 q 428 972 422 972 q 500 1075 493 978 q 517 1092 500 1092 l 601 1092 q 613 1085 608 1092 q 617 1065 618 1078 q 547 914 611 964 m 397 706 q 380 765 397 743 q 332 786 363 786 q 285 765 301 786 q 268 706 268 743 l 268 267 q 285 208 268 229 q 332 186 301 186 q 380 208 363 186 q 397 267 397 229 l 397 706 m 407 1068 q 392 1057 407 1057 l 265 1057 q 244 1067 253 1057 l 136 1206 q 132 1215 132 1213 q 147 1226 132 1226 l 303 1226 q 322 1215 317 1226 l 404 1076 l 407 1068 z "},"Ở":{"ha":665,"x_min":38,"x_max":628,"o":"m 547 914 q 547 904 543 910 q 628 696 628 826 l 628 276 q 547 67 628 144 q 332 -11 465 -11 q 117 67 197 -11 q 38 276 38 144 l 38 696 q 117 905 38 826 q 332 983 197 983 q 419 974 371 983 q 428 972 422 972 q 500 1075 493 978 q 517 1092 500 1092 l 601 1092 q 613 1085 608 1092 q 617 1065 618 1078 q 547 914 611 964 m 397 706 q 380 765 397 743 q 332 786 363 786 q 285 765 301 786 q 268 706 268 743 l 268 267 q 285 208 268 229 q 332 186 301 186 q 380 208 363 186 q 397 267 397 229 l 397 706 m 310 1031 q 299 1051 290 1035 q 343 1122 315 1092 q 361 1148 356 1138 q 367 1176 367 1158 q 357 1196 367 1188 q 335 1204 347 1204 q 306 1196 319 1204 q 275 1164 293 1188 q 263 1157 268 1157 q 251 1161 257 1157 l 193 1203 q 185 1215 185 1210 q 189 1226 185 1221 q 256 1292 221 1272 q 340 1311 290 1311 q 447 1276 408 1311 q 486 1176 486 1240 q 473 1122 486 1144 q 433 1072 460 1100 q 397 1028 404 1040 q 376 1018 389 1017 l 310 1031 z "},"Ỡ":{"ha":665,"x_min":38,"x_max":628,"o":"m 547 914 q 547 904 543 910 q 628 696 628 826 l 628 276 q 547 67 628 144 q 332 -11 465 -11 q 117 67 197 -11 q 38 276 38 144 l 38 696 q 117 905 38 826 q 332 983 197 983 q 419 974 371 983 q 428 972 422 972 q 499 1065 490 978 q 497 1072 500 1069 q 492 1071 494 1074 q 428 1057 460 1057 q 351 1079 396 1057 q 324 1094 340 1085 q 294 1103 308 1103 q 249 1075 267 1103 q 226 1068 240 1057 l 154 1119 q 147 1142 143 1128 q 198 1219 164 1193 q 275 1246 232 1246 q 365 1215 321 1246 q 379 1206 368 1213 q 401 1194 390 1199 q 422 1190 411 1190 q 469 1217 453 1190 q 493 1224 481 1232 l 561 1175 q 568 1153 574 1167 q 532 1100 556 1124 q 530 1094 529 1097 q 535 1092 531 1092 l 601 1092 q 613 1085 608 1092 q 617 1065 618 1078 q 547 914 611 964 m 397 706 q 380 765 397 743 q 332 786 363 786 q 285 765 301 786 q 268 706 268 743 l 268 267 q 285 208 268 229 q 332 186 301 186 q 380 208 363 186 q 397 267 397 229 l 397 706 z "},"Ő":{"ha":665,"x_min":38,"x_max":635,"o":"m 332 -11 q 117 67 197 -11 q 38 276 38 144 l 38 696 q 117 905 38 826 q 332 983 197 983 q 547 905 465 983 q 628 696 628 826 l 628 276 q 547 67 628 144 q 332 -11 465 -11 m 332 186 q 380 208 363 186 q 397 267 397 229 l 397 706 q 380 765 397 743 q 332 786 363 786 q 285 765 301 786 q 268 706 268 743 l 268 267 q 285 208 268 229 q 332 186 301 186 m 151 1057 q 138 1062 142 1057 q 139 1076 135 1067 l 201 1214 q 221 1226 207 1226 l 382 1226 q 395 1222 392 1226 q 394 1207 399 1217 l 322 1069 q 303 1057 315 1057 l 151 1057 m 388 1057 q 374 1063 378 1057 q 375 1076 371 1068 l 447 1214 q 468 1226 453 1226 l 618 1226 q 631 1222 628 1226 q 631 1207 635 1217 l 558 1069 q 539 1057 551 1057 l 388 1057 z "},"Ō":{"ha":665,"x_min":38,"x_max":628,"o":"m 332 -11 q 117 67 197 -11 q 38 276 38 144 l 38 696 q 117 905 38 826 q 332 983 197 983 q 547 905 465 983 q 628 696 628 826 l 628 276 q 547 67 628 144 q 332 -11 465 -11 m 332 186 q 380 208 363 186 q 397 267 397 229 l 397 706 q 380 765 397 743 q 332 786 363 786 q 285 765 301 786 q 268 706 268 743 l 268 267 q 285 208 268 229 q 332 186 301 186 m 186 1054 q 174 1059 179 1054 q 169 1071 169 1064 l 169 1193 q 174 1205 169 1200 q 186 1210 179 1210 l 467 1210 q 478 1205 474 1210 q 483 1193 483 1200 l 483 1071 q 478 1059 483 1064 q 467 1054 474 1054 l 186 1054 z "},"Ø":{"ha":718,"x_min":11,"x_max":650,"o":"m 638 979 q 643 957 650 971 l 590 857 q 590 849 589 851 q 628 696 628 783 l 628 276 q 547 67 628 144 q 332 -11 465 -11 q 201 13 254 -11 q 193 10 194 15 l 153 -68 q 129 -74 143 -83 l 25 -7 q 18 15 11 3 l 72 117 q 72 125 74 122 q 36 276 36 190 l 36 696 q 117 905 36 826 q 332 983 197 983 q 458 961 404 983 q 467 964 465 958 l 507 1040 q 517 1049 511 1047 q 531 1046 524 1050 l 638 979 m 397 706 q 380 764 397 742 q 332 786 363 786 q 284 764 301 786 q 267 706 267 742 l 267 267 q 284 208 267 231 q 332 186 301 186 q 380 208 363 186 q 397 267 397 231 l 397 706 z "},"Õ":{"ha":665,"x_min":38,"x_max":628,"o":"m 332 -11 q 117 67 197 -11 q 38 276 38 144 l 38 696 q 117 905 38 826 q 332 983 197 983 q 547 905 465 983 q 628 696 628 826 l 628 276 q 547 67 628 144 q 332 -11 465 -11 m 332 186 q 380 208 363 186 q 397 267 397 229 l 397 706 q 380 765 397 743 q 332 786 363 786 q 285 765 301 786 q 268 706 268 743 l 268 267 q 285 208 268 229 q 332 186 301 186 m 428 1057 q 351 1079 396 1057 q 331 1091 340 1085 q 313 1101 322 1097 q 294 1104 304 1104 q 249 1075 267 1104 q 238 1066 244 1068 q 225 1069 231 1064 l 154 1119 q 147 1142 143 1128 q 199 1221 165 1194 q 275 1247 233 1247 q 367 1215 318 1247 q 380 1206 369 1213 q 401 1196 390 1200 q 422 1192 411 1192 q 469 1217 453 1192 q 492 1224 479 1232 l 561 1175 q 568 1161 568 1171 q 563 1143 568 1153 q 503 1077 539 1097 q 428 1057 467 1057 z "},"Œ":{"ha":963,"x_min":38,"x_max":931,"o":"m 931 792 q 926 780 931 785 q 914 775 921 775 l 635 775 q 628 768 628 775 l 628 593 q 635 586 628 586 l 789 586 q 801 581 796 586 q 806 569 806 576 l 806 404 q 801 392 806 397 q 789 388 796 388 l 635 388 q 628 381 628 388 l 628 204 q 635 197 628 197 l 914 197 q 926 192 921 197 q 931 181 931 188 l 931 17 q 926 5 931 10 q 914 0 921 0 l 414 0 q 402 4 407 0 q 397 14 397 8 l 397 18 q 394 24 397 22 q 389 22 392 25 q 272 -11 340 -11 q 158 24 211 -11 q 71 126 104 60 q 38 276 38 192 l 38 696 q 71 846 38 781 q 158 947 104 911 q 272 983 213 983 q 389 950 340 983 q 394 949 392 947 q 397 954 397 950 l 397 956 q 402 967 397 963 q 414 972 407 972 l 914 972 q 926 967 921 972 q 931 956 931 963 l 931 792 m 332 186 q 380 208 363 186 q 397 267 397 229 l 397 706 q 380 765 397 743 q 332 786 363 786 q 285 765 301 786 q 268 706 268 743 l 268 267 q 285 208 268 229 q 332 186 301 186 z "},"P":{"ha":658,"x_min":46,"x_max":636,"o":"m 363 972 q 505 934 443 972 q 601 826 567 896 q 636 668 636 757 q 603 515 636 581 q 511 413 571 449 q 374 376 451 376 l 283 376 q 276 369 276 376 l 276 17 q 272 5 276 10 q 260 0 267 0 l 63 0 q 51 5 56 0 q 46 17 46 10 l 46 956 q 51 967 46 963 q 63 972 56 972 l 363 972 m 322 554 q 383 583 360 554 q 406 663 406 611 q 383 746 406 717 q 322 775 360 775 l 283 775 q 276 768 276 775 l 276 561 q 283 554 276 554 l 322 554 z "},"Þ":{"ha":657,"x_min":46,"x_max":635,"o":"m 361 786 q 503 747 442 786 q 600 640 565 708 q 635 482 635 571 q 602 328 635 394 q 510 224 569 261 q 372 188 450 188 l 283 188 q 276 181 276 188 l 276 17 q 272 5 276 10 q 260 0 267 0 l 63 0 q 51 5 56 0 q 46 17 46 10 l 46 956 q 51 967 46 963 q 63 972 56 972 l 260 972 q 272 967 267 972 q 276 956 276 963 l 276 793 q 283 786 276 786 l 361 786 m 321 368 q 381 397 358 368 q 404 476 404 425 q 381 560 404 531 q 321 589 358 589 l 283 589 q 276 582 276 589 l 276 375 q 283 368 276 368 l 321 368 z "},"Q":{"ha":649,"x_min":38,"x_max":613,"o":"m 324 983 q 475 946 410 983 q 576 841 540 908 q 613 685 613 774 l 613 288 q 568 117 613 189 q 444 13 524 44 q 439 4 439 8 l 439 -111 q 434 -123 439 -118 q 422 -128 429 -128 l 225 -128 q 213 -123 218 -128 q 208 -111 208 -118 l 208 4 q 203 13 208 8 q 81 117 125 44 q 38 288 38 189 l 38 685 q 73 841 38 774 q 174 946 108 908 q 324 983 239 983 m 268 263 q 283 208 268 229 q 324 186 299 186 q 366 208 350 186 q 382 263 382 229 l 382 710 q 366 765 382 743 q 324 786 350 786 q 283 765 299 786 q 268 710 268 743 l 268 263 z "},"R":{"ha":668,"x_min":49,"x_max":646,"o":"m 428 0 q 408 14 413 0 l 314 382 q 307 388 313 388 l 286 388 q 279 381 279 388 l 279 17 q 274 5 279 10 q 263 0 269 0 l 65 0 q 53 5 58 0 q 49 17 49 10 l 49 956 q 53 967 49 963 q 65 972 58 972 l 364 972 q 507 934 444 972 q 603 827 569 896 q 638 671 638 758 q 609 531 638 593 q 529 432 581 469 q 525 428 526 431 q 525 424 524 426 l 644 19 l 646 14 q 631 0 646 0 l 428 0 m 286 775 q 279 768 279 775 l 279 571 q 286 564 279 564 l 325 564 q 385 592 363 564 q 407 668 407 619 q 385 747 407 719 q 325 775 363 775 l 286 775 z "},"Ŕ":{"ha":668,"x_min":49,"x_max":646,"o":"m 428 0 q 408 14 413 0 l 314 382 q 307 388 313 388 l 286 388 q 279 381 279 388 l 279 17 q 274 5 279 10 q 263 0 269 0 l 65 0 q 53 5 58 0 q 49 17 49 10 l 49 956 q 53 967 49 963 q 65 972 58 972 l 364 972 q 507 934 444 972 q 603 827 569 896 q 638 671 638 758 q 609 531 638 593 q 529 432 581 469 q 525 428 526 431 q 525 424 524 426 l 644 19 l 646 14 q 631 0 646 0 l 428 0 m 286 775 q 279 768 279 775 l 279 571 q 286 564 279 564 l 325 564 q 385 592 363 564 q 407 668 407 619 q 385 747 407 719 q 325 775 363 775 l 286 775 m 235 1057 q 221 1063 225 1057 q 222 1076 217 1068 l 304 1215 q 324 1226 310 1226 l 479 1226 q 493 1217 493 1226 q 489 1206 493 1213 l 381 1067 q 360 1057 372 1057 l 235 1057 z "},"Ř":{"ha":668,"x_min":49,"x_max":646,"o":"m 428 0 q 408 14 413 0 l 314 382 q 307 388 313 388 l 286 388 q 279 381 279 388 l 279 17 q 274 5 279 10 q 263 0 269 0 l 65 0 q 53 5 58 0 q 49 17 49 10 l 49 956 q 53 967 49 963 q 65 972 58 972 l 364 972 q 507 934 444 972 q 603 827 569 896 q 638 671 638 758 q 609 531 638 593 q 529 432 581 469 q 525 428 526 431 q 525 424 524 426 l 644 19 l 646 14 q 631 0 646 0 l 428 0 m 286 775 q 279 768 279 775 l 279 571 q 286 564 279 564 l 325 564 q 385 592 363 564 q 407 668 407 619 q 385 747 407 719 q 325 775 363 775 l 286 775 m 111 1207 q 108 1217 108 1215 q 122 1226 108 1226 l 267 1226 q 286 1214 281 1226 l 322 1143 q 331 1143 326 1138 l 367 1214 q 386 1226 374 1226 l 532 1226 q 545 1222 542 1226 q 543 1207 549 1217 l 451 1060 q 432 1049 446 1049 l 218 1049 q 199 1060 204 1049 l 111 1207 z "},"S":{"ha":631,"x_min":31,"x_max":604,"o":"m 319 -11 q 171 22 235 -11 q 72 113 107 54 q 36 247 36 172 l 36 290 q 41 302 36 297 q 53 307 46 307 l 247 307 q 259 302 254 307 q 264 290 264 297 l 264 258 q 280 206 264 225 q 321 186 296 186 q 362 205 346 186 q 378 253 378 224 q 353 310 378 285 q 253 390 328 336 q 139 480 183 440 q 63 578 94 519 q 31 715 31 638 q 66 856 31 794 q 166 950 101 917 q 314 983 231 983 q 463 949 399 983 q 563 853 528 915 q 599 711 599 792 l 599 678 q 594 666 599 671 q 582 661 589 661 l 389 661 q 377 666 382 661 q 372 678 372 671 l 372 717 q 356 767 372 747 q 314 786 339 786 q 274 767 289 786 q 258 715 258 747 q 282 653 258 681 q 378 572 306 625 q 510 467 465 507 q 579 377 554 426 q 604 261 604 328 q 526 63 604 136 q 319 -11 447 -11 z "},"Ś":{"ha":631,"x_min":31,"x_max":604,"o":"m 319 -11 q 171 22 235 -11 q 72 113 107 54 q 36 247 36 172 l 36 290 q 41 302 36 297 q 53 307 46 307 l 247 307 q 259 302 254 307 q 264 290 264 297 l 264 258 q 280 206 264 225 q 321 186 296 186 q 362 205 346 186 q 378 253 378 224 q 353 310 378 285 q 253 390 328 336 q 139 480 183 440 q 63 578 94 519 q 31 715 31 638 q 66 856 31 794 q 166 950 101 917 q 314 983 231 983 q 463 949 399 983 q 563 853 528 915 q 599 711 599 792 l 599 678 q 594 666 599 671 q 582 661 589 661 l 389 661 q 377 666 382 661 q 372 678 372 671 l 372 717 q 356 767 372 747 q 314 786 339 786 q 274 767 289 786 q 258 715 258 747 q 282 653 258 681 q 378 572 306 625 q 510 467 465 507 q 579 377 554 426 q 604 261 604 328 q 526 63 604 136 q 319 -11 447 -11 m 228 1057 q 214 1063 218 1057 q 215 1076 210 1068 l 297 1215 q 317 1226 303 1226 l 472 1226 q 486 1217 486 1226 q 482 1206 486 1213 l 374 1067 q 353 1057 365 1057 l 228 1057 z "},"Š":{"ha":631,"x_min":31,"x_max":604,"o":"m 319 -11 q 171 22 235 -11 q 72 113 107 54 q 36 247 36 172 l 36 290 q 41 302 36 297 q 53 307 46 307 l 247 307 q 259 302 254 307 q 264 290 264 297 l 264 258 q 280 206 264 225 q 321 186 296 186 q 362 205 346 186 q 378 253 378 224 q 353 310 378 285 q 253 390 328 336 q 139 480 183 440 q 63 578 94 519 q 31 715 31 638 q 66 856 31 794 q 166 950 101 917 q 314 983 231 983 q 463 949 399 983 q 563 853 528 915 q 599 711 599 792 l 599 678 q 594 666 599 671 q 582 661 589 661 l 389 661 q 377 666 382 661 q 372 678 372 671 l 372 717 q 356 767 372 747 q 314 786 339 786 q 274 767 289 786 q 258 715 258 747 q 282 653 258 681 q 378 572 306 625 q 510 467 465 507 q 579 377 554 426 q 604 261 604 328 q 526 63 604 136 q 319 -11 447 -11 m 104 1207 q 101 1217 101 1215 q 115 1226 101 1226 l 260 1226 q 279 1214 274 1226 l 315 1143 q 324 1143 319 1138 l 360 1214 q 379 1226 367 1226 l 525 1226 q 538 1222 535 1226 q 536 1207 542 1217 l 444 1060 q 425 1049 439 1049 l 211 1049 q 192 1060 197 1049 l 104 1207 z "},"Ş":{"ha":631,"x_min":31,"x_max":604,"o":"m 604 261 q 549 88 604 157 q 400 -3 494 18 q 395 -6 396 -3 q 397 -11 394 -8 q 447 -132 447 -69 q 442 -171 447 -146 q 397 -237 431 -218 q 318 -257 363 -257 q 244 -246 281 -257 q 232 -226 231 -242 l 242 -147 q 247 -137 243 -139 q 258 -135 251 -135 q 268 -135 265 -135 q 300 -107 292 -135 q 290 -58 304 -85 q 244 -6 275 -32 l 236 -1 q 90 88 144 21 q 36 247 36 154 l 36 290 q 41 302 36 297 q 53 307 46 307 l 247 307 q 259 302 254 307 q 264 290 264 297 l 264 258 q 280 206 264 225 q 321 186 296 186 q 362 205 346 186 q 378 253 378 224 q 353 310 378 285 q 253 390 328 336 q 139 480 183 440 q 63 578 94 519 q 31 715 31 638 q 66 856 31 794 q 166 950 101 917 q 314 983 231 983 q 463 949 399 983 q 563 853 528 915 q 599 711 599 792 l 599 678 q 594 666 599 671 q 582 661 589 661 l 389 661 q 377 666 382 661 q 372 678 372 671 l 372 717 q 356 767 372 747 q 314 786 339 786 q 274 767 289 786 q 258 715 258 747 q 282 653 258 681 q 378 572 306 625 q 510 467 465 507 q 579 377 554 426 q 604 261 604 328 z "},"Ŝ":{"ha":631,"x_min":31,"x_max":604,"o":"m 319 -11 q 171 22 235 -11 q 72 113 107 54 q 36 247 36 172 l 36 290 q 41 302 36 297 q 53 307 46 307 l 247 307 q 259 302 254 307 q 264 290 264 297 l 264 258 q 280 206 264 225 q 321 186 296 186 q 362 205 346 186 q 378 253 378 224 q 353 310 378 285 q 253 390 328 336 q 139 480 183 440 q 63 578 94 519 q 31 715 31 638 q 66 856 31 794 q 166 950 101 917 q 314 983 231 983 q 463 949 399 983 q 563 853 528 915 q 599 711 599 792 l 599 678 q 594 666 599 671 q 582 661 589 661 l 389 661 q 377 666 382 661 q 372 678 372 671 l 372 717 q 356 767 372 747 q 314 786 339 786 q 274 767 289 786 q 258 715 258 747 q 282 653 258 681 q 378 572 306 625 q 510 467 465 507 q 579 377 554 426 q 604 261 604 328 q 526 63 604 136 q 319 -11 447 -11 m 106 1049 q 92 1053 96 1049 q 94 1068 89 1058 l 182 1215 q 201 1226 188 1226 l 415 1226 q 435 1215 429 1226 l 526 1068 q 529 1058 529 1060 q 515 1049 529 1049 l 369 1049 q 350 1061 356 1049 l 314 1132 q 306 1132 310 1139 l 269 1061 q 250 1049 263 1049 l 106 1049 z "},"Ə":{"ha":765,"x_min":33,"x_max":728,"o":"m 381 983 q 635 898 543 983 q 728 667 728 813 l 728 301 q 686 137 728 208 q 566 25 644 65 q 381 -15 488 -15 q 195 25 274 -15 q 75 137 117 65 q 33 301 33 208 l 33 543 q 38 555 33 550 q 50 560 43 560 l 490 560 q 497 567 497 560 l 497 650 q 465 747 497 710 q 381 785 432 785 q 304 755 335 785 q 265 678 274 725 q 247 664 261 664 l 54 675 q 42 680 47 675 q 39 692 38 685 q 137 908 50 832 q 381 983 224 983 m 381 183 q 465 222 432 183 q 497 319 497 260 l 497 376 q 490 383 497 383 l 269 383 q 263 376 263 383 l 263 319 q 296 222 263 260 q 381 183 329 183 z "},"T":{"ha":674,"x_min":29,"x_max":644,"o":"m 628 972 q 640 967 635 972 q 644 956 644 963 l 644 792 q 640 780 644 785 q 628 775 635 775 l 456 775 q 449 768 449 775 l 449 17 q 444 5 449 10 q 432 0 439 0 l 235 0 q 223 5 228 0 q 218 17 218 10 l 218 768 q 211 775 218 775 l 46 775 q 34 780 39 775 q 29 792 29 785 l 29 956 q 34 967 29 963 q 46 972 39 972 l 628 972 z "},"Ŧ":{"ha":674,"x_min":29,"x_max":644,"o":"m 644 792 q 640 780 644 785 q 628 775 635 775 l 456 775 q 449 768 449 775 l 449 571 q 456 564 449 564 l 511 564 q 523 559 518 564 q 528 547 528 554 l 528 444 q 523 433 528 438 q 511 428 518 428 l 456 428 q 449 421 449 428 l 449 17 q 444 5 449 10 q 432 0 439 0 l 235 0 q 223 5 228 0 q 218 17 218 10 l 218 421 q 211 428 218 428 l 139 428 q 127 433 132 428 q 122 444 122 438 l 122 547 q 127 559 122 554 q 139 564 132 564 l 211 564 q 218 571 218 564 l 218 768 q 211 775 218 775 l 46 775 q 34 780 39 775 q 29 792 29 785 l 29 956 q 34 967 29 963 q 46 972 39 972 l 628 972 q 640 967 635 972 q 644 956 644 963 l 644 792 z "},"Ť":{"ha":674,"x_min":29,"x_max":644,"o":"m 628 972 q 640 967 635 972 q 644 956 644 963 l 644 792 q 640 780 644 785 q 628 775 635 775 l 456 775 q 449 768 449 775 l 449 17 q 444 5 449 10 q 432 0 439 0 l 235 0 q 223 5 228 0 q 218 17 218 10 l 218 768 q 211 775 218 775 l 46 775 q 34 780 39 775 q 29 792 29 785 l 29 956 q 34 967 29 963 q 46 972 39 972 l 628 972 z "},"U":{"ha":667,"x_min":44,"x_max":622,"o":"m 333 -11 q 182 26 247 -11 q 81 129 117 63 q 44 283 44 196 l 44 956 q 49 967 44 963 q 61 972 54 972 l 258 972 q 270 967 265 972 q 275 956 275 963 l 275 261 q 291 207 275 228 q 333 186 307 186 q 376 207 360 186 q 392 261 392 228 l 392 956 q 397 967 392 963 q 408 972 401 972 l 606 972 q 617 967 613 972 q 622 956 622 963 l 622 283 q 586 129 622 196 q 485 26 550 63 q 333 -11 419 -11 z "},"Ú":{"ha":667,"x_min":44,"x_max":622,"o":"m 333 -11 q 182 26 247 -11 q 81 129 117 63 q 44 283 44 196 l 44 956 q 49 967 44 963 q 61 972 54 972 l 258 972 q 270 967 265 972 q 275 956 275 963 l 275 261 q 291 207 275 228 q 333 186 307 186 q 376 207 360 186 q 392 261 392 228 l 392 956 q 397 967 392 963 q 408 972 401 972 l 606 972 q 617 967 613 972 q 622 956 622 963 l 622 283 q 586 129 622 196 q 485 26 550 63 q 333 -11 419 -11 m 247 1057 q 233 1063 238 1057 q 235 1076 229 1068 l 317 1215 q 336 1226 322 1226 l 492 1226 q 506 1217 506 1226 q 501 1206 506 1213 l 393 1067 q 372 1057 385 1057 l 247 1057 z "},"Ŭ":{"ha":667,"x_min":44,"x_max":622,"o":"m 333 -11 q 182 26 247 -11 q 81 129 117 63 q 44 283 44 196 l 44 956 q 49 967 44 963 q 61 972 54 972 l 258 972 q 270 967 265 972 q 275 956 275 963 l 275 261 q 291 207 275 228 q 333 186 307 186 q 376 207 360 186 q 392 261 392 228 l 392 956 q 397 967 392 963 q 408 972 401 972 l 606 972 q 617 967 613 972 q 622 956 622 963 l 622 283 q 586 129 622 196 q 485 26 550 63 q 333 -11 419 -11 m 335 1032 q 213 1074 260 1032 q 160 1185 165 1115 q 176 1201 160 1201 l 261 1201 q 278 1185 278 1201 q 297 1144 282 1160 q 335 1129 313 1129 q 371 1144 356 1129 q 390 1185 386 1160 q 408 1201 392 1201 l 493 1201 q 508 1185 510 1201 q 455 1074 503 1117 q 335 1032 407 1032 z "},"Û":{"ha":667,"x_min":44,"x_max":622,"o":"m 333 -11 q 182 26 247 -11 q 81 129 117 63 q 44 283 44 196 l 44 956 q 49 967 44 963 q 61 972 54 972 l 258 972 q 270 967 265 972 q 275 956 275 963 l 275 261 q 291 207 275 228 q 333 186 307 186 q 376 207 360 186 q 392 261 392 228 l 392 956 q 397 967 392 963 q 408 972 401 972 l 606 972 q 617 967 613 972 q 622 956 622 963 l 622 283 q 586 129 622 196 q 485 26 550 63 q 333 -11 419 -11 m 126 1049 q 113 1053 117 1049 q 115 1068 110 1058 l 203 1215 q 222 1226 208 1226 l 436 1226 q 456 1215 450 1226 l 547 1068 q 550 1058 550 1060 q 536 1049 550 1049 l 390 1049 q 371 1061 376 1049 l 335 1132 q 326 1132 331 1139 l 290 1061 q 271 1049 283 1049 l 126 1049 z "},"Ü":{"ha":667,"x_min":44,"x_max":622,"o":"m 333 -11 q 182 26 247 -11 q 81 129 117 63 q 44 283 44 196 l 44 956 q 49 967 44 963 q 61 972 54 972 l 258 972 q 270 967 265 972 q 275 956 275 963 l 275 261 q 291 207 275 228 q 333 186 307 186 q 376 207 360 186 q 392 261 392 228 l 392 956 q 397 967 392 963 q 408 972 401 972 l 606 972 q 617 967 613 972 q 622 956 622 963 l 622 283 q 586 129 622 196 q 485 26 550 63 q 333 -11 419 -11 z "},"Ụ":{"ha":667,"x_min":44,"x_max":622,"o":"m 333 -11 q 182 26 247 -11 q 81 129 117 63 q 44 283 44 196 l 44 956 q 49 967 44 963 q 61 972 54 972 l 258 972 q 270 967 265 972 q 275 956 275 963 l 275 261 q 291 207 275 228 q 333 186 307 186 q 376 207 360 186 q 392 261 392 228 l 392 956 q 397 967 392 963 q 408 972 401 972 l 606 972 q 617 967 613 972 q 622 956 622 963 l 622 283 q 586 129 622 196 q 485 26 550 63 q 333 -11 419 -11 m 335 -358 q 251 -326 283 -358 q 218 -243 218 -293 q 251 -159 218 -192 q 335 -126 283 -126 q 417 -159 385 -126 q 450 -243 450 -192 q 417 -325 450 -292 q 335 -358 385 -358 z "},"Ù":{"ha":667,"x_min":44,"x_max":622,"o":"m 333 -11 q 182 26 247 -11 q 81 129 117 63 q 44 283 44 196 l 44 956 q 49 967 44 963 q 61 972 54 972 l 258 972 q 270 967 265 972 q 275 956 275 963 l 275 261 q 291 207 275 228 q 333 186 307 186 q 376 207 360 186 q 392 261 392 228 l 392 956 q 397 967 392 963 q 408 972 401 972 l 606 972 q 617 967 613 972 q 622 956 622 963 l 622 283 q 586 129 622 196 q 485 26 550 63 q 333 -11 419 -11 m 408 1068 q 393 1057 408 1057 l 267 1057 q 246 1067 254 1057 l 138 1206 q 133 1215 133 1213 q 149 1226 133 1226 l 304 1226 q 324 1215 318 1226 l 406 1076 l 408 1068 z "},"Ủ":{"ha":667,"x_min":44,"x_max":622,"o":"m 333 -11 q 182 26 247 -11 q 81 129 117 63 q 44 283 44 196 l 44 956 q 49 967 44 963 q 61 972 54 972 l 258 972 q 270 967 265 972 q 275 956 275 963 l 275 261 q 291 207 275 228 q 333 186 307 186 q 376 207 360 186 q 392 261 392 228 l 392 956 q 397 967 392 963 q 408 972 401 972 l 606 972 q 617 967 613 972 q 622 956 622 963 l 622 283 q 586 129 622 196 q 485 26 550 63 q 333 -11 419 -11 m 311 1031 q 300 1051 292 1035 q 344 1122 317 1092 q 363 1148 357 1138 q 368 1176 368 1158 q 358 1196 368 1188 q 336 1204 349 1204 q 308 1196 321 1204 q 276 1164 294 1188 q 264 1157 269 1157 q 253 1161 258 1157 l 194 1203 q 186 1215 186 1210 q 190 1226 186 1221 q 257 1292 222 1272 q 342 1311 292 1311 q 449 1276 410 1311 q 488 1176 488 1240 q 474 1122 488 1144 q 435 1072 461 1100 q 399 1028 406 1040 q 378 1018 390 1017 l 311 1031 z "},"Ư":{"ha":667,"x_min":44,"x_max":732,"o":"m 715 1092 q 732 1075 732 1092 q 628 894 726 936 q 622 886 622 890 l 622 283 q 586 129 622 196 q 485 26 550 63 q 333 -11 419 -11 q 182 26 247 -11 q 81 129 117 63 q 44 283 44 196 l 44 956 q 49 967 44 963 q 61 972 54 972 l 258 972 q 270 967 265 972 q 275 956 275 963 l 275 261 q 291 207 275 228 q 333 186 307 186 q 376 207 360 186 q 392 261 392 228 l 392 956 q 397 967 392 963 q 408 972 401 972 l 533 972 q 614 1074 607 972 q 631 1092 614 1092 l 715 1092 z "},"Ứ":{"ha":667,"x_min":44,"x_max":732,"o":"m 715 1092 q 732 1075 732 1092 q 628 894 726 936 q 622 886 622 890 l 622 283 q 586 129 622 196 q 485 26 550 63 q 333 -11 419 -11 q 182 26 247 -11 q 81 129 117 63 q 44 283 44 196 l 44 956 q 49 967 44 963 q 61 972 54 972 l 258 972 q 270 967 265 972 q 275 956 275 963 l 275 261 q 291 207 275 228 q 333 186 307 186 q 376 207 360 186 q 392 261 392 228 l 392 956 q 397 967 392 963 q 408 972 401 972 l 533 972 q 614 1074 607 972 q 631 1092 614 1092 l 715 1092 m 247 1057 q 233 1063 238 1057 q 235 1076 229 1068 l 317 1215 q 336 1226 322 1226 l 492 1226 q 506 1217 506 1226 q 501 1206 506 1213 l 393 1067 q 372 1057 385 1057 l 247 1057 z "},"Ự":{"ha":667,"x_min":44,"x_max":732,"o":"m 715 1092 q 732 1075 732 1092 q 628 894 726 936 q 622 886 622 890 l 622 283 q 586 129 622 196 q 485 26 550 63 q 333 -11 419 -11 q 182 26 247 -11 q 81 129 117 63 q 44 283 44 196 l 44 956 q 49 967 44 963 q 61 972 54 972 l 258 972 q 270 967 265 972 q 275 956 275 963 l 275 261 q 291 207 275 228 q 333 186 307 186 q 376 207 360 186 q 392 261 392 228 l 392 956 q 397 967 392 963 q 408 972 401 972 l 533 972 q 614 1074 607 972 q 631 1092 614 1092 l 715 1092 m 335 -358 q 251 -326 283 -358 q 218 -243 218 -293 q 251 -159 218 -192 q 335 -126 283 -126 q 417 -159 385 -126 q 450 -243 450 -192 q 417 -325 450 -292 q 335 -358 385 -358 z "},"Ừ":{"ha":667,"x_min":44,"x_max":732,"o":"m 715 1092 q 732 1075 732 1092 q 628 894 726 936 q 622 886 622 890 l 622 283 q 586 129 622 196 q 485 26 550 63 q 333 -11 419 -11 q 182 26 247 -11 q 81 129 117 63 q 44 283 44 196 l 44 956 q 49 967 44 963 q 61 972 54 972 l 258 972 q 270 967 265 972 q 275 956 275 963 l 275 261 q 291 207 275 228 q 333 186 307 186 q 376 207 360 186 q 392 261 392 228 l 392 956 q 397 967 392 963 q 408 972 401 972 l 533 972 q 614 1074 607 972 q 631 1092 614 1092 l 715 1092 m 408 1068 q 393 1057 408 1057 l 267 1057 q 246 1067 254 1057 l 138 1206 q 133 1215 133 1213 q 149 1226 133 1226 l 304 1226 q 324 1215 318 1226 l 406 1076 l 408 1068 z "},"Ử":{"ha":667,"x_min":44,"x_max":732,"o":"m 715 1092 q 732 1075 732 1092 q 628 894 726 936 q 622 886 622 890 l 622 283 q 586 129 622 196 q 485 26 550 63 q 333 -11 419 -11 q 182 26 247 -11 q 81 129 117 63 q 44 283 44 196 l 44 956 q 49 967 44 963 q 61 972 54 972 l 258 972 q 270 967 265 972 q 275 956 275 963 l 275 261 q 291 207 275 228 q 333 186 307 186 q 376 207 360 186 q 392 261 392 228 l 392 956 q 397 967 392 963 q 408 972 401 972 l 533 972 q 614 1074 607 972 q 631 1092 614 1092 l 715 1092 m 311 1031 q 300 1051 292 1035 q 344 1122 317 1092 q 363 1148 357 1138 q 368 1176 368 1158 q 358 1196 368 1188 q 336 1204 349 1204 q 308 1196 321 1204 q 276 1164 294 1188 q 264 1157 269 1157 q 253 1161 258 1157 l 194 1203 q 186 1215 186 1210 q 190 1226 186 1221 q 257 1292 222 1272 q 342 1311 292 1311 q 449 1276 410 1311 q 488 1176 488 1240 q 474 1122 488 1144 q 435 1072 461 1100 q 399 1028 406 1040 q 378 1018 390 1017 l 311 1031 z "},"Ữ":{"ha":667,"x_min":44,"x_max":732,"o":"m 715 1092 q 732 1075 732 1092 q 628 894 726 936 q 622 886 622 890 l 622 283 q 586 129 622 196 q 485 26 550 63 q 333 -11 419 -11 q 182 26 247 -11 q 81 129 117 63 q 44 283 44 196 l 44 956 q 49 967 44 963 q 61 972 54 972 l 258 972 q 270 967 265 972 q 275 956 275 963 l 275 261 q 291 207 275 228 q 333 186 307 186 q 376 207 360 186 q 392 261 392 228 l 392 956 q 397 967 392 963 q 408 972 401 972 l 533 972 q 614 1074 607 972 q 631 1092 614 1092 l 715 1092 m 429 1057 q 353 1079 397 1057 q 333 1091 342 1085 q 315 1101 324 1097 q 296 1104 306 1104 q 250 1075 268 1104 q 239 1066 246 1068 q 226 1069 232 1064 l 156 1119 q 149 1142 144 1128 q 201 1221 167 1194 q 276 1247 235 1247 q 368 1215 319 1247 q 381 1206 371 1213 q 402 1196 392 1200 q 424 1192 413 1192 q 471 1217 454 1192 q 493 1224 481 1232 l 563 1175 q 569 1161 569 1171 q 564 1143 569 1153 q 504 1077 540 1097 q 429 1057 468 1057 z "},"Ű":{"ha":667,"x_min":44,"x_max":636,"o":"m 333 -11 q 182 26 247 -11 q 81 129 117 63 q 44 283 44 196 l 44 956 q 49 967 44 963 q 61 972 54 972 l 258 972 q 270 967 265 972 q 275 956 275 963 l 275 261 q 291 207 275 228 q 333 186 307 186 q 376 207 360 186 q 392 261 392 228 l 392 956 q 397 967 392 963 q 408 972 401 972 l 606 972 q 617 967 613 972 q 622 956 622 963 l 622 283 q 586 129 622 196 q 485 26 550 63 q 333 -11 419 -11 m 153 1057 q 140 1062 143 1057 q 140 1076 136 1067 l 203 1214 q 222 1226 208 1226 l 383 1226 q 397 1222 393 1226 q 396 1207 400 1217 l 324 1069 q 304 1057 317 1057 l 153 1057 m 389 1057 q 376 1063 379 1057 q 376 1076 372 1068 l 449 1214 q 469 1226 454 1226 l 619 1226 q 633 1222 629 1226 q 632 1207 636 1217 l 560 1069 q 540 1057 553 1057 l 389 1057 z "},"Ū":{"ha":667,"x_min":44,"x_max":622,"o":"m 333 -11 q 182 26 247 -11 q 81 129 117 63 q 44 283 44 196 l 44 956 q 49 967 44 963 q 61 972 54 972 l 258 972 q 270 967 265 972 q 275 956 275 963 l 275 261 q 291 207 275 228 q 333 186 307 186 q 376 207 360 186 q 392 261 392 228 l 392 956 q 397 967 392 963 q 408 972 401 972 l 606 972 q 617 967 613 972 q 622 956 622 963 l 622 283 q 586 129 622 196 q 485 26 550 63 q 333 -11 419 -11 m 188 1054 q 176 1059 181 1054 q 171 1071 171 1064 l 171 1193 q 176 1205 171 1200 q 188 1210 181 1210 l 468 1210 q 480 1205 475 1210 q 485 1193 485 1200 l 485 1071 q 480 1059 485 1064 q 468 1054 475 1054 l 188 1054 z "},"Ų":{"ha":667,"x_min":44,"x_max":622,"o":"m 392 956 q 397 967 392 963 q 408 972 401 972 l 606 972 q 617 967 613 972 q 622 956 622 963 l 622 283 q 567 97 622 172 q 414 -1 511 22 l 406 -6 q 363 -59 376 -33 q 353 -104 349 -85 q 385 -132 361 -132 l 396 -132 q 406 -134 403 -132 q 411 -144 410 -136 l 421 -224 l 421 -228 q 408 -243 421 -239 q 335 -254 372 -254 q 256 -235 290 -254 q 210 -168 222 -215 q 206 -131 206 -150 q 254 -11 206 -68 q 251 -1 258 -4 q 99 97 154 22 q 44 283 44 172 l 44 956 q 49 967 44 963 q 61 972 54 972 l 258 972 q 270 967 265 972 q 275 956 275 963 l 275 261 q 291 207 275 228 q 333 186 307 186 q 376 207 360 186 q 392 261 392 228 l 392 956 z "},"Ů":{"ha":667,"x_min":44,"x_max":622,"o":"m 333 -11 q 182 26 247 -11 q 81 129 117 63 q 44 283 44 196 l 44 956 q 49 967 44 963 q 61 972 54 972 l 258 972 q 270 967 265 972 q 275 956 275 963 l 275 261 q 291 207 275 228 q 333 186 307 186 q 376 207 360 186 q 392 261 392 228 l 392 956 q 397 967 392 963 q 408 972 401 972 l 606 972 q 617 967 613 972 q 622 956 622 963 l 622 283 q 586 129 622 196 q 485 26 550 63 q 333 -11 419 -11 m 335 1028 q 206 1080 257 1028 q 154 1208 154 1132 q 206 1336 154 1285 q 335 1388 258 1388 q 463 1336 411 1388 q 514 1208 514 1285 q 463 1079 514 1131 q 335 1028 411 1028 m 335 1146 q 378 1164 360 1146 q 396 1208 396 1182 q 378 1253 396 1235 q 335 1272 360 1272 q 290 1253 308 1272 q 272 1208 272 1235 q 290 1164 272 1182 q 335 1146 308 1146 z "},"Ũ":{"ha":667,"x_min":44,"x_max":622,"o":"m 333 -11 q 182 26 247 -11 q 81 129 117 63 q 44 283 44 196 l 44 956 q 49 967 44 963 q 61 972 54 972 l 258 972 q 270 967 265 972 q 275 956 275 963 l 275 261 q 291 207 275 228 q 333 186 307 186 q 376 207 360 186 q 392 261 392 228 l 392 956 q 397 967 392 963 q 408 972 401 972 l 606 972 q 617 967 613 972 q 622 956 622 963 l 622 283 q 586 129 622 196 q 485 26 550 63 q 333 -11 419 -11 m 429 1057 q 353 1079 397 1057 q 333 1091 342 1085 q 315 1101 324 1097 q 296 1104 306 1104 q 250 1075 268 1104 q 239 1066 246 1068 q 226 1069 232 1064 l 156 1119 q 149 1142 144 1128 q 201 1221 167 1194 q 276 1247 235 1247 q 368 1215 319 1247 q 381 1206 371 1213 q 402 1196 392 1200 q 424 1192 413 1192 q 471 1217 454 1192 q 493 1224 481 1232 l 563 1175 q 569 1161 569 1171 q 564 1143 569 1153 q 504 1077 540 1097 q 429 1057 468 1057 z "},"V":{"ha":703,"x_min":25,"x_max":681,"o":"m 242 0 q 224 15 226 0 l 26 954 l 25 960 q 40 972 25 972 l 256 972 q 274 957 272 972 l 353 403 q 358 398 354 397 q 361 403 361 399 l 435 957 q 453 972 436 972 l 663 972 q 676 954 681 972 l 478 15 q 460 0 475 0 l 242 0 z "},"W":{"ha":982,"x_min":24,"x_max":961,"o":"m 232 0 q 214 15 217 0 l 25 954 l 24 960 q 39 972 24 972 l 243 972 q 261 957 260 972 l 324 500 q 328 496 325 496 q 332 500 331 496 l 394 957 q 413 972 396 972 l 575 972 q 593 957 592 972 l 663 500 q 667 496 664 496 q 669 500 669 496 l 726 957 q 743 972 728 972 l 943 972 q 958 954 961 972 l 779 15 q 761 0 778 0 l 583 0 q 565 15 567 0 l 496 490 q 491 494 494 494 q 488 490 488 494 l 426 15 q 410 0 425 0 l 232 0 z "},"Ẃ":{"ha":974,"x_min":24,"x_max":961,"o":"m 232 0 q 214 15 217 0 l 25 954 l 24 960 q 39 972 24 972 l 243 972 q 261 957 260 972 l 324 500 q 328 496 325 496 q 332 500 331 496 l 394 957 q 413 972 396 972 l 575 972 q 593 957 592 972 l 663 500 q 667 496 664 496 q 669 500 669 496 l 726 957 q 743 972 728 972 l 943 972 q 958 954 961 972 l 779 15 q 761 0 778 0 l 583 0 q 565 15 567 0 l 496 490 q 491 494 494 494 q 488 490 488 494 l 426 15 q 410 0 425 0 l 232 0 m 396 1057 q 382 1063 386 1057 q 383 1076 378 1068 l 465 1215 q 485 1226 471 1226 l 640 1226 q 654 1217 654 1226 q 650 1206 654 1213 l 542 1067 q 521 1057 533 1057 l 396 1057 z "},"Ŵ":{"ha":974,"x_min":24,"x_max":961,"o":"m 232 0 q 214 15 217 0 l 25 954 l 24 960 q 39 972 24 972 l 243 972 q 261 957 260 972 l 324 500 q 328 496 325 496 q 332 500 331 496 l 394 957 q 413 972 396 972 l 575 972 q 593 957 592 972 l 663 500 q 667 496 664 496 q 669 500 669 496 l 726 957 q 743 972 728 972 l 943 972 q 958 954 961 972 l 779 15 q 761 0 778 0 l 583 0 q 565 15 567 0 l 496 490 q 491 494 494 494 q 488 490 488 494 l 426 15 q 410 0 425 0 l 232 0 m 274 1049 q 260 1053 264 1049 q 263 1068 257 1058 l 350 1215 q 369 1226 356 1226 l 583 1226 q 603 1215 597 1226 l 694 1068 q 697 1058 697 1060 q 683 1049 697 1049 l 538 1049 q 518 1061 524 1049 l 482 1132 q 474 1132 478 1139 l 438 1061 q 418 1049 431 1049 l 274 1049 z "},"Ẅ":{"ha":974,"x_min":24,"x_max":961,"o":"m 232 0 q 214 15 217 0 l 25 954 l 24 960 q 39 972 24 972 l 243 972 q 261 957 260 972 l 324 500 q 328 496 325 496 q 332 500 331 496 l 394 957 q 413 972 396 972 l 575 972 q 593 957 592 972 l 663 500 q 667 496 664 496 q 669 500 669 496 l 726 957 q 743 972 728 972 l 943 972 q 958 954 961 972 l 779 15 q 761 0 778 0 l 583 0 q 565 15 567 0 l 496 490 q 491 494 494 494 q 488 490 488 494 l 426 15 q 410 0 425 0 l 232 0 z "},"Ẁ":{"ha":974,"x_min":24,"x_max":961,"o":"m 232 0 q 214 15 217 0 l 25 954 l 24 960 q 39 972 24 972 l 243 972 q 261 957 260 972 l 324 500 q 328 496 325 496 q 332 500 331 496 l 394 957 q 413 972 396 972 l 575 972 q 593 957 592 972 l 663 500 q 667 496 664 496 q 669 500 669 496 l 726 957 q 743 972 728 972 l 943 972 q 958 954 961 972 l 779 15 q 761 0 778 0 l 583 0 q 565 15 567 0 l 496 490 q 491 494 494 494 q 488 490 488 494 l 426 15 q 410 0 425 0 l 232 0 m 556 1068 q 540 1057 556 1057 l 414 1057 q 393 1067 401 1057 l 285 1206 q 281 1215 281 1213 q 296 1226 281 1226 l 451 1226 q 471 1215 465 1226 l 553 1076 l 556 1068 z "},"X":{"ha":681,"x_min":28,"x_max":653,"o":"m 43 0 q 31 6 33 0 q 31 19 28 11 l 217 482 q 217 490 218 486 l 31 953 q 29 961 29 956 q 43 972 29 972 l 244 972 q 263 958 258 972 l 338 729 q 342 724 339 724 q 346 729 344 724 l 419 958 q 438 972 424 972 l 638 972 q 650 967 647 972 q 650 953 653 961 l 464 490 q 464 482 463 486 l 650 19 q 651 11 651 17 q 638 0 651 0 l 439 0 q 421 14 425 0 l 346 242 q 342 247 344 247 q 338 242 339 246 l 261 14 q 243 0 257 0 l 43 0 z "},"Y":{"ha":683,"x_min":28,"x_max":657,"o":"m 242 3 q 230 8 235 3 q 225 19 225 13 l 225 361 l 224 369 l 29 953 q 28 960 28 956 q 42 972 28 972 l 250 972 q 268 957 264 972 l 338 651 q 342 646 339 646 q 346 651 344 646 l 415 957 q 433 972 419 972 l 642 972 q 653 967 650 972 q 654 953 657 963 l 457 369 l 456 361 l 456 19 q 451 8 456 13 q 439 3 446 3 l 242 3 z "},"Ý":{"ha":683,"x_min":28,"x_max":657,"o":"m 242 3 q 230 8 235 3 q 225 19 225 13 l 225 361 l 224 369 l 29 953 q 28 960 28 956 q 42 972 28 972 l 250 972 q 268 957 264 972 l 338 651 q 342 646 339 646 q 346 651 344 646 l 415 957 q 433 972 419 972 l 642 972 q 653 967 650 972 q 654 953 657 963 l 457 369 l 456 361 l 456 19 q 451 8 456 13 q 439 3 446 3 l 242 3 m 256 1057 q 242 1063 246 1057 q 243 1076 238 1068 l 325 1215 q 344 1226 331 1226 l 500 1226 q 514 1217 514 1226 q 510 1206 514 1213 l 401 1067 q 381 1057 393 1057 l 256 1057 z "},"Ŷ":{"ha":683,"x_min":28,"x_max":657,"o":"m 242 3 q 230 8 235 3 q 225 19 225 13 l 225 361 l 224 369 l 29 953 q 28 960 28 956 q 42 972 28 972 l 250 972 q 268 957 264 972 l 338 651 q 342 646 339 646 q 346 651 344 646 l 415 957 q 433 972 419 972 l 642 972 q 653 967 650 972 q 654 953 657 963 l 457 369 l 456 361 l 456 19 q 451 8 456 13 q 439 3 446 3 l 242 3 m 135 1049 q 122 1053 125 1049 q 124 1068 118 1058 l 211 1215 q 231 1226 217 1226 l 444 1226 q 464 1215 458 1226 l 556 1068 q 558 1058 558 1060 q 544 1049 558 1049 l 399 1049 q 379 1061 385 1049 l 343 1132 q 335 1132 339 1139 l 299 1061 q 279 1049 292 1049 l 135 1049 z "},"Ÿ":{"ha":683,"x_min":28,"x_max":657,"o":"m 242 3 q 230 8 235 3 q 225 19 225 13 l 225 361 l 224 369 l 29 953 q 28 960 28 956 q 42 972 28 972 l 250 972 q 268 957 264 972 l 338 651 q 342 646 339 646 q 346 651 344 646 l 415 957 q 433 972 419 972 l 642 972 q 653 967 650 972 q 654 953 657 963 l 457 369 l 456 361 l 456 19 q 451 8 456 13 q 439 3 446 3 l 242 3 z "},"Ỵ":{"ha":683,"x_min":28,"x_max":657,"o":"m 242 3 q 230 8 235 3 q 225 19 225 13 l 225 361 l 224 369 l 29 953 q 28 960 28 956 q 42 972 28 972 l 250 972 q 268 957 264 972 l 338 651 q 342 646 339 646 q 346 651 344 646 l 415 957 q 433 972 419 972 l 642 972 q 653 967 650 972 q 654 953 657 963 l 457 369 l 456 361 l 456 19 q 451 8 456 13 q 439 3 446 3 l 242 3 m 343 -358 q 259 -326 292 -358 q 226 -243 226 -293 q 259 -159 226 -192 q 343 -126 292 -126 q 426 -159 393 -126 q 458 -243 458 -192 q 426 -325 458 -292 q 343 -358 393 -358 z "},"Ỳ":{"ha":683,"x_min":28,"x_max":657,"o":"m 242 3 q 230 8 235 3 q 225 19 225 13 l 225 361 l 224 369 l 29 953 q 28 960 28 956 q 42 972 28 972 l 250 972 q 268 957 264 972 l 338 651 q 342 646 339 646 q 346 651 344 646 l 415 957 q 433 972 419 972 l 642 972 q 653 967 650 972 q 654 953 657 963 l 457 369 l 456 361 l 456 19 q 451 8 456 13 q 439 3 446 3 l 242 3 m 417 1068 q 401 1057 417 1057 l 275 1057 q 254 1067 263 1057 l 146 1206 q 142 1215 142 1213 q 157 1226 142 1226 l 313 1226 q 332 1215 326 1226 l 414 1076 l 417 1068 z "},"Ỷ":{"ha":683,"x_min":28,"x_max":657,"o":"m 242 3 q 230 8 235 3 q 225 19 225 13 l 225 361 l 224 369 l 29 953 q 28 960 28 956 q 42 972 28 972 l 250 972 q 268 957 264 972 l 338 651 q 342 646 339 646 q 346 651 344 646 l 415 957 q 433 972 419 972 l 642 972 q 653 967 650 972 q 654 953 657 963 l 457 369 l 456 361 l 456 19 q 451 8 456 13 q 439 3 446 3 l 242 3 m 319 1031 q 308 1051 300 1035 q 353 1122 325 1092 q 371 1148 365 1138 q 376 1176 376 1158 q 367 1196 376 1188 q 344 1204 357 1204 q 316 1196 329 1204 q 285 1164 303 1188 q 272 1157 278 1157 q 261 1161 267 1157 l 203 1203 q 194 1215 194 1210 q 199 1226 194 1221 q 265 1292 231 1272 q 350 1311 300 1311 q 457 1276 418 1311 q 496 1176 496 1240 q 483 1122 496 1144 q 443 1072 469 1100 q 407 1028 414 1040 q 386 1018 399 1017 l 319 1031 z "},"Ỹ":{"ha":683,"x_min":28,"x_max":657,"o":"m 242 3 q 230 8 235 3 q 225 19 225 13 l 225 361 l 224 369 l 29 953 q 28 960 28 956 q 42 972 28 972 l 250 972 q 268 957 264 972 l 338 651 q 342 646 339 646 q 346 651 344 646 l 415 957 q 433 972 419 972 l 642 972 q 653 967 650 972 q 654 953 657 963 l 457 369 l 456 361 l 456 19 q 451 8 456 13 q 439 3 446 3 l 242 3 m 438 1057 q 361 1079 406 1057 q 341 1091 350 1085 q 323 1101 332 1097 q 304 1104 314 1104 q 258 1075 276 1104 q 247 1066 254 1068 q 235 1069 240 1064 l 164 1119 q 157 1142 153 1128 q 209 1221 175 1194 q 285 1247 243 1247 q 376 1215 328 1247 q 390 1206 379 1213 q 410 1196 400 1200 q 432 1192 421 1192 q 479 1217 463 1192 q 501 1224 489 1232 l 571 1175 q 578 1161 578 1171 q 572 1143 578 1153 q 513 1077 549 1097 q 438 1057 476 1057 z "},"Z":{"ha":582,"x_min":22,"x_max":556,"o":"m 39 0 q 27 5 32 0 q 22 17 22 10 l 22 186 q 28 207 22 193 l 308 767 q 308 773 310 771 q 303 775 307 775 l 39 775 q 27 780 32 775 q 22 792 22 785 l 22 956 q 27 967 22 963 q 39 972 32 972 l 539 972 q 551 967 546 972 q 556 956 556 963 l 556 786 q 550 765 556 779 l 267 206 q 267 199 265 201 q 272 197 268 197 l 539 197 q 551 192 546 197 q 556 181 556 188 l 556 17 q 551 5 556 10 q 539 0 546 0 l 39 0 z "},"Ź":{"ha":582,"x_min":22,"x_max":556,"o":"m 39 0 q 27 5 32 0 q 22 17 22 10 l 22 186 q 28 207 22 193 l 308 767 q 308 773 310 771 q 303 775 307 775 l 39 775 q 27 780 32 775 q 22 792 22 785 l 22 956 q 27 967 22 963 q 39 972 32 972 l 539 972 q 551 967 546 972 q 556 956 556 963 l 556 786 q 550 765 556 779 l 267 206 q 267 199 265 201 q 272 197 268 197 l 539 197 q 551 192 546 197 q 556 181 556 188 l 556 17 q 551 5 556 10 q 539 0 546 0 l 39 0 m 203 1057 q 189 1063 193 1057 q 190 1076 185 1068 l 272 1215 q 292 1226 278 1226 l 447 1226 q 461 1217 461 1226 q 457 1206 461 1213 l 349 1067 q 328 1057 340 1057 l 203 1057 z "},"Ž":{"ha":582,"x_min":22,"x_max":556,"o":"m 39 0 q 27 5 32 0 q 22 17 22 10 l 22 186 q 28 207 22 193 l 308 767 q 308 773 310 771 q 303 775 307 775 l 39 775 q 27 780 32 775 q 22 792 22 785 l 22 956 q 27 967 22 963 q 39 972 32 972 l 539 972 q 551 967 546 972 q 556 956 556 963 l 556 786 q 550 765 556 779 l 267 206 q 267 199 265 201 q 272 197 268 197 l 539 197 q 551 192 546 197 q 556 181 556 188 l 556 17 q 551 5 556 10 q 539 0 546 0 l 39 0 m 79 1207 q 76 1217 76 1215 q 90 1226 76 1226 l 235 1226 q 254 1214 249 1226 l 290 1143 q 299 1143 294 1138 l 335 1214 q 354 1226 342 1226 l 500 1226 q 513 1222 510 1226 q 511 1207 517 1217 l 419 1060 q 400 1049 414 1049 l 186 1049 q 167 1060 172 1049 l 79 1207 z "},"Ż":{"ha":582,"x_min":22,"x_max":556,"o":"m 39 0 q 27 5 32 0 q 22 17 22 10 l 22 186 q 28 207 22 193 l 308 767 q 308 773 310 771 q 303 775 307 775 l 39 775 q 27 780 32 775 q 22 792 22 785 l 22 956 q 27 967 22 963 q 39 972 32 972 l 539 972 q 551 967 546 972 q 556 956 556 963 l 556 786 q 550 765 556 779 l 267 206 q 267 199 265 201 q 272 197 268 197 l 539 197 q 551 192 546 197 q 556 181 556 188 l 556 17 q 551 5 556 10 q 539 0 546 0 l 39 0 m 289 1036 q 202 1070 236 1036 q 168 1157 168 1104 q 202 1244 168 1211 q 289 1278 236 1278 q 375 1244 342 1278 q 408 1157 408 1211 q 374 1070 408 1104 q 289 1036 340 1036 z "},"Ģ":{"ha":657,"x_min":38,"x_max":619,"o":"m 328 -11 q 117 63 196 -11 q 38 263 38 138 l 38 711 q 117 910 38 836 q 328 983 196 983 q 540 908 460 983 q 619 708 619 833 l 619 657 q 615 645 619 650 q 603 640 610 640 l 406 640 q 394 645 399 640 q 389 657 389 650 l 389 711 q 372 765 389 744 q 328 786 356 786 q 285 765 301 786 q 268 711 268 744 l 268 261 q 285 207 268 228 q 328 186 301 186 q 372 207 356 186 q 389 261 389 228 l 389 350 q 382 357 389 357 l 346 357 q 334 362 339 357 q 329 374 329 367 l 329 521 q 334 533 329 528 q 346 538 339 538 l 603 538 q 615 533 610 538 q 619 521 619 528 l 619 263 q 540 63 619 138 q 328 -11 460 -11 z "},"Ķ":{"ha":701,"x_min":49,"x_max":683,"o":"m 65 0 q 53 5 58 0 q 49 17 49 10 l 49 956 q 53 967 49 963 q 65 972 58 972 l 263 972 q 274 967 269 972 q 279 956 279 963 l 279 642 q 282 636 279 636 q 288 640 285 636 l 433 960 q 453 972 439 972 l 661 972 q 674 967 671 972 q 674 953 678 963 l 472 544 q 471 536 471 539 l 682 19 q 683 11 683 17 q 669 0 683 0 l 460 0 q 440 13 444 0 l 315 338 q 311 342 314 342 q 306 338 308 342 l 281 288 q 279 279 279 285 l 279 17 q 274 5 279 10 q 263 0 269 0 l 65 0 z "},"Ņ":{"ha":725,"x_min":49,"x_max":676,"o":"m 449 956 q 453 967 449 963 q 465 972 458 972 l 660 972 q 672 967 667 972 q 676 956 676 963 l 676 17 q 672 5 676 10 q 660 0 667 0 l 439 0 q 419 14 424 0 l 282 497 q 277 502 281 501 q 274 497 274 503 l 276 17 q 272 5 276 10 q 260 0 267 0 l 65 0 q 53 5 58 0 q 49 17 49 10 l 49 956 q 53 967 49 963 q 65 972 58 972 l 283 972 q 303 958 299 972 l 442 472 q 447 468 443 468 q 450 474 450 468 l 449 956 z "},"Ŗ":{"ha":668,"x_min":49,"x_max":646,"o":"m 428 0 q 408 14 413 0 l 314 382 q 307 388 313 388 l 286 388 q 279 381 279 388 l 279 17 q 274 5 279 10 q 263 0 269 0 l 65 0 q 53 5 58 0 q 49 17 49 10 l 49 956 q 53 967 49 963 q 65 972 58 972 l 364 972 q 507 934 444 972 q 603 827 569 896 q 638 671 638 758 q 609 531 638 593 q 529 432 581 469 q 525 428 526 431 q 525 424 524 426 l 644 19 l 646 14 q 631 0 646 0 l 428 0 m 286 775 q 279 768 279 775 l 279 571 q 286 564 279 564 l 325 564 q 385 592 363 564 q 407 668 407 619 q 385 747 407 719 q 325 775 363 775 l 286 775 z "},"Ţ":{"ha":674,"x_min":29,"x_max":644,"o":"m 628 972 q 640 967 635 972 q 644 956 644 963 l 644 792 q 640 780 644 785 q 628 775 635 775 l 456 775 q 449 768 449 775 l 449 17 q 444 5 449 10 q 432 0 439 0 l 235 0 q 223 5 228 0 q 218 17 218 10 l 218 768 q 211 775 218 775 l 46 775 q 34 780 39 775 q 29 792 29 785 l 29 956 q 34 967 29 963 q 46 972 39 972 l 628 972 m 318 -257 q 306 -236 304 -251 l 315 -158 q 335 -146 317 -143 q 374 -117 367 -149 q 364 -72 378 -97 q 322 -21 350 -47 q 315 -8 315 -14 q 329 0 315 0 l 438 0 q 458 -8 450 0 q 521 -144 521 -72 q 517 -181 521 -162 q 470 -248 504 -228 q 392 -268 436 -268 q 318 -257 354 -268 z "},"Ș":{"ha":631,"x_min":31,"x_max":604,"o":"m 319 -11 q 171 22 235 -11 q 72 113 107 54 q 36 247 36 172 l 36 290 q 41 302 36 297 q 53 307 46 307 l 247 307 q 259 302 254 307 q 264 290 264 297 l 264 258 q 280 206 264 225 q 321 186 296 186 q 362 205 346 186 q 378 253 378 224 q 353 310 378 285 q 253 390 328 336 q 139 480 183 440 q 63 578 94 519 q 31 715 31 638 q 66 856 31 794 q 166 950 101 917 q 314 983 231 983 q 463 949 399 983 q 563 853 528 915 q 599 711 599 792 l 599 678 q 594 666 599 671 q 582 661 589 661 l 389 661 q 377 666 382 661 q 372 678 372 671 l 372 717 q 356 767 372 747 q 314 786 339 786 q 274 767 289 786 q 258 715 258 747 q 282 653 258 681 q 378 572 306 625 q 510 467 465 507 q 579 377 554 426 q 604 261 604 328 q 526 63 604 136 q 319 -11 447 -11 z "},"Ț":{"ha":674,"x_min":29,"x_max":644,"o":"m 628 972 q 640 967 635 972 q 644 956 644 963 l 644 792 q 640 780 644 785 q 628 775 635 775 l 456 775 q 449 768 449 775 l 449 17 q 444 5 449 10 q 432 0 439 0 l 235 0 q 223 5 228 0 q 218 17 218 10 l 218 768 q 211 775 218 775 l 46 775 q 34 780 39 775 q 29 792 29 785 l 29 956 q 34 967 29 963 q 46 972 39 972 l 628 972 z "},"a":{"ha":635,"x_min":24,"x_max":601,"o":"m 317 729 q 523 665 444 729 q 601 497 601 601 l 601 17 q 597 5 601 10 q 585 0 592 0 l 388 0 q 376 5 381 0 q 371 17 371 10 l 371 50 q 368 55 371 54 q 363 51 365 56 q 215 -11 315 -11 q 24 207 24 -11 q 58 349 24 300 q 153 413 93 397 q 308 429 214 429 l 364 429 q 371 436 371 429 l 371 469 q 356 515 371 497 q 317 532 340 532 q 287 522 299 532 q 271 492 275 511 q 254 475 269 475 l 51 476 q 35 493 35 476 q 119 666 42 603 q 317 729 196 729 m 308 160 q 351 176 332 160 q 371 217 371 192 l 371 268 q 364 275 371 275 l 322 275 q 277 258 294 275 q 260 214 260 242 q 274 174 260 188 q 308 160 288 160 z "},"á":{"ha":635,"x_min":24,"x_max":601,"o":"m 317 729 q 523 665 444 729 q 601 497 601 601 l 601 17 q 597 5 601 10 q 585 0 592 0 l 388 0 q 376 5 381 0 q 371 17 371 10 l 371 50 q 368 55 371 54 q 363 51 365 56 q 215 -11 315 -11 q 24 207 24 -11 q 58 349 24 300 q 153 413 93 397 q 308 429 214 429 l 364 429 q 371 436 371 429 l 371 469 q 356 515 371 497 q 317 532 340 532 q 287 522 299 532 q 271 492 275 511 q 254 475 269 475 l 51 476 q 35 493 35 476 q 119 666 42 603 q 317 729 196 729 m 308 160 q 351 176 332 160 q 371 217 371 192 l 371 268 q 364 275 371 275 l 322 275 q 277 258 294 275 q 260 214 260 242 q 274 174 260 188 q 308 160 288 160 m 232 803 q 218 808 222 803 q 219 822 214 814 l 301 961 q 321 972 307 972 l 476 972 q 490 963 490 972 q 486 951 490 958 l 378 813 q 357 803 369 803 l 232 803 z "},"ă":{"ha":635,"x_min":24,"x_max":601,"o":"m 317 729 q 523 665 444 729 q 601 497 601 601 l 601 17 q 597 5 601 10 q 585 0 592 0 l 388 0 q 376 5 381 0 q 371 17 371 10 l 371 50 q 368 55 371 54 q 363 51 365 56 q 215 -11 315 -11 q 24 207 24 -11 q 58 349 24 300 q 153 413 93 397 q 308 429 214 429 l 364 429 q 371 436 371 429 l 371 469 q 356 515 371 497 q 317 532 340 532 q 287 522 299 532 q 271 492 275 511 q 254 475 269 475 l 51 476 q 35 493 35 476 q 119 666 42 603 q 317 729 196 729 m 308 160 q 351 176 332 160 q 371 217 371 192 l 371 268 q 364 275 371 275 l 322 275 q 277 258 294 275 q 260 214 260 242 q 274 174 260 188 q 308 160 288 160 m 318 758 q 197 800 243 758 q 143 911 150 842 q 160 928 143 928 l 244 928 q 263 911 261 928 q 281 871 265 886 q 318 856 296 856 q 355 871 340 856 q 374 911 369 886 q 392 928 376 928 l 476 928 q 493 911 493 928 q 439 800 486 842 q 318 758 392 758 z "},"ắ":{"ha":635,"x_min":24,"x_max":601,"o":"m 317 729 q 523 665 444 729 q 601 497 601 601 l 601 17 q 597 5 601 10 q 585 0 592 0 l 388 0 q 376 5 381 0 q 371 17 371 10 l 371 50 q 368 55 371 54 q 363 51 365 56 q 215 -11 315 -11 q 24 207 24 -11 q 58 349 24 300 q 153 413 93 397 q 308 429 214 429 l 364 429 q 371 436 371 429 l 371 469 q 356 515 371 497 q 317 532 340 532 q 287 522 299 532 q 271 492 275 511 q 254 475 269 475 l 51 476 q 35 493 35 476 q 119 666 42 603 q 317 729 196 729 m 308 160 q 351 176 332 160 q 371 217 371 192 l 371 268 q 364 275 371 275 l 322 275 q 277 258 294 275 q 260 214 260 242 q 274 174 260 188 q 308 160 288 160 z "},"ặ":{"ha":635,"x_min":24,"x_max":601,"o":"m 317 729 q 523 665 444 729 q 601 497 601 601 l 601 17 q 597 5 601 10 q 585 0 592 0 l 388 0 q 376 5 381 0 q 371 17 371 10 l 371 50 q 368 55 371 54 q 363 51 365 56 q 215 -11 315 -11 q 24 207 24 -11 q 58 349 24 300 q 153 413 93 397 q 308 429 214 429 l 364 429 q 371 436 371 429 l 371 469 q 356 515 371 497 q 317 532 340 532 q 287 522 299 532 q 271 492 275 511 q 254 475 269 475 l 51 476 q 35 493 35 476 q 119 666 42 603 q 317 729 196 729 m 308 160 q 351 176 332 160 q 371 217 371 192 l 371 268 q 364 275 371 275 l 322 275 q 277 258 294 275 q 260 214 260 242 q 274 174 260 188 q 308 160 288 160 m 318 -358 q 234 -326 267 -358 q 201 -243 201 -293 q 234 -159 201 -192 q 318 -126 267 -126 q 401 -159 368 -126 q 433 -243 433 -192 q 401 -325 433 -292 q 318 -358 368 -358 m 318 778 q 196 819 243 778 q 143 931 149 861 q 160 947 143 947 l 244 947 q 261 931 261 947 q 281 890 265 906 q 318 875 296 875 q 354 890 339 875 q 374 931 369 906 q 392 947 375 947 l 476 947 q 492 931 493 947 q 438 820 486 863 q 318 778 390 778 z "},"ằ":{"ha":635,"x_min":24,"x_max":601,"o":"m 317 729 q 523 665 444 729 q 601 497 601 601 l 601 17 q 597 5 601 10 q 585 0 592 0 l 388 0 q 376 5 381 0 q 371 17 371 10 l 371 50 q 368 55 371 54 q 363 51 365 56 q 215 -11 315 -11 q 24 207 24 -11 q 58 349 24 300 q 153 413 93 397 q 308 429 214 429 l 364 429 q 371 436 371 429 l 371 469 q 356 515 371 497 q 317 532 340 532 q 287 522 299 532 q 271 492 275 511 q 254 475 269 475 l 51 476 q 35 493 35 476 q 119 666 42 603 q 317 729 196 729 m 308 160 q 351 176 332 160 q 371 217 371 192 l 371 268 q 364 275 371 275 l 322 275 q 277 258 294 275 q 260 214 260 242 q 274 174 260 188 q 308 160 288 160 z "},"ẳ":{"ha":635,"x_min":24,"x_max":601,"o":"m 317 729 q 523 665 444 729 q 601 497 601 601 l 601 17 q 597 5 601 10 q 585 0 592 0 l 388 0 q 376 5 381 0 q 371 17 371 10 l 371 50 q 368 55 371 54 q 363 51 365 56 q 215 -11 315 -11 q 24 207 24 -11 q 58 349 24 300 q 153 413 93 397 q 308 429 214 429 l 364 429 q 371 436 371 429 l 371 469 q 356 515 371 497 q 317 532 340 532 q 287 522 299 532 q 271 492 275 511 q 254 475 269 475 l 51 476 q 35 493 35 476 q 119 666 42 603 q 317 729 196 729 m 308 160 q 351 176 332 160 q 371 217 371 192 l 371 268 q 364 275 371 275 l 322 275 q 277 258 294 275 q 260 214 260 242 q 274 174 260 188 q 308 160 288 160 m 301 990 q 290 1011 282 994 q 326 1069 304 1044 q 342 1091 338 1082 q 347 1115 347 1100 q 339 1132 347 1125 q 319 1139 331 1139 q 297 1132 307 1139 q 271 1106 286 1125 q 258 1099 264 1099 q 247 1103 254 1099 l 201 1136 q 194 1149 194 1143 q 199 1160 194 1154 q 253 1213 225 1197 q 325 1229 282 1229 q 415 1199 382 1229 q 449 1115 449 1168 q 438 1068 449 1086 q 404 1026 426 1050 q 374 990 382 1004 q 353 981 365 979 l 301 990 m 318 778 q 197 819 243 778 q 143 931 150 861 q 160 947 143 947 l 244 947 q 263 931 260 947 q 281 890 265 906 q 318 875 296 875 q 355 890 340 875 q 374 931 369 906 q 392 947 375 947 l 476 947 q 493 931 493 947 q 439 819 486 861 q 318 778 392 778 z "},"ẵ":{"ha":635,"x_min":24,"x_max":601,"o":"m 317 729 q 523 665 444 729 q 601 497 601 601 l 601 17 q 597 5 601 10 q 585 0 592 0 l 388 0 q 376 5 381 0 q 371 17 371 10 l 371 50 q 368 55 371 54 q 363 51 365 56 q 215 -11 315 -11 q 24 207 24 -11 q 58 349 24 300 q 153 413 93 397 q 308 429 214 429 l 364 429 q 371 436 371 429 l 371 469 q 356 515 371 497 q 317 532 340 532 q 287 522 299 532 q 271 492 275 511 q 254 475 269 475 l 51 476 q 35 493 35 476 q 119 666 42 603 q 317 729 196 729 m 308 160 q 351 176 332 160 q 371 217 371 192 l 371 268 q 364 275 371 275 l 322 275 q 277 258 294 275 q 260 214 260 242 q 274 174 260 188 q 308 160 288 160 z "},"ǎ":{"ha":635,"x_min":24,"x_max":601,"o":"m 317 729 q 523 665 444 729 q 601 497 601 601 l 601 17 q 597 5 601 10 q 585 0 592 0 l 388 0 q 376 5 381 0 q 371 17 371 10 l 371 50 q 368 55 371 54 q 363 51 365 56 q 215 -11 315 -11 q 24 207 24 -11 q 58 349 24 300 q 153 413 93 397 q 308 429 214 429 l 364 429 q 371 436 371 429 l 371 469 q 356 515 371 497 q 317 532 340 532 q 287 522 299 532 q 271 492 275 511 q 254 475 269 475 l 51 476 q 35 493 35 476 q 119 666 42 603 q 317 729 196 729 m 308 160 q 351 176 332 160 q 371 217 371 192 l 371 268 q 364 275 371 275 l 322 275 q 277 258 294 275 q 260 214 260 242 q 274 174 260 188 q 308 160 288 160 z "},"â":{"ha":635,"x_min":24,"x_max":601,"o":"m 317 729 q 523 665 444 729 q 601 497 601 601 l 601 17 q 597 5 601 10 q 585 0 592 0 l 388 0 q 376 5 381 0 q 371 17 371 10 l 371 50 q 368 55 371 54 q 363 51 365 56 q 215 -11 315 -11 q 24 207 24 -11 q 58 349 24 300 q 153 413 93 397 q 308 429 214 429 l 364 429 q 371 436 371 429 l 371 469 q 356 515 371 497 q 317 532 340 532 q 287 522 299 532 q 271 492 275 511 q 254 475 269 475 l 51 476 q 35 493 35 476 q 119 666 42 603 q 317 729 196 729 m 308 160 q 351 176 332 160 q 371 217 371 192 l 371 268 q 364 275 371 275 l 322 275 q 277 258 294 275 q 260 214 260 242 q 274 174 260 188 q 308 160 288 160 m 110 794 q 97 799 100 794 q 99 814 93 804 l 186 961 q 206 972 192 972 l 419 972 q 439 961 433 972 l 531 814 q 533 804 533 806 q 519 794 533 794 l 374 794 q 354 807 360 794 l 318 878 q 310 878 314 885 l 274 807 q 254 794 267 794 l 110 794 z "},"ấ":{"ha":635,"x_min":24,"x_max":790,"o":"m 317 729 q 523 665 444 729 q 601 497 601 601 l 601 17 q 597 5 601 10 q 585 0 592 0 l 388 0 q 376 5 381 0 q 371 17 371 10 l 371 50 q 368 55 371 54 q 363 51 365 56 q 215 -11 315 -11 q 24 207 24 -11 q 58 349 24 300 q 153 413 93 397 q 308 429 214 429 l 364 429 q 371 436 371 429 l 371 469 q 356 515 371 497 q 317 532 340 532 q 287 522 299 532 q 271 492 275 511 q 254 475 269 475 l 51 476 q 35 493 35 476 q 119 666 42 603 q 317 729 196 729 m 308 160 q 351 176 332 160 q 371 217 371 192 l 371 268 q 364 275 371 275 l 322 275 q 277 258 294 275 q 260 214 260 242 q 274 174 260 188 q 308 160 288 160 z "},"ậ":{"ha":635,"x_min":24,"x_max":601,"o":"m 317 729 q 523 665 444 729 q 601 497 601 601 l 601 17 q 597 5 601 10 q 585 0 592 0 l 388 0 q 376 5 381 0 q 371 17 371 10 l 371 50 q 368 55 371 54 q 363 51 365 56 q 215 -11 315 -11 q 24 207 24 -11 q 58 349 24 300 q 153 413 93 397 q 308 429 214 429 l 364 429 q 371 436 371 429 l 371 469 q 356 515 371 497 q 317 532 340 532 q 287 522 299 532 q 271 492 275 511 q 254 475 269 475 l 51 476 q 35 493 35 476 q 119 666 42 603 q 317 729 196 729 m 308 160 q 351 176 332 160 q 371 217 371 192 l 371 268 q 364 275 371 275 l 322 275 q 277 258 294 275 q 260 214 260 242 q 274 174 260 188 q 308 160 288 160 m 318 -358 q 234 -326 267 -358 q 201 -243 201 -293 q 234 -159 201 -192 q 318 -126 267 -126 q 401 -159 368 -126 q 433 -243 433 -192 q 401 -325 433 -292 q 318 -358 368 -358 m 110 794 q 97 799 100 794 q 99 814 93 804 l 186 961 q 206 972 192 972 l 419 972 q 439 961 433 972 l 531 814 q 533 804 533 806 q 519 794 533 794 l 374 794 q 354 807 360 794 l 318 878 q 310 878 314 885 l 274 807 q 254 794 267 794 l 110 794 z "},"ầ":{"ha":635,"x_min":24,"x_max":633,"o":"m 317 729 q 523 665 444 729 q 601 497 601 601 l 601 17 q 597 5 601 10 q 585 0 592 0 l 388 0 q 376 5 381 0 q 371 17 371 10 l 371 50 q 368 55 371 54 q 363 51 365 56 q 215 -11 315 -11 q 24 207 24 -11 q 58 349 24 300 q 153 413 93 397 q 308 429 214 429 l 364 429 q 371 436 371 429 l 371 469 q 356 515 371 497 q 317 532 340 532 q 287 522 299 532 q 271 492 275 511 q 254 475 269 475 l 51 476 q 35 493 35 476 q 119 666 42 603 q 317 729 196 729 m 308 160 q 351 176 332 160 q 371 217 371 192 l 371 268 q 364 275 371 275 l 322 275 q 277 258 294 275 q 260 214 260 242 q 274 174 260 188 q 308 160 288 160 z "},"ẩ":{"ha":635,"x_min":24,"x_max":683,"o":"m 317 729 q 523 665 444 729 q 601 497 601 601 l 601 17 q 597 5 601 10 q 585 0 592 0 l 388 0 q 376 5 381 0 q 371 17 371 10 l 371 50 q 368 55 371 54 q 363 51 365 56 q 215 -11 315 -11 q 24 207 24 -11 q 58 349 24 300 q 153 413 93 397 q 308 429 214 429 l 364 429 q 371 436 371 429 l 371 469 q 356 515 371 497 q 317 532 340 532 q 287 522 299 532 q 271 492 275 511 q 254 475 269 475 l 51 476 q 35 493 35 476 q 119 666 42 603 q 317 729 196 729 m 308 160 q 351 176 332 160 q 371 217 371 192 l 371 268 q 364 275 371 275 l 322 275 q 277 258 294 275 q 260 214 260 242 q 274 174 260 188 q 308 160 288 160 m 522 943 q 511 964 503 947 q 551 1029 526 1003 q 568 1052 563 1042 q 574 1078 574 1063 q 565 1097 574 1089 q 544 1104 556 1104 q 519 1097 531 1104 q 490 1068 507 1089 q 478 1060 485 1060 q 467 1064 474 1060 l 414 1103 q 407 1115 407 1110 q 411 1126 407 1121 q 472 1185 440 1168 q 550 1203 504 1203 q 647 1169 611 1203 q 683 1078 683 1136 q 671 1026 683 1047 q 635 982 658 1006 q 601 942 614 961 q 581 932 593 931 l 522 943 m 111 794 q 98 799 101 794 q 100 814 94 804 l 188 961 q 207 972 193 972 l 421 972 q 440 961 435 972 l 532 814 q 535 804 535 806 q 521 794 535 794 l 375 794 q 356 807 361 794 l 319 878 q 311 878 315 885 l 275 807 q 256 794 268 794 l 111 794 z "},"ẫ":{"ha":635,"x_min":24,"x_max":601,"o":"m 317 729 q 523 665 444 729 q 601 497 601 601 l 601 17 q 597 5 601 10 q 585 0 592 0 l 388 0 q 376 5 381 0 q 371 17 371 10 l 371 50 q 368 55 371 54 q 363 51 365 56 q 215 -11 315 -11 q 24 207 24 -11 q 58 349 24 300 q 153 413 93 397 q 308 429 214 429 l 364 429 q 371 436 371 429 l 371 469 q 356 515 371 497 q 317 532 340 532 q 287 522 299 532 q 271 492 275 511 q 254 475 269 475 l 51 476 q 35 493 35 476 q 119 666 42 603 q 317 729 196 729 m 308 160 q 351 176 332 160 q 371 217 371 192 l 371 268 q 364 275 371 275 l 322 275 q 277 258 294 275 q 260 214 260 242 q 274 174 260 188 q 308 160 288 160 z "},"ä":{"ha":635,"x_min":24,"x_max":601,"o":"m 317 729 q 523 665 444 729 q 601 497 601 601 l 601 17 q 597 5 601 10 q 585 0 592 0 l 388 0 q 376 5 381 0 q 371 17 371 10 l 371 50 q 368 55 371 54 q 363 51 365 56 q 215 -11 315 -11 q 24 207 24 -11 q 58 349 24 300 q 153 413 93 397 q 308 429 214 429 l 364 429 q 371 436 371 429 l 371 469 q 356 515 371 497 q 317 532 340 532 q 287 522 299 532 q 271 492 275 511 q 254 475 269 475 l 51 476 q 35 493 35 476 q 119 666 42 603 q 317 729 196 729 m 308 160 q 351 176 332 160 q 371 217 371 192 l 371 268 q 364 275 371 275 l 322 275 q 277 258 294 275 q 260 214 260 242 q 274 174 260 188 q 308 160 288 160 z "},"ạ":{"ha":635,"x_min":24,"x_max":601,"o":"m 317 729 q 523 665 444 729 q 601 497 601 601 l 601 17 q 597 5 601 10 q 585 0 592 0 l 388 0 q 376 5 381 0 q 371 17 371 10 l 371 50 q 368 55 371 54 q 363 51 365 56 q 215 -11 315 -11 q 24 207 24 -11 q 58 349 24 300 q 153 413 93 397 q 308 429 214 429 l 364 429 q 371 436 371 429 l 371 469 q 356 515 371 497 q 317 532 340 532 q 287 522 299 532 q 271 492 275 511 q 254 475 269 475 l 51 476 q 35 493 35 476 q 119 666 42 603 q 317 729 196 729 m 308 160 q 351 176 332 160 q 371 217 371 192 l 371 268 q 364 275 371 275 l 322 275 q 277 258 294 275 q 260 214 260 242 q 274 174 260 188 q 308 160 288 160 m 318 -358 q 234 -326 267 -358 q 201 -243 201 -293 q 234 -159 201 -192 q 318 -126 267 -126 q 401 -159 368 -126 q 433 -243 433 -192 q 401 -325 433 -292 q 318 -358 368 -358 z "},"à":{"ha":635,"x_min":24,"x_max":601,"o":"m 317 729 q 523 665 444 729 q 601 497 601 601 l 601 17 q 597 5 601 10 q 585 0 592 0 l 388 0 q 376 5 381 0 q 371 17 371 10 l 371 50 q 368 55 371 54 q 363 51 365 56 q 215 -11 315 -11 q 24 207 24 -11 q 58 349 24 300 q 153 413 93 397 q 308 429 214 429 l 364 429 q 371 436 371 429 l 371 469 q 356 515 371 497 q 317 532 340 532 q 287 522 299 532 q 271 492 275 511 q 254 475 269 475 l 51 476 q 35 493 35 476 q 119 666 42 603 q 317 729 196 729 m 308 160 q 351 176 332 160 q 371 217 371 192 l 371 268 q 364 275 371 275 l 322 275 q 277 258 294 275 q 260 214 260 242 q 274 174 260 188 q 308 160 288 160 m 392 814 q 376 803 392 803 l 250 803 q 229 813 238 803 l 121 951 q 117 961 117 958 q 132 972 117 972 l 288 972 q 307 961 301 972 l 389 822 l 392 814 z "},"ả":{"ha":635,"x_min":24,"x_max":601,"o":"m 317 729 q 523 665 444 729 q 601 497 601 601 l 601 17 q 597 5 601 10 q 585 0 592 0 l 388 0 q 376 5 381 0 q 371 17 371 10 l 371 50 q 368 55 371 54 q 363 51 365 56 q 215 -11 315 -11 q 24 207 24 -11 q 58 349 24 300 q 153 413 93 397 q 308 429 214 429 l 364 429 q 371 436 371 429 l 371 469 q 356 515 371 497 q 317 532 340 532 q 287 522 299 532 q 271 492 275 511 q 254 475 269 475 l 51 476 q 35 493 35 476 q 119 666 42 603 q 317 729 196 729 m 308 160 q 351 176 332 160 q 371 217 371 192 l 371 268 q 364 275 371 275 l 322 275 q 277 258 294 275 q 260 214 260 242 q 274 174 260 188 q 308 160 288 160 m 294 776 q 283 797 275 781 q 328 868 300 838 q 346 894 340 883 q 351 922 351 904 q 342 942 351 933 q 319 950 332 950 q 291 942 304 950 q 260 910 278 933 q 247 903 253 903 q 236 907 242 903 l 178 949 q 169 961 169 956 q 174 972 169 967 q 240 1038 206 1018 q 325 1057 275 1057 q 432 1022 393 1057 q 471 922 471 986 q 458 868 471 890 q 418 818 444 846 q 382 774 389 786 q 361 764 374 763 l 294 776 z "},"ā":{"ha":635,"x_min":24,"x_max":601,"o":"m 317 729 q 523 665 444 729 q 601 497 601 601 l 601 17 q 597 5 601 10 q 585 0 592 0 l 388 0 q 376 5 381 0 q 371 17 371 10 l 371 50 q 368 55 371 54 q 363 51 365 56 q 215 -11 315 -11 q 24 207 24 -11 q 58 349 24 300 q 153 413 93 397 q 308 429 214 429 l 364 429 q 371 436 371 429 l 371 469 q 356 515 371 497 q 317 532 340 532 q 287 522 299 532 q 271 492 275 511 q 254 475 269 475 l 51 476 q 35 493 35 476 q 119 666 42 603 q 317 729 196 729 m 308 160 q 351 176 332 160 q 371 217 371 192 l 371 268 q 364 275 371 275 l 322 275 q 277 258 294 275 q 260 214 260 242 q 274 174 260 188 q 308 160 288 160 m 171 800 q 159 805 164 800 q 154 817 154 810 l 154 939 q 159 951 154 946 q 171 956 164 956 l 451 956 q 463 951 458 956 q 468 939 468 946 l 468 817 q 463 805 468 810 q 451 800 458 800 l 171 800 z "},"ą":{"ha":635,"x_min":24,"x_max":601,"o":"m 601 13 q 592 -8 601 0 q 526 -117 517 -72 q 565 -146 533 -149 l 569 -146 q 585 -158 583 -146 l 594 -236 l 594 -240 q 582 -257 594 -251 q 508 -268 546 -268 q 429 -248 464 -268 q 383 -181 394 -228 q 379 -143 379 -162 q 442 -8 379 -71 q 443 -3 444 -6 q 438 0 442 0 l 388 0 q 376 5 381 0 q 371 17 371 10 l 371 50 q 368 55 371 54 q 363 51 365 56 q 215 -11 315 -11 q 24 207 24 -11 q 58 349 24 300 q 153 413 93 397 q 308 429 214 429 l 364 429 q 371 436 371 429 l 371 469 q 356 515 371 497 q 317 532 340 532 q 287 522 299 532 q 271 492 275 511 q 254 475 269 475 l 51 476 q 35 493 35 476 q 119 666 42 603 q 317 729 196 729 q 523 665 444 729 q 601 497 601 601 l 601 13 m 308 160 q 351 176 332 160 q 371 217 371 192 l 371 268 q 364 275 371 275 l 322 275 q 277 258 294 275 q 260 214 260 242 q 274 174 260 188 q 308 160 288 160 z "},"å":{"ha":635,"x_min":24,"x_max":601,"o":"m 317 729 q 523 665 444 729 q 601 497 601 601 l 601 17 q 597 5 601 10 q 585 0 592 0 l 388 0 q 376 5 381 0 q 371 17 371 10 l 371 50 q 368 55 371 54 q 363 51 365 56 q 215 -11 315 -11 q 24 207 24 -11 q 58 349 24 300 q 153 413 93 397 q 308 429 214 429 l 364 429 q 371 436 371 429 l 371 469 q 356 515 371 497 q 317 532 340 532 q 287 522 299 532 q 271 492 275 511 q 254 475 269 475 l 51 476 q 35 493 35 476 q 119 666 42 603 q 317 729 196 729 m 308 160 q 351 176 332 160 q 371 217 371 192 l 371 268 q 364 275 371 275 l 322 275 q 277 258 294 275 q 260 214 260 242 q 274 174 260 188 q 308 160 288 160 m 318 774 q 189 826 240 774 q 138 954 138 878 q 190 1082 138 1031 q 318 1133 242 1133 q 446 1082 394 1133 q 497 954 497 1031 q 446 825 497 876 q 318 774 394 774 m 318 892 q 361 910 343 892 q 379 954 379 928 q 361 999 379 981 q 318 1018 343 1018 q 274 999 292 1018 q 256 954 256 981 q 274 910 256 928 q 318 892 292 892 z "},"ã":{"ha":635,"x_min":24,"x_max":601,"o":"m 317 729 q 523 665 444 729 q 601 497 601 601 l 601 17 q 597 5 601 10 q 585 0 592 0 l 388 0 q 376 5 381 0 q 371 17 371 10 l 371 50 q 368 55 371 54 q 363 51 365 56 q 215 -11 315 -11 q 24 207 24 -11 q 58 349 24 300 q 153 413 93 397 q 308 429 214 429 l 364 429 q 371 436 371 429 l 371 469 q 356 515 371 497 q 317 532 340 532 q 287 522 299 532 q 271 492 275 511 q 254 475 269 475 l 51 476 q 35 493 35 476 q 119 666 42 603 q 317 729 196 729 m 308 160 q 351 176 332 160 q 371 217 371 192 l 371 268 q 364 275 371 275 l 322 275 q 277 258 294 275 q 260 214 260 242 q 274 174 260 188 q 308 160 288 160 m 413 803 q 336 825 381 803 q 316 837 325 831 q 298 847 307 843 q 279 850 289 850 q 233 821 251 850 q 222 812 229 814 q 210 815 215 810 l 139 865 q 132 888 128 874 q 184 967 150 940 q 260 993 218 993 q 351 961 303 993 q 365 952 354 958 q 385 942 375 946 q 407 938 396 938 q 454 963 438 938 q 476 969 464 978 l 546 921 q 553 907 553 917 q 547 889 553 899 q 488 823 524 843 q 413 803 451 803 z "},"æ":{"ha":969,"x_min":24,"x_max":940,"o":"m 247 -11 q 89 32 154 -11 q 24 208 24 75 q 58 342 24 296 q 151 405 92 389 q 304 421 211 421 l 364 421 q 371 428 371 421 l 371 469 q 356 515 371 497 q 317 532 340 532 q 285 522 299 532 q 265 493 271 511 q 249 478 263 478 l 49 482 q 32 499 32 482 q 115 667 38 606 q 310 729 193 729 q 402 715 363 729 q 479 671 442 700 q 489 671 485 667 q 671 729 561 729 q 867 663 793 729 q 940 489 940 597 l 940 297 q 935 285 940 290 q 924 281 931 281 l 621 281 q 614 274 614 281 l 614 247 q 627 206 614 222 q 663 189 640 189 q 692 200 679 189 q 710 228 704 211 q 729 240 717 242 l 921 228 q 933 223 928 228 q 936 210 938 218 q 863 46 928 103 q 682 -11 799 -11 q 552 12 606 -11 q 486 64 499 35 q 484 67 485 65 q 482 68 483 69 q 404 13 471 38 q 247 -11 338 -11 m 614 428 q 621 421 614 421 l 703 421 q 710 428 710 421 l 710 471 q 697 515 710 497 q 663 532 683 532 q 627 515 640 532 q 614 471 614 499 l 614 428 m 308 156 q 351 170 332 156 q 371 210 371 185 l 371 274 q 364 281 371 281 l 321 281 q 276 263 293 281 q 260 214 260 244 q 274 170 260 185 q 308 156 288 156 z "},"b":{"ha":629,"x_min":40,"x_max":596,"o":"m 406 729 q 596 489 596 729 l 596 229 q 406 -11 596 -11 q 279 47 325 -11 q 274 49 276 50 q 271 44 271 49 l 271 17 q 266 5 271 10 q 254 0 261 0 l 57 0 q 45 5 50 0 q 40 17 40 10 l 40 956 q 45 967 40 963 q 57 972 50 972 l 254 972 q 266 967 261 972 q 271 956 271 963 l 271 669 q 272 667 271 667 q 289 679 276 667 q 406 729 333 729 m 365 471 q 353 515 365 499 q 319 532 340 532 q 284 515 297 532 q 271 471 271 499 l 271 247 q 284 203 271 219 q 319 186 297 186 q 353 203 340 186 q 365 247 365 219 l 365 471 z "},"c":{"ha":618,"x_min":33,"x_max":590,"o":"m 313 -11 q 107 52 181 -11 q 33 229 33 115 l 33 489 q 108 663 33 597 q 313 729 182 729 q 517 664 443 729 q 590 493 590 599 l 590 463 q 585 451 590 456 q 574 446 581 446 l 376 438 q 360 454 360 438 l 360 475 q 347 515 360 499 q 313 532 333 532 q 277 515 290 532 q 264 471 264 499 l 264 247 q 277 203 264 219 q 313 186 290 186 q 347 203 333 186 q 360 244 360 219 l 360 265 q 365 277 360 272 q 376 282 369 282 l 574 281 q 585 276 581 281 q 590 264 590 271 l 590 226 q 517 51 590 114 q 313 -11 444 -11 z "},"ć":{"ha":618,"x_min":33,"x_max":590,"o":"m 313 -11 q 107 52 181 -11 q 33 229 33 115 l 33 489 q 108 663 33 597 q 313 729 182 729 q 517 664 443 729 q 590 493 590 599 l 590 463 q 585 451 590 456 q 574 446 581 446 l 376 438 q 360 454 360 438 l 360 475 q 347 515 360 499 q 313 532 333 532 q 277 515 290 532 q 264 471 264 499 l 264 247 q 277 203 264 219 q 313 186 290 186 q 347 203 333 186 q 360 244 360 219 l 360 265 q 365 277 360 272 q 376 282 369 282 l 574 281 q 585 276 581 281 q 590 264 590 271 l 590 226 q 517 51 590 114 q 313 -11 444 -11 m 226 803 q 213 808 217 803 q 214 822 208 814 l 296 961 q 315 972 301 972 l 471 972 q 485 963 485 972 q 481 951 485 958 l 372 813 q 351 803 364 803 l 226 803 z "},"č":{"ha":618,"x_min":33,"x_max":590,"o":"m 313 -11 q 107 52 181 -11 q 33 229 33 115 l 33 489 q 108 663 33 597 q 313 729 182 729 q 517 664 443 729 q 590 493 590 599 l 590 463 q 585 451 590 456 q 574 446 581 446 l 376 438 q 360 454 360 438 l 360 475 q 347 515 360 499 q 313 532 333 532 q 277 515 290 532 q 264 471 264 499 l 264 247 q 277 203 264 219 q 313 186 290 186 q 347 203 333 186 q 360 244 360 219 l 360 265 q 365 277 360 272 q 376 282 369 282 l 574 281 q 585 276 581 281 q 590 264 590 271 l 590 226 q 517 51 590 114 q 313 -11 444 -11 m 103 953 q 100 963 100 961 q 114 972 100 972 l 258 972 q 278 960 272 972 l 314 889 q 322 889 318 883 l 358 960 q 378 972 365 972 l 524 972 q 537 967 533 972 q 535 953 540 963 l 443 806 q 424 794 438 794 l 210 794 q 190 806 196 794 l 103 953 z "},"ç":{"ha":618,"x_min":33,"x_max":590,"o":"m 590 463 q 585 451 590 456 q 574 446 581 446 l 376 438 q 360 454 360 438 l 360 475 q 347 515 360 499 q 313 532 333 532 q 277 515 290 532 q 264 471 264 499 l 264 247 q 277 203 264 219 q 313 186 290 186 q 347 203 333 186 q 360 244 360 219 l 360 265 q 365 277 360 272 q 376 282 369 282 l 574 281 q 585 276 581 281 q 590 264 590 271 l 590 226 q 539 74 590 133 q 393 -4 488 14 q 390 -12 385 -7 q 439 -133 439 -69 q 435 -171 439 -153 q 390 -237 424 -218 q 311 -257 356 -257 q 236 -246 272 -257 q 224 -226 222 -242 l 235 -147 q 254 -135 236 -132 q 277 -131 267 -137 q 293 -107 288 -124 q 283 -60 297 -86 q 240 -7 269 -35 l 232 -3 q 85 74 138 14 q 33 229 33 135 l 33 489 q 108 663 33 597 q 313 729 182 729 q 517 664 443 729 q 590 493 590 599 l 590 463 z "},"ĉ":{"ha":618,"x_min":33,"x_max":590,"o":"m 313 -11 q 107 52 181 -11 q 33 229 33 115 l 33 489 q 108 663 33 597 q 313 729 182 729 q 517 664 443 729 q 590 493 590 599 l 590 463 q 585 451 590 456 q 574 446 581 446 l 376 438 q 360 454 360 438 l 360 475 q 347 515 360 499 q 313 532 333 532 q 277 515 290 532 q 264 471 264 499 l 264 247 q 277 203 264 219 q 313 186 290 186 q 347 203 333 186 q 360 244 360 219 l 360 265 q 365 277 360 272 q 376 282 369 282 l 574 281 q 585 276 581 281 q 590 264 590 271 l 590 226 q 517 51 590 114 q 313 -11 444 -11 m 104 794 q 91 799 94 794 q 93 814 88 804 l 181 961 q 200 972 186 972 l 414 972 q 433 961 428 972 l 525 814 q 528 804 528 806 q 514 794 528 794 l 368 794 q 349 807 354 794 l 313 878 q 304 878 308 885 l 268 807 q 249 794 261 794 l 104 794 z "},"ċ":{"ha":618,"x_min":33,"x_max":590,"o":"m 313 -11 q 107 52 181 -11 q 33 229 33 115 l 33 489 q 108 663 33 597 q 313 729 182 729 q 517 664 443 729 q 590 493 590 599 l 590 463 q 585 451 590 456 q 574 446 581 446 l 376 438 q 360 454 360 438 l 360 475 q 347 515 360 499 q 313 532 333 532 q 277 515 290 532 q 264 471 264 499 l 264 247 q 277 203 264 219 q 313 186 290 186 q 347 203 333 186 q 360 244 360 219 l 360 265 q 365 277 360 272 q 376 282 369 282 l 574 281 q 585 276 581 281 q 590 264 590 271 l 590 226 q 517 51 590 114 q 313 -11 444 -11 m 313 782 q 226 816 260 782 q 192 903 192 850 q 226 990 192 957 q 313 1024 260 1024 q 399 990 365 1024 q 432 903 432 957 q 398 816 432 850 q 313 782 364 782 z "},"d":{"ha":629,"x_min":33,"x_max":589,"o":"m 358 956 q 363 967 358 963 q 375 972 368 972 l 572 972 q 584 967 579 972 q 589 956 589 963 l 589 17 q 584 5 589 10 q 572 0 579 0 l 375 0 q 363 5 368 0 q 358 17 358 10 l 358 44 q 356 49 358 49 q 350 47 353 50 q 224 -11 304 -11 q 33 229 33 -11 l 33 489 q 224 729 33 729 q 350 668 304 729 q 356 665 353 664 q 358 669 358 665 l 358 956 m 310 186 q 345 203 332 186 q 358 247 358 219 l 358 471 q 345 515 358 499 q 310 532 332 532 q 276 515 289 532 q 264 471 264 499 l 264 247 q 276 203 264 219 q 310 186 289 186 z "},"ð":{"ha":633,"x_min":33,"x_max":594,"o":"m 594 829 q 581 814 594 818 l 513 797 q 508 789 504 794 q 572 618 551 703 q 594 440 593 533 l 594 229 q 521 52 594 115 q 314 -11 447 -11 q 107 52 181 -11 q 33 229 33 115 l 33 440 q 65 565 33 510 q 153 651 97 621 q 274 682 208 682 q 338 669 313 682 q 342 668 340 667 q 343 674 344 669 q 311 744 335 696 q 303 749 308 750 l 196 724 l 190 722 q 175 736 179 722 l 160 797 l 158 803 q 172 818 158 814 l 250 838 q 254 846 258 840 q 186 951 224 897 q 182 961 182 958 q 186 969 182 967 q 197 972 190 972 l 383 972 q 400 965 394 972 q 402 962 401 964 q 406 958 403 960 q 450 892 439 907 q 453 888 451 889 q 458 888 456 886 l 558 913 l 564 914 q 579 900 575 914 l 593 835 l 594 829 m 364 422 q 350 467 364 450 q 314 483 336 483 q 278 466 292 483 q 264 422 264 449 l 264 247 q 278 203 264 221 q 314 186 292 186 q 350 203 336 186 q 364 247 364 219 l 364 422 z "},"ď":{"ha":629,"x_min":33,"x_max":907,"o":"m 358 956 q 363 967 358 963 q 375 972 368 972 l 572 972 q 584 967 579 972 q 589 956 589 963 l 589 17 q 584 5 589 10 q 572 0 579 0 l 375 0 q 363 5 368 0 q 358 17 358 10 l 358 44 q 356 49 358 49 q 350 47 353 50 q 224 -11 304 -11 q 33 229 33 -11 l 33 489 q 224 729 33 729 q 350 668 304 729 q 356 665 353 664 q 358 669 358 665 l 358 956 m 310 186 q 345 203 332 186 q 358 247 358 219 l 358 471 q 345 515 358 499 q 310 532 332 532 q 276 515 289 532 q 264 471 264 499 l 264 247 q 276 203 264 219 q 310 186 289 186 z "},"đ":{"ha":629,"x_min":33,"x_max":640,"o":"m 624 901 q 635 897 631 901 q 640 885 640 892 l 640 782 q 635 770 640 775 q 624 765 631 765 l 596 765 q 589 758 589 765 l 589 17 q 584 5 589 10 q 572 0 579 0 l 375 0 q 363 5 368 0 q 358 17 358 10 l 358 44 q 356 49 358 49 q 350 47 353 50 q 224 -11 304 -11 q 33 229 33 -11 l 33 489 q 224 729 33 729 q 350 668 304 729 q 356 665 353 664 q 358 669 358 665 l 358 758 q 351 765 358 765 l 251 765 q 240 770 244 765 q 235 782 235 775 l 235 885 q 240 897 235 892 q 251 901 244 901 l 351 901 q 358 908 358 901 l 358 956 q 363 967 358 963 q 375 972 368 972 l 572 972 q 584 967 579 972 q 589 956 589 963 l 589 908 q 596 901 589 901 l 624 901 m 310 186 q 345 203 332 186 q 358 247 358 219 l 358 471 q 345 515 358 499 q 310 532 332 532 q 276 515 289 532 q 264 471 264 499 l 264 247 q 276 203 264 219 q 310 186 289 186 z "},"e":{"ha":619,"x_min":33,"x_max":590,"o":"m 590 313 q 585 301 590 306 q 574 296 581 296 l 271 296 q 264 289 264 296 l 264 247 q 277 203 264 219 q 313 186 290 186 q 344 200 332 186 q 361 235 357 214 q 379 250 363 250 l 571 239 q 583 234 578 239 q 586 221 588 229 q 313 -11 574 -11 q 107 52 181 -11 q 33 229 33 115 l 33 489 q 108 663 33 597 q 313 729 182 729 q 517 664 443 729 q 590 489 590 599 l 590 313 m 313 532 q 277 515 290 532 q 264 471 264 499 l 264 428 q 271 421 264 421 l 353 421 q 360 428 360 421 l 360 471 q 347 515 360 497 q 313 532 333 532 z "},"é":{"ha":619,"x_min":33,"x_max":590,"o":"m 590 313 q 585 301 590 306 q 574 296 581 296 l 271 296 q 264 289 264 296 l 264 247 q 277 203 264 219 q 313 186 290 186 q 344 200 332 186 q 361 235 357 214 q 379 250 363 250 l 571 239 q 583 234 578 239 q 586 221 588 229 q 313 -11 574 -11 q 107 52 181 -11 q 33 229 33 115 l 33 489 q 108 663 33 597 q 313 729 182 729 q 517 664 443 729 q 590 489 590 599 l 590 313 m 313 532 q 277 515 290 532 q 264 471 264 499 l 264 428 q 271 421 264 421 l 353 421 q 360 428 360 421 l 360 471 q 347 515 360 497 q 313 532 333 532 m 225 803 q 211 808 215 803 q 213 822 207 814 l 294 961 q 314 972 300 972 l 469 972 q 483 963 483 972 q 479 951 483 958 l 371 813 q 350 803 363 803 l 225 803 z "},"ě":{"ha":619,"x_min":33,"x_max":590,"o":"m 590 313 q 585 301 590 306 q 574 296 581 296 l 271 296 q 264 289 264 296 l 264 247 q 277 203 264 219 q 313 186 290 186 q 344 200 332 186 q 361 235 357 214 q 379 250 363 250 l 571 239 q 583 234 578 239 q 586 221 588 229 q 313 -11 574 -11 q 107 52 181 -11 q 33 229 33 115 l 33 489 q 108 663 33 597 q 313 729 182 729 q 517 664 443 729 q 590 489 590 599 l 590 313 m 313 532 q 277 515 290 532 q 264 471 264 499 l 264 428 q 271 421 264 421 l 353 421 q 360 428 360 421 l 360 471 q 347 515 360 497 q 313 532 333 532 z "},"ȩ":{"ha":619,"x_min":33,"x_max":590,"o":"m 590 313 q 585 301 590 306 q 574 296 581 296 l 271 296 q 264 289 264 296 l 264 247 q 277 203 264 219 q 313 186 290 186 q 344 200 332 186 q 361 235 357 214 q 379 250 363 250 l 571 239 q 583 234 578 239 q 586 221 588 229 q 401 -4 574 31 q 397 -12 393 -7 q 438 -122 438 -62 q 433 -160 438 -142 q 388 -226 422 -207 q 310 -246 354 -246 q 235 -235 271 -246 q 222 -215 221 -231 l 232 -136 q 238 -126 233 -128 q 249 -124 242 -124 q 258 -124 256 -124 q 290 -96 282 -124 q 250 -10 299 -58 l 243 -6 q 88 71 143 10 q 33 229 33 132 l 33 489 q 108 663 33 597 q 313 729 182 729 q 517 664 443 729 q 590 489 590 599 l 590 313 m 313 532 q 277 515 290 532 q 264 471 264 499 l 264 428 q 271 421 264 421 l 353 421 q 360 428 360 421 l 360 471 q 347 515 360 497 q 313 532 333 532 z "},"ê":{"ha":619,"x_min":33,"x_max":590,"o":"m 590 313 q 585 301 590 306 q 574 296 581 296 l 271 296 q 264 289 264 296 l 264 247 q 277 203 264 219 q 313 186 290 186 q 344 200 332 186 q 361 235 357 214 q 379 250 363 250 l 571 239 q 583 234 578 239 q 586 221 588 229 q 313 -11 574 -11 q 107 52 181 -11 q 33 229 33 115 l 33 489 q 108 663 33 597 q 313 729 182 729 q 517 664 443 729 q 590 489 590 599 l 590 313 m 313 532 q 277 515 290 532 q 264 471 264 499 l 264 428 q 271 421 264 421 l 353 421 q 360 428 360 421 l 360 471 q 347 515 360 497 q 313 532 333 532 m 103 794 q 90 799 93 794 q 92 814 86 804 l 179 961 q 199 972 185 972 l 413 972 q 432 961 426 972 l 524 814 q 526 804 526 806 q 513 794 526 794 l 367 794 q 347 807 353 794 l 311 878 q 303 878 307 885 l 267 807 q 247 794 260 794 l 103 794 z "},"ế":{"ha":619,"x_min":33,"x_max":783,"o":"m 590 313 q 585 301 590 306 q 574 296 581 296 l 271 296 q 264 289 264 296 l 264 247 q 277 203 264 219 q 313 186 290 186 q 344 200 332 186 q 361 235 357 214 q 379 250 363 250 l 571 239 q 583 234 578 239 q 586 221 588 229 q 313 -11 574 -11 q 107 52 181 -11 q 33 229 33 115 l 33 489 q 108 663 33 597 q 313 729 182 729 q 517 664 443 729 q 590 489 590 599 l 590 313 m 313 532 q 277 515 290 532 q 264 471 264 499 l 264 428 q 271 421 264 421 l 353 421 q 360 428 360 421 l 360 471 q 347 515 360 497 q 313 532 333 532 z "},"ệ":{"ha":619,"x_min":33,"x_max":590,"o":"m 590 313 q 585 301 590 306 q 574 296 581 296 l 271 296 q 264 289 264 296 l 264 247 q 277 203 264 219 q 313 186 290 186 q 344 200 332 186 q 361 235 357 214 q 379 250 363 250 l 571 239 q 583 234 578 239 q 586 221 588 229 q 313 -11 574 -11 q 107 52 181 -11 q 33 229 33 115 l 33 489 q 108 663 33 597 q 313 729 182 729 q 517 664 443 729 q 590 489 590 599 l 590 313 m 313 532 q 277 515 290 532 q 264 471 264 499 l 264 428 q 271 421 264 421 l 353 421 q 360 428 360 421 l 360 471 q 347 515 360 497 q 313 532 333 532 m 311 -358 q 227 -326 260 -358 q 194 -243 194 -293 q 227 -159 194 -192 q 311 -126 260 -126 q 394 -159 361 -126 q 426 -243 426 -192 q 394 -325 426 -292 q 311 -358 361 -358 m 103 794 q 90 799 93 794 q 92 814 86 804 l 179 961 q 199 972 185 972 l 413 972 q 432 961 426 972 l 524 814 q 526 804 526 806 q 513 794 526 794 l 367 794 q 347 807 353 794 l 311 878 q 303 878 307 885 l 267 807 q 247 794 260 794 l 103 794 z "},"ề":{"ha":619,"x_min":33,"x_max":625,"o":"m 590 313 q 585 301 590 306 q 574 296 581 296 l 271 296 q 264 289 264 296 l 264 247 q 277 203 264 219 q 313 186 290 186 q 344 200 332 186 q 361 235 357 214 q 379 250 363 250 l 571 239 q 583 234 578 239 q 586 221 588 229 q 313 -11 574 -11 q 107 52 181 -11 q 33 229 33 115 l 33 489 q 108 663 33 597 q 313 729 182 729 q 517 664 443 729 q 590 489 590 599 l 590 313 m 313 532 q 277 515 290 532 q 264 471 264 499 l 264 428 q 271 421 264 421 l 353 421 q 360 428 360 421 l 360 471 q 347 515 360 497 q 313 532 333 532 z "},"ể":{"ha":619,"x_min":33,"x_max":675,"o":"m 590 313 q 585 301 590 306 q 574 296 581 296 l 271 296 q 264 289 264 296 l 264 247 q 277 203 264 219 q 313 186 290 186 q 344 200 332 186 q 361 235 357 214 q 379 250 363 250 l 571 239 q 583 234 578 239 q 586 221 588 229 q 313 -11 574 -11 q 107 52 181 -11 q 33 229 33 115 l 33 489 q 108 663 33 597 q 313 729 182 729 q 517 664 443 729 q 590 489 590 599 l 590 313 m 313 532 q 277 515 290 532 q 264 471 264 499 l 264 428 q 271 421 264 421 l 353 421 q 360 428 360 421 l 360 471 q 347 515 360 497 q 313 532 333 532 m 514 943 q 503 964 494 947 q 543 1029 518 1003 q 560 1052 554 1042 q 565 1078 565 1063 q 556 1097 565 1089 q 536 1104 547 1104 q 510 1097 522 1104 q 482 1068 499 1089 q 469 1060 476 1060 q 458 1064 465 1060 l 406 1103 q 399 1115 399 1110 q 403 1126 399 1121 q 464 1185 432 1168 q 542 1203 496 1203 q 639 1169 603 1203 q 675 1078 675 1136 q 663 1026 675 1047 q 626 982 650 1006 q 593 942 606 961 q 572 932 585 931 l 514 943 m 103 794 q 90 799 93 794 q 92 814 86 804 l 179 961 q 199 972 185 972 l 413 972 q 432 961 426 972 l 524 814 q 526 804 526 806 q 513 794 526 794 l 367 794 q 347 807 353 794 l 311 878 q 303 878 307 885 l 267 807 q 247 794 260 794 l 103 794 z "},"ễ":{"ha":619,"x_min":33,"x_max":590,"o":"m 590 313 q 585 301 590 306 q 574 296 581 296 l 271 296 q 264 289 264 296 l 264 247 q 277 203 264 219 q 313 186 290 186 q 344 200 332 186 q 361 235 357 214 q 379 250 363 250 l 571 239 q 583 234 578 239 q 586 221 588 229 q 313 -11 574 -11 q 107 52 181 -11 q 33 229 33 115 l 33 489 q 108 663 33 597 q 313 729 182 729 q 517 664 443 729 q 590 489 590 599 l 590 313 m 313 532 q 277 515 290 532 q 264 471 264 499 l 264 428 q 271 421 264 421 l 353 421 q 360 428 360 421 l 360 471 q 347 515 360 497 q 313 532 333 532 z "},"ë":{"ha":619,"x_min":33,"x_max":590,"o":"m 590 313 q 585 301 590 306 q 574 296 581 296 l 271 296 q 264 289 264 296 l 264 247 q 277 203 264 219 q 313 186 290 186 q 344 200 332 186 q 361 235 357 214 q 379 250 363 250 l 571 239 q 583 234 578 239 q 586 221 588 229 q 313 -11 574 -11 q 107 52 181 -11 q 33 229 33 115 l 33 489 q 108 663 33 597 q 313 729 182 729 q 517 664 443 729 q 590 489 590 599 l 590 313 m 313 532 q 277 515 290 532 q 264 471 264 499 l 264 428 q 271 421 264 421 l 353 421 q 360 428 360 421 l 360 471 q 347 515 360 497 q 313 532 333 532 z "},"ė":{"ha":619,"x_min":33,"x_max":590,"o":"m 590 313 q 585 301 590 306 q 574 296 581 296 l 271 296 q 264 289 264 296 l 264 247 q 277 203 264 219 q 313 186 290 186 q 344 200 332 186 q 361 235 357 214 q 379 250 363 250 l 571 239 q 583 234 578 239 q 586 221 588 229 q 313 -11 574 -11 q 107 52 181 -11 q 33 229 33 115 l 33 489 q 108 663 33 597 q 313 729 182 729 q 517 664 443 729 q 590 489 590 599 l 590 313 m 313 532 q 277 515 290 532 q 264 471 264 499 l 264 428 q 271 421 264 421 l 353 421 q 360 428 360 421 l 360 471 q 347 515 360 497 q 313 532 333 532 m 311 782 q 224 816 258 782 q 190 903 190 850 q 224 990 190 957 q 311 1024 258 1024 q 397 990 364 1024 q 431 903 431 957 q 397 816 431 850 q 311 782 363 782 z "},"ẹ":{"ha":619,"x_min":33,"x_max":590,"o":"m 590 313 q 585 301 590 306 q 574 296 581 296 l 271 296 q 264 289 264 296 l 264 247 q 277 203 264 219 q 313 186 290 186 q 344 200 332 186 q 361 235 357 214 q 379 250 363 250 l 571 239 q 583 234 578 239 q 586 221 588 229 q 313 -11 574 -11 q 107 52 181 -11 q 33 229 33 115 l 33 489 q 108 663 33 597 q 313 729 182 729 q 517 664 443 729 q 590 489 590 599 l 590 313 m 313 532 q 277 515 290 532 q 264 471 264 499 l 264 428 q 271 421 264 421 l 353 421 q 360 428 360 421 l 360 471 q 347 515 360 497 q 313 532 333 532 m 311 -358 q 227 -326 260 -358 q 194 -243 194 -293 q 227 -159 194 -192 q 311 -126 260 -126 q 394 -159 361 -126 q 426 -243 426 -192 q 394 -325 426 -292 q 311 -358 361 -358 z "},"è":{"ha":619,"x_min":33,"x_max":590,"o":"m 590 313 q 585 301 590 306 q 574 296 581 296 l 271 296 q 264 289 264 296 l 264 247 q 277 203 264 219 q 313 186 290 186 q 344 200 332 186 q 361 235 357 214 q 379 250 363 250 l 571 239 q 583 234 578 239 q 586 221 588 229 q 313 -11 574 -11 q 107 52 181 -11 q 33 229 33 115 l 33 489 q 108 663 33 597 q 313 729 182 729 q 517 664 443 729 q 590 489 590 599 l 590 313 m 313 532 q 277 515 290 532 q 264 471 264 499 l 264 428 q 271 421 264 421 l 353 421 q 360 428 360 421 l 360 471 q 347 515 360 497 q 313 532 333 532 m 385 814 q 369 803 385 803 l 243 803 q 222 813 231 803 l 114 951 q 110 961 110 958 q 125 972 110 972 l 281 972 q 300 961 294 972 l 382 822 l 385 814 z "},"ẻ":{"ha":619,"x_min":33,"x_max":590,"o":"m 590 313 q 585 301 590 306 q 574 296 581 296 l 271 296 q 264 289 264 296 l 264 247 q 277 203 264 219 q 313 186 290 186 q 344 200 332 186 q 361 235 357 214 q 379 250 363 250 l 571 239 q 583 234 578 239 q 586 221 588 229 q 313 -11 574 -11 q 107 52 181 -11 q 33 229 33 115 l 33 489 q 108 663 33 597 q 313 729 182 729 q 517 664 443 729 q 590 489 590 599 l 590 313 m 313 532 q 277 515 290 532 q 264 471 264 499 l 264 428 q 271 421 264 421 l 353 421 q 360 428 360 421 l 360 471 q 347 515 360 497 q 313 532 333 532 m 288 776 q 276 797 268 781 q 321 868 293 838 q 339 894 333 883 q 344 922 344 904 q 335 942 344 933 q 313 950 325 950 q 284 942 297 950 q 253 910 271 933 q 240 903 246 903 q 229 907 235 903 l 171 949 q 163 961 163 956 q 167 972 163 967 q 233 1038 199 1018 q 318 1057 268 1057 q 425 1022 386 1057 q 464 922 464 986 q 451 868 464 890 q 411 818 438 846 q 375 774 382 786 q 354 764 367 763 l 288 776 z "},"ē":{"ha":619,"x_min":33,"x_max":590,"o":"m 590 313 q 585 301 590 306 q 574 296 581 296 l 271 296 q 264 289 264 296 l 264 247 q 277 203 264 219 q 313 186 290 186 q 344 200 332 186 q 361 235 357 214 q 379 250 363 250 l 571 239 q 583 234 578 239 q 586 221 588 229 q 313 -11 574 -11 q 107 52 181 -11 q 33 229 33 115 l 33 489 q 108 663 33 597 q 313 729 182 729 q 517 664 443 729 q 590 489 590 599 l 590 313 m 313 532 q 277 515 290 532 q 264 471 264 499 l 264 428 q 271 421 264 421 l 353 421 q 360 428 360 421 l 360 471 q 347 515 360 497 q 313 532 333 532 m 164 811 q 152 816 157 811 q 147 828 147 821 l 147 949 q 152 960 147 956 q 164 965 157 965 l 444 965 q 456 960 451 965 q 461 949 461 956 l 461 828 q 456 816 461 821 q 444 811 451 811 l 164 811 z "},"ę":{"ha":619,"x_min":33,"x_max":590,"o":"m 590 313 q 585 301 590 306 q 574 296 581 296 l 271 296 q 264 289 264 296 l 264 247 q 277 203 264 219 q 313 186 290 186 q 344 200 332 186 q 361 235 357 214 q 379 250 363 250 l 571 239 q 583 234 578 239 q 586 221 588 229 q 386 -7 574 22 q 378 -10 383 -7 q 329 -104 321 -64 q 361 -132 338 -132 l 372 -132 q 383 -134 379 -132 q 388 -144 386 -136 l 397 -224 l 397 -228 q 385 -243 397 -239 q 310 -254 349 -254 q 219 -226 256 -254 q 182 -129 182 -197 q 229 -11 182 -68 q 226 -3 235 -6 q 83 76 133 17 q 33 229 33 136 l 33 489 q 108 663 33 597 q 313 729 182 729 q 517 664 443 729 q 590 489 590 599 l 590 313 m 313 532 q 277 515 290 532 q 264 471 264 499 l 264 428 q 271 421 264 421 l 353 421 q 360 428 360 421 l 360 471 q 347 515 360 497 q 313 532 333 532 z "},"ẽ":{"ha":619,"x_min":33,"x_max":590,"o":"m 590 313 q 585 301 590 306 q 574 296 581 296 l 271 296 q 264 289 264 296 l 264 247 q 277 203 264 219 q 313 186 290 186 q 344 200 332 186 q 361 235 357 214 q 379 250 363 250 l 571 239 q 583 234 578 239 q 586 221 588 229 q 313 -11 574 -11 q 107 52 181 -11 q 33 229 33 115 l 33 489 q 108 663 33 597 q 313 729 182 729 q 517 664 443 729 q 590 489 590 599 l 590 313 m 313 532 q 277 515 290 532 q 264 471 264 499 l 264 428 q 271 421 264 421 l 353 421 q 360 428 360 421 l 360 471 q 347 515 360 497 q 313 532 333 532 m 406 803 q 329 825 374 803 q 309 837 318 831 q 291 847 300 843 q 272 850 282 850 q 226 821 244 850 q 215 812 222 814 q 203 815 208 810 l 132 865 q 125 888 121 874 q 177 967 143 940 q 253 993 211 993 q 344 961 296 993 q 358 952 347 958 q 378 942 368 946 q 400 938 389 938 q 447 963 431 938 q 469 969 457 978 l 539 921 q 546 907 546 917 q 540 889 546 899 q 481 823 517 843 q 406 803 444 803 z "},"ə":{"ha":619,"x_min":29,"x_max":586,"o":"m 307 729 q 513 666 439 729 q 586 489 586 603 l 586 229 q 512 55 586 121 q 307 -11 438 -11 q 103 54 176 -11 q 29 229 29 119 l 29 406 q 34 417 29 413 q 46 422 39 422 l 349 422 q 356 429 356 422 l 356 471 q 342 515 356 499 q 307 532 329 532 q 275 518 288 532 q 260 483 263 504 q 240 469 256 469 l 49 481 q 37 485 42 481 q 32 497 32 490 q 107 672 39 614 q 307 729 175 729 m 307 186 q 342 203 329 186 q 356 247 356 219 l 356 292 q 349 299 356 299 l 267 299 q 260 292 260 299 l 260 247 q 273 203 260 221 q 307 186 286 186 z "},"ʒ":{"ha":565,"x_min":33,"x_max":540,"o":"m 331 358 q 328 353 328 356 q 333 349 329 350 q 484 239 428 317 q 540 60 540 161 q 495 -108 540 -32 q 371 -227 450 -183 q 193 -271 292 -271 q 58 -250 129 -271 q 44 -232 44 -246 l 49 -64 q 68 -51 49 -44 q 161 -69 114 -69 q 267 -34 225 -69 q 310 76 310 1 q 279 177 310 136 q 197 218 249 218 q 129 200 165 218 q 118 197 125 197 q 107 206 111 197 l 49 328 q 47 336 47 331 q 54 351 47 344 l 226 501 q 228 507 229 504 q 224 510 228 510 l 50 510 q 38 515 43 510 q 33 526 33 519 l 33 701 q 38 713 33 708 q 50 718 43 718 l 482 718 q 494 713 489 718 q 499 701 499 708 l 499 522 q 489 501 499 511 l 331 358 z "},"ǯ":{"ha":565,"x_min":33,"x_max":540,"o":"m 331 358 q 328 353 328 356 q 333 349 329 350 q 484 239 428 317 q 540 60 540 161 q 495 -108 540 -32 q 371 -227 450 -183 q 193 -271 292 -271 q 58 -250 129 -271 q 44 -232 44 -246 l 49 -64 q 68 -51 49 -44 q 161 -69 114 -69 q 267 -34 225 -69 q 310 76 310 1 q 279 177 310 136 q 197 218 249 218 q 129 200 165 218 q 118 197 125 197 q 107 206 111 197 l 49 328 q 47 336 47 331 q 54 351 47 344 l 226 501 q 228 507 229 504 q 224 510 228 510 l 50 510 q 38 515 43 510 q 33 526 33 519 l 33 701 q 38 713 33 708 q 50 718 43 718 l 482 718 q 494 713 489 718 q 499 701 499 708 l 499 522 q 489 501 499 511 l 331 358 z "},"f":{"ha":424,"x_min":21,"x_max":401,"o":"m 385 718 q 397 713 392 718 q 401 701 401 708 l 401 575 q 397 563 401 568 q 385 558 392 558 l 318 558 q 311 551 311 558 l 311 17 q 306 5 311 10 q 294 0 301 0 l 99 0 q 87 5 92 0 q 82 17 82 10 l 82 551 q 75 558 82 558 l 38 558 q 26 563 31 558 q 21 575 21 568 l 21 701 q 26 713 21 708 q 38 718 31 718 l 75 718 q 82 725 82 718 l 82 767 q 142 928 82 882 q 329 975 203 975 l 371 974 q 386 957 386 974 l 386 831 q 372 814 386 814 q 327 794 343 813 q 311 747 311 776 l 311 725 q 318 718 311 718 l 385 718 z "},"g":{"ha":626,"x_min":33,"x_max":589,"o":"m 358 701 q 363 713 358 708 q 375 718 368 718 l 572 718 q 584 713 579 718 q 589 701 589 708 l 589 42 q 560 -133 589 -61 q 453 -248 531 -206 q 238 -290 376 -290 q 163 -287 215 -290 q 146 -269 146 -286 l 146 -104 q 164 -89 146 -86 l 196 -90 q 297 -74 263 -90 q 344 -30 332 -58 q 358 44 357 -1 q 355 51 358 50 q 349 47 351 51 q 224 -8 306 -8 q 80 54 126 -8 q 33 232 33 117 l 33 489 q 224 729 33 729 q 350 667 308 729 q 356 663 353 663 q 358 668 358 664 l 358 701 m 310 190 q 345 207 332 190 q 358 250 358 224 l 358 471 q 345 515 358 499 q 310 532 332 532 q 276 515 289 532 q 264 471 264 499 l 264 250 q 276 206 264 222 q 310 190 289 190 z "},"ğ":{"ha":626,"x_min":33,"x_max":589,"o":"m 358 701 q 363 713 358 708 q 375 718 368 718 l 572 718 q 584 713 579 718 q 589 701 589 708 l 589 42 q 560 -133 589 -61 q 453 -248 531 -206 q 238 -290 376 -290 q 163 -287 215 -290 q 146 -269 146 -286 l 146 -104 q 164 -89 146 -86 l 196 -90 q 297 -74 263 -90 q 344 -30 332 -58 q 358 44 357 -1 q 355 51 358 50 q 349 47 351 51 q 224 -8 306 -8 q 80 54 126 -8 q 33 232 33 117 l 33 489 q 224 729 33 729 q 350 667 308 729 q 356 663 353 663 q 358 668 358 664 l 358 701 m 310 190 q 345 207 332 190 q 358 250 358 224 l 358 471 q 345 515 358 499 q 310 532 332 532 q 276 515 289 532 q 264 471 264 499 l 264 250 q 276 206 264 222 q 310 190 289 190 m 317 758 q 195 800 242 758 q 142 911 149 842 q 158 928 142 928 l 243 928 q 261 911 260 928 q 279 871 264 886 q 317 856 294 856 q 353 871 339 856 q 372 911 368 886 q 390 928 375 928 l 475 928 q 492 911 492 928 q 438 800 485 842 q 317 758 390 758 z "},"ǧ":{"ha":626,"x_min":33,"x_max":589,"o":"m 358 701 q 363 713 358 708 q 375 718 368 718 l 572 718 q 584 713 579 718 q 589 701 589 708 l 589 42 q 560 -133 589 -61 q 453 -248 531 -206 q 238 -290 376 -290 q 163 -287 215 -290 q 146 -269 146 -286 l 146 -104 q 164 -89 146 -86 l 196 -90 q 297 -74 263 -90 q 344 -30 332 -58 q 358 44 357 -1 q 355 51 358 50 q 349 47 351 51 q 224 -8 306 -8 q 80 54 126 -8 q 33 232 33 117 l 33 489 q 224 729 33 729 q 350 667 308 729 q 356 663 353 663 q 358 668 358 664 l 358 701 m 310 190 q 345 207 332 190 q 358 250 358 224 l 358 471 q 345 515 358 499 q 310 532 332 532 q 276 515 289 532 q 264 471 264 499 l 264 250 q 276 206 264 222 q 310 190 289 190 z "},"ĝ":{"ha":626,"x_min":33,"x_max":589,"o":"m 358 701 q 363 713 358 708 q 375 718 368 718 l 572 718 q 584 713 579 718 q 589 701 589 708 l 589 42 q 560 -133 589 -61 q 453 -248 531 -206 q 238 -290 376 -290 q 163 -287 215 -290 q 146 -269 146 -286 l 146 -104 q 164 -89 146 -86 l 196 -90 q 297 -74 263 -90 q 344 -30 332 -58 q 358 44 357 -1 q 355 51 358 50 q 349 47 351 51 q 224 -8 306 -8 q 80 54 126 -8 q 33 232 33 117 l 33 489 q 224 729 33 729 q 350 667 308 729 q 356 663 353 663 q 358 668 358 664 l 358 701 m 310 190 q 345 207 332 190 q 358 250 358 224 l 358 471 q 345 515 358 499 q 310 532 332 532 q 276 515 289 532 q 264 471 264 499 l 264 250 q 276 206 264 222 q 310 190 289 190 m 108 794 q 95 799 99 794 q 97 814 92 804 l 185 961 q 204 972 190 972 l 418 972 q 438 961 432 972 l 529 814 q 532 804 532 806 q 518 794 532 794 l 372 794 q 353 807 358 794 l 317 878 q 308 878 313 885 l 272 807 q 253 794 265 794 l 108 794 z "},"ġ":{"ha":626,"x_min":33,"x_max":589,"o":"m 358 701 q 363 713 358 708 q 375 718 368 718 l 572 718 q 584 713 579 718 q 589 701 589 708 l 589 42 q 560 -133 589 -61 q 453 -248 531 -206 q 238 -290 376 -290 q 163 -287 215 -290 q 146 -269 146 -286 l 146 -104 q 164 -89 146 -86 l 196 -90 q 297 -74 263 -90 q 344 -30 332 -58 q 358 44 357 -1 q 355 51 358 50 q 349 47 351 51 q 224 -8 306 -8 q 80 54 126 -8 q 33 232 33 117 l 33 489 q 224 729 33 729 q 350 667 308 729 q 356 663 353 663 q 358 668 358 664 l 358 701 m 310 190 q 345 207 332 190 q 358 250 358 224 l 358 471 q 345 515 358 499 q 310 532 332 532 q 276 515 289 532 q 264 471 264 499 l 264 250 q 276 206 264 222 q 310 190 289 190 m 317 782 q 230 816 264 782 q 196 903 196 850 q 230 990 196 957 q 317 1024 264 1024 q 403 990 369 1024 q 436 903 436 957 q 402 816 436 850 q 317 782 368 782 z "},"ǥ":{"ha":646,"x_min":33,"x_max":633,"o":"m 617 429 q 628 424 624 429 q 633 413 633 419 l 633 310 q 628 298 633 303 q 617 293 624 293 l 596 293 q 589 286 589 293 l 589 42 q 560 -133 589 -61 q 453 -248 531 -206 q 238 -290 376 -290 q 163 -287 215 -290 q 146 -269 146 -286 l 146 -104 q 164 -89 146 -86 l 196 -90 q 297 -74 263 -90 q 344 -30 332 -58 q 358 44 357 -1 q 355 51 358 50 q 349 47 351 51 q 224 -8 306 -8 q 80 54 126 -8 q 33 232 33 117 l 33 489 q 224 729 33 729 q 350 667 308 729 q 356 663 353 663 q 358 668 358 664 l 358 701 q 363 713 358 708 q 375 718 368 718 l 572 718 q 584 713 579 718 q 589 701 589 708 l 589 436 q 596 429 589 429 l 617 429 m 310 190 q 345 207 332 190 q 358 250 358 224 l 358 286 q 351 293 358 293 l 322 293 q 310 298 315 293 q 306 310 306 303 l 306 413 q 310 424 306 419 q 322 429 315 429 l 351 429 q 358 436 358 429 l 358 471 q 345 515 358 499 q 310 532 332 532 q 276 515 289 532 q 264 471 264 499 l 264 250 q 276 206 264 222 q 310 190 289 190 z "},"h":{"ha":632,"x_min":40,"x_max":594,"o":"m 401 729 q 547 665 500 729 q 594 485 594 601 l 594 17 q 590 5 594 10 q 578 0 585 0 l 381 0 q 369 5 374 0 q 364 17 364 10 l 364 469 q 319 532 364 532 q 283 515 296 532 q 271 468 271 499 l 271 17 q 266 5 271 10 q 254 0 261 0 l 57 0 q 45 5 50 0 q 40 17 40 10 l 40 956 q 45 967 40 963 q 57 972 50 972 l 254 972 q 266 967 261 972 q 271 956 271 963 l 271 674 q 274 671 271 671 q 285 679 279 671 q 401 729 326 729 z "},"ħ":{"ha":632,"x_min":-21,"x_max":594,"o":"m 401 729 q 547 665 500 729 q 594 485 594 601 l 594 17 q 590 5 594 10 q 578 0 585 0 l 381 0 q 369 5 374 0 q 364 17 364 10 l 364 469 q 319 532 364 532 q 283 515 296 532 q 271 468 271 499 l 271 17 q 266 5 271 10 q 254 0 261 0 l 57 0 q 45 5 50 0 q 40 17 40 10 l 40 753 q 33 760 40 760 l -4 760 q -16 765 -11 760 q -21 776 -21 769 l -21 881 q -16 892 -21 888 q -4 897 -11 897 l 33 897 q 40 904 40 897 l 40 956 q 45 967 40 963 q 57 972 50 972 l 254 972 q 266 967 261 972 q 271 956 271 963 l 271 904 q 278 897 271 897 l 368 897 q 380 892 375 897 q 385 881 385 888 l 385 776 q 380 765 385 769 q 368 760 375 760 l 278 760 q 271 753 271 760 l 271 674 q 274 671 271 671 q 285 679 279 671 q 401 729 326 729 z "},"ȟ":{"ha":632,"x_min":40,"x_max":594,"o":"m 401 729 q 547 665 500 729 q 594 485 594 601 l 594 17 q 590 5 594 10 q 578 0 585 0 l 381 0 q 369 5 374 0 q 364 17 364 10 l 364 469 q 319 532 364 532 q 283 515 296 532 q 271 468 271 499 l 271 17 q 266 5 271 10 q 254 0 261 0 l 57 0 q 45 5 50 0 q 40 17 40 10 l 40 956 q 45 967 40 963 q 57 972 50 972 l 254 972 q 266 967 261 972 q 271 956 271 963 l 271 674 q 274 671 271 671 q 285 679 279 671 q 401 729 326 729 z "},"ĥ":{"ha":632,"x_min":40,"x_max":594,"o":"m 401 729 q 547 665 500 729 q 594 485 594 601 l 594 17 q 590 5 594 10 q 578 0 585 0 l 381 0 q 369 5 374 0 q 364 17 364 10 l 364 469 q 319 532 364 532 q 283 515 296 532 q 271 468 271 499 l 271 17 q 266 5 271 10 q 254 0 261 0 l 57 0 q 45 5 50 0 q 40 17 40 10 l 40 956 q 45 967 40 963 q 57 972 50 972 l 254 972 q 266 967 261 972 q 271 956 271 963 l 271 674 q 274 671 271 671 q 285 679 279 671 q 401 729 326 729 m 132 1042 q 119 1047 122 1042 q 121 1061 115 1051 l 208 1208 q 228 1219 214 1219 l 442 1219 q 461 1208 456 1219 l 553 1061 q 556 1051 556 1053 q 542 1042 556 1042 l 396 1042 q 376 1054 382 1042 l 340 1125 q 332 1125 336 1132 l 296 1054 q 276 1042 289 1042 l 132 1042 z "},"i":{"ha":310,"x_min":33,"x_max":274,"o":"m 153 782 q 67 816 101 782 q 33 903 33 850 q 67 990 33 957 q 153 1024 100 1024 q 240 990 206 1024 q 274 903 274 957 q 240 817 274 851 q 153 782 206 782 m 57 0 q 45 5 50 0 q 40 17 40 10 l 40 701 q 45 713 40 708 q 57 718 50 718 l 254 718 q 266 713 261 718 q 271 701 271 708 l 271 17 q 266 5 271 10 q 254 0 261 0 l 57 0 z "},"ı":{"ha":274,"x_min":22,"x_max":253,"o":"m 39 0 q 27 5 32 0 q 22 17 22 10 l 22 701 q 27 713 22 708 q 39 718 32 718 l 236 718 q 248 713 243 718 q 253 701 253 708 l 253 17 q 248 5 253 10 q 236 0 243 0 l 39 0 z "},"í":{"ha":274,"x_min":22,"x_max":310,"o":"m 39 0 q 27 5 32 0 q 22 17 22 10 l 22 701 q 27 713 22 708 q 39 718 32 718 l 236 718 q 248 713 243 718 q 253 701 253 708 l 253 17 q 248 5 253 10 q 236 0 243 0 l 39 0 m 51 803 q 38 808 42 803 q 39 822 33 814 l 121 961 q 140 972 126 972 l 296 972 q 310 963 310 972 q 306 951 310 958 l 197 813 q 176 803 189 803 l 51 803 z "},"ĭ":{"ha":274,"x_min":-37,"x_max":313,"o":"m 39 0 q 27 5 32 0 q 22 17 22 10 l 22 701 q 27 713 22 708 q 39 718 32 718 l 236 718 q 248 713 243 718 q 253 701 253 708 l 253 17 q 248 5 253 10 q 236 0 243 0 l 39 0 m 138 778 q 15 819 63 778 q -37 931 -32 861 q -21 947 -37 947 l 64 947 q 81 931 81 947 q 100 890 85 906 q 138 875 115 875 q 174 890 158 875 q 193 931 189 906 q 211 947 194 947 l 296 947 q 311 931 313 947 q 258 820 306 863 q 138 778 210 778 z "},"î":{"ha":274,"x_min":-87,"x_max":353,"o":"m 39 0 q 27 5 32 0 q 22 17 22 10 l 22 701 q 27 713 22 708 q 39 718 32 718 l 236 718 q 248 713 243 718 q 253 701 253 708 l 253 17 q 248 5 253 10 q 236 0 243 0 l 39 0 m -71 794 q -84 799 -81 794 q -82 814 -87 804 l 6 961 q 25 972 11 972 l 239 972 q 258 961 253 972 l 350 814 q 353 804 353 806 q 339 794 353 794 l 193 794 q 174 807 179 794 l 138 878 q 129 878 133 885 l 93 807 q 74 794 86 794 l -71 794 z "},"ï":{"ha":274,"x_min":-121,"x_max":393,"o":"m 39 0 q 27 5 32 0 q 22 17 22 10 l 22 701 q 27 713 22 708 q 39 718 32 718 l 236 718 q 248 713 243 718 q 253 701 253 708 l 253 17 q 248 5 253 10 q 236 0 243 0 l 39 0 z "},"ị":{"ha":310,"x_min":33,"x_max":274,"o":"m 153 782 q 67 816 101 782 q 33 903 33 850 q 67 990 33 957 q 153 1024 100 1024 q 240 990 206 1024 q 274 903 274 957 q 240 817 274 851 q 153 782 206 782 m 57 0 q 45 5 50 0 q 40 17 40 10 l 40 701 q 45 713 40 708 q 57 718 50 718 l 254 718 q 266 713 261 718 q 271 701 271 708 l 271 17 q 266 5 271 10 q 254 0 261 0 l 57 0 m 156 -358 q 72 -326 104 -358 q 39 -243 39 -293 q 72 -159 39 -192 q 156 -126 104 -126 q 238 -159 206 -126 q 271 -243 271 -192 q 238 -325 271 -292 q 156 -358 206 -358 z "},"ì":{"ha":274,"x_min":-64,"x_max":253,"o":"m 39 0 q 27 5 32 0 q 22 17 22 10 l 22 701 q 27 713 22 708 q 39 718 32 718 l 236 718 q 248 713 243 718 q 253 701 253 708 l 253 17 q 248 5 253 10 q 236 0 243 0 l 39 0 m 211 814 q 196 803 211 803 l 69 803 q 49 813 57 803 l -60 951 q -64 961 -64 958 q -49 972 -64 972 l 107 972 q 126 961 121 972 l 208 822 l 211 814 z "},"ỉ":{"ha":274,"x_min":-11,"x_max":290,"o":"m 39 0 q 27 5 32 0 q 22 17 22 10 l 22 701 q 27 713 22 708 q 39 718 32 718 l 236 718 q 248 713 243 718 q 253 701 253 708 l 253 17 q 248 5 253 10 q 236 0 243 0 l 39 0 m 114 776 q 103 797 94 781 q 147 868 119 838 q 165 894 160 883 q 171 922 171 904 q 161 942 171 933 q 139 950 151 950 q 110 942 124 950 q 79 910 97 933 q 67 903 72 903 q 56 907 61 903 l -3 949 q -11 961 -11 956 q -7 972 -11 967 q 60 1038 25 1018 q 144 1057 94 1057 q 251 1022 213 1057 q 290 922 290 986 q 277 868 290 890 q 238 818 264 846 q 201 774 208 786 q 181 764 193 763 l 114 776 z "},"ĳ":{"ha":610,"x_min":33,"x_max":576,"o":"m 153 782 q 67 816 101 782 q 33 903 33 850 q 67 990 33 957 q 153 1024 100 1024 q 240 990 206 1024 q 274 903 274 957 q 240 817 274 851 q 153 782 206 782 m 57 0 q 45 5 50 0 q 40 17 40 10 l 40 701 q 45 713 40 708 q 57 718 50 718 l 254 718 q 266 713 261 718 q 271 701 271 708 l 271 17 q 266 5 271 10 q 254 0 261 0 l 57 0 m 456 782 q 369 817 404 782 q 335 903 335 851 q 369 990 335 957 q 456 1024 403 1024 q 542 990 508 1024 q 576 903 576 957 q 542 817 576 851 q 456 782 508 782 m 225 -281 q 208 -264 208 -281 l 208 -101 q 215 -89 208 -92 q 235 -86 221 -86 q 318 -60 296 -86 q 340 21 340 -33 l 340 701 q 345 713 340 708 q 357 718 350 718 l 554 718 q 566 713 561 718 q 571 701 571 708 l 571 21 q 552 -156 571 -94 q 459 -250 533 -217 q 225 -281 385 -283 z "},"ī":{"ha":274,"x_min":-26,"x_max":288,"o":"m 39 0 q 27 5 32 0 q 22 17 22 10 l 22 701 q 27 713 22 708 q 39 718 32 718 l 236 718 q 248 713 243 718 q 253 701 253 708 l 253 17 q 248 5 253 10 q 236 0 243 0 l 39 0 m -10 800 q -22 805 -17 800 q -26 817 -26 810 l -26 939 q -22 951 -26 946 q -10 956 -17 956 l 271 956 q 283 951 278 956 q 288 939 288 946 l 288 817 q 283 805 288 810 q 271 800 278 800 l -10 800 z "},"į":{"ha":313,"x_min":38,"x_max":278,"o":"m 60 0 q 48 5 53 0 q 43 17 43 10 l 43 701 q 48 713 43 708 q 60 718 53 718 l 257 718 q 269 713 264 718 q 274 701 274 708 l 274 17 q 269 5 274 10 q 257 0 264 0 l 60 0 m 158 782 q 72 816 106 782 q 38 903 38 850 q 72 990 38 957 q 158 1024 106 1024 q 244 990 211 1024 q 278 903 278 957 q 244 816 278 850 q 158 782 210 782 m 268 -240 q 256 -257 268 -251 q 182 -268 219 -268 q 58 -181 79 -268 q 53 -142 53 -156 q 115 -8 53 -72 q 136 0 124 0 l 244 0 q 258 -8 258 0 q 250 -21 258 -15 q 199 -106 199 -69 q 210 -137 199 -128 q 239 -146 221 -147 l 243 -146 q 258 -158 257 -146 l 268 -236 l 268 -240 z "},"ĩ":{"ha":274,"x_min":-53,"x_max":372,"o":"m 39 0 q 27 5 32 0 q 22 17 22 10 l 22 701 q 27 713 22 708 q 39 718 32 718 l 236 718 q 248 713 243 718 q 253 701 253 708 l 253 17 q 248 5 253 10 q 236 0 243 0 l 39 0 m 232 803 q 156 825 200 803 q 135 837 144 831 q 117 847 126 843 q 99 850 108 850 q 53 821 71 850 q 42 812 49 814 q 29 815 35 810 l -42 865 q -49 888 -53 874 q 3 967 -31 940 q 79 993 38 993 q 171 961 122 993 q 184 952 174 958 q 205 942 194 946 q 226 938 215 938 q 274 963 257 938 q 296 969 283 978 l 365 921 q 372 907 372 917 q 367 889 372 899 q 307 823 343 843 q 232 803 271 803 z "},"j":{"ha":310,"x_min":-92,"x_max":276,"o":"m 156 782 q 69 817 104 782 q 35 903 35 851 q 69 990 35 957 q 156 1024 103 1024 q 242 990 208 1024 q 276 903 276 957 q 242 817 276 851 q 156 782 208 782 m -75 -281 q -92 -264 -92 -281 l -92 -101 q -85 -89 -92 -92 q -65 -86 -79 -86 q 18 -60 -4 -86 q 40 21 40 -33 l 40 701 q 45 713 40 708 q 57 718 50 718 l 254 718 q 266 713 261 718 q 271 701 271 708 l 271 21 q 252 -156 271 -94 q 159 -250 233 -217 q -75 -281 85 -283 z "},"ȷ":{"ha":315,"x_min":-92,"x_max":271,"o":"m -75 -281 q -92 -264 -92 -281 l -92 -101 q -85 -89 -92 -92 q -65 -86 -79 -86 q 18 -60 -4 -86 q 40 21 40 -33 l 40 701 q 45 713 40 708 q 57 718 50 718 l 254 718 q 266 713 261 718 q 271 701 271 708 l 271 21 q 252 -156 271 -94 q 159 -250 233 -217 q -75 -281 85 -283 z "},"ĵ":{"ha":315,"x_min":-92,"x_max":372,"o":"m -75 -281 q -92 -264 -92 -281 l -92 -101 q -85 -89 -92 -92 q -65 -86 -79 -86 q 18 -60 -4 -86 q 40 21 40 -33 l 40 701 q 45 713 40 708 q 57 718 50 718 l 254 718 q 266 713 261 718 q 271 701 271 708 l 271 21 q 252 -156 271 -94 q 159 -250 233 -217 q -75 -281 85 -283 m -51 794 q -65 799 -61 794 q -62 814 -68 804 l 25 961 q 44 972 31 972 l 258 972 q 278 961 272 972 l 369 814 q 372 804 372 806 q 358 794 372 794 l 213 794 q 193 807 199 794 l 157 878 q 149 878 153 885 l 113 807 q 93 794 106 794 l -51 794 z "},"k":{"ha":646,"x_min":40,"x_max":621,"o":"m 57 0 q 45 5 50 0 q 40 17 40 10 l 40 956 q 45 967 40 963 q 57 972 50 972 l 254 972 q 266 967 261 972 q 271 956 271 963 l 271 531 q 274 524 271 525 q 279 528 276 524 l 372 706 q 392 718 379 718 l 594 718 q 608 713 604 718 q 606 699 611 708 l 451 450 q 450 440 449 444 l 619 19 q 621 11 621 17 q 607 0 621 0 l 404 0 q 386 14 390 0 l 310 251 q 306 257 308 257 q 300 253 303 257 l 274 204 q 271 196 271 199 l 271 17 q 266 5 271 10 q 254 0 261 0 l 57 0 z "},"ǩ":{"ha":646,"x_min":40,"x_max":621,"o":"m 57 0 q 45 5 50 0 q 40 17 40 10 l 40 956 q 45 967 40 963 q 57 972 50 972 l 254 972 q 266 967 261 972 q 271 956 271 963 l 271 531 q 274 524 271 525 q 279 528 276 524 l 372 706 q 392 718 379 718 l 594 718 q 608 713 604 718 q 606 699 611 708 l 451 450 q 450 440 449 444 l 619 19 q 621 11 621 17 q 607 0 621 0 l 404 0 q 386 14 390 0 l 310 251 q 306 257 308 257 q 300 253 303 257 l 274 204 q 271 196 271 199 l 271 17 q 266 5 271 10 q 254 0 261 0 l 57 0 z "},"l":{"ha":304,"x_min":38,"x_max":268,"o":"m 54 0 q 42 5 47 0 q 38 17 38 10 l 38 956 q 42 967 38 963 q 54 972 47 972 l 251 972 q 263 967 258 972 q 268 956 268 963 l 268 17 q 263 5 268 10 q 251 0 258 0 l 54 0 z "},"ĺ":{"ha":304,"x_min":38,"x_max":326,"o":"m 54 0 q 42 5 47 0 q 38 17 38 10 l 38 956 q 42 967 38 963 q 54 972 47 972 l 251 972 q 263 967 258 972 q 268 956 268 963 l 268 17 q 263 5 268 10 q 251 0 258 0 l 54 0 m 68 1057 q 54 1063 58 1057 q 56 1076 50 1068 l 138 1215 q 157 1226 143 1226 l 313 1226 q 326 1217 326 1226 q 322 1206 326 1213 l 214 1067 q 193 1057 206 1057 l 68 1057 z "},"ľ":{"ha":600,"x_min":38,"x_max":565,"o":"m 54 0 q 42 5 47 0 q 38 17 38 10 l 38 956 q 42 967 38 963 q 54 972 47 972 l 251 972 q 263 967 258 972 q 268 956 268 963 l 268 17 q 263 5 268 10 q 251 0 258 0 l 54 0 z "},"ļ":{"ha":304,"x_min":-57,"x_max":268,"o":"m 54 0 q 42 5 47 0 q 38 17 38 10 l 38 956 q 42 967 38 963 q 54 972 47 972 l 251 972 q 263 967 258 972 q 268 956 268 963 l 268 17 q 263 5 268 10 q 251 0 258 0 l 54 0 z "},"ŀ":{"ha":318,"x_min":40,"x_max":281,"o":"m 60 0 q 48 5 53 0 q 43 17 43 10 l 43 956 q 48 967 43 963 q 60 972 53 972 l 257 972 q 269 967 264 972 q 274 956 274 963 l 274 17 q 269 5 274 10 q 257 0 264 0 l 60 0 z "},"ł":{"ha":585,"x_min":17,"x_max":568,"o":"m 565 556 q 568 547 568 550 q 558 532 568 538 l 403 447 q 397 439 397 443 l 397 17 q 392 5 397 10 q 381 0 388 0 l 183 0 q 172 5 176 0 q 167 17 167 10 l 167 311 q 164 317 167 315 q 158 317 161 319 l 103 286 q 93 283 97 283 q 79 293 83 283 l 18 410 q 17 418 17 413 q 25 433 17 428 l 161 508 q 167 517 167 513 l 167 956 q 172 967 167 963 q 183 972 176 972 l 381 972 q 392 967 388 972 q 397 956 397 963 l 397 647 q 400 642 397 643 q 406 642 403 640 l 476 681 q 486 683 482 683 q 500 675 494 683 l 565 556 z "},"m":{"ha":951,"x_min":40,"x_max":915,"o":"m 722 729 q 868 665 821 729 q 915 483 915 601 l 915 17 q 910 5 915 10 q 899 0 906 0 l 701 0 q 690 5 694 0 q 685 17 685 10 l 685 467 q 673 515 685 497 q 640 532 661 532 q 606 515 618 532 q 593 468 593 499 l 593 17 q 588 5 593 10 q 576 0 583 0 l 379 0 q 367 5 372 0 q 363 17 363 10 l 363 467 q 351 515 363 497 q 318 532 339 532 q 283 515 296 532 q 271 468 271 499 l 271 17 q 266 5 271 10 q 254 0 261 0 l 57 0 q 45 5 50 0 q 40 17 40 10 l 40 701 q 45 713 40 708 q 57 718 50 718 l 254 718 q 266 713 261 718 q 271 701 271 708 l 271 688 q 274 682 271 683 q 279 683 276 681 q 400 729 328 729 q 557 647 510 729 l 560 646 q 571 654 565 646 q 722 729 622 729 z "},"n":{"ha":632,"x_min":40,"x_max":594,"o":"m 401 729 q 547 665 500 729 q 594 485 594 601 l 594 17 q 590 5 594 10 q 578 0 585 0 l 381 0 q 369 5 374 0 q 364 17 364 10 l 364 469 q 319 532 364 532 q 283 515 296 532 q 271 468 271 499 l 271 17 q 266 5 271 10 q 254 0 261 0 l 57 0 q 45 5 50 0 q 40 17 40 10 l 40 701 q 45 713 40 708 q 57 718 50 718 l 254 718 q 266 713 261 718 q 271 701 271 708 l 271 674 q 274 671 271 671 q 285 679 279 671 q 401 729 326 729 z "},"ń":{"ha":632,"x_min":40,"x_max":594,"o":"m 401 729 q 547 665 500 729 q 594 485 594 601 l 594 17 q 590 5 594 10 q 578 0 585 0 l 381 0 q 369 5 374 0 q 364 17 364 10 l 364 469 q 319 532 364 532 q 283 515 296 532 q 271 468 271 499 l 271 17 q 266 5 271 10 q 254 0 261 0 l 57 0 q 45 5 50 0 q 40 17 40 10 l 40 701 q 45 713 40 708 q 57 718 50 718 l 254 718 q 266 713 261 718 q 271 701 271 708 l 271 674 q 274 671 271 671 q 285 679 279 671 q 401 729 326 729 m 233 803 q 219 808 224 803 q 221 822 215 814 l 303 961 q 322 972 308 972 l 478 972 q 492 963 492 972 q 488 951 492 958 l 379 813 q 358 803 371 803 l 233 803 z "},"ň":{"ha":632,"x_min":40,"x_max":594,"o":"m 401 729 q 547 665 500 729 q 594 485 594 601 l 594 17 q 590 5 594 10 q 578 0 585 0 l 381 0 q 369 5 374 0 q 364 17 364 10 l 364 469 q 319 532 364 532 q 283 515 296 532 q 271 468 271 499 l 271 17 q 266 5 271 10 q 254 0 261 0 l 57 0 q 45 5 50 0 q 40 17 40 10 l 40 701 q 45 713 40 708 q 57 718 50 718 l 254 718 q 266 713 261 718 q 271 701 271 708 l 271 674 q 274 671 271 671 q 285 679 279 671 q 401 729 326 729 m 110 953 q 107 963 107 961 q 121 972 107 972 l 265 972 q 285 960 279 972 l 321 889 q 329 889 325 883 l 365 960 q 385 972 372 972 l 531 972 q 544 967 540 972 q 542 953 547 963 l 450 806 q 431 794 444 794 l 217 794 q 197 806 203 794 l 110 953 z "},"ŋ":{"ha":632,"x_min":40,"x_max":594,"o":"m 594 31 q 581 -140 594 -83 q 500 -235 568 -197 q 276 -269 432 -272 q 258 -253 258 -269 l 258 -93 q 276 -78 258 -75 q 348 -56 332 -78 q 364 15 364 -33 l 364 469 q 319 532 364 532 q 283 515 296 532 q 271 468 271 499 l 271 17 q 266 5 271 10 q 254 0 261 0 l 57 0 q 45 5 50 0 q 40 17 40 10 l 40 701 q 45 713 40 708 q 57 718 50 718 l 254 718 q 266 713 261 718 q 271 701 271 708 l 271 674 q 274 669 271 669 q 279 672 276 668 q 401 729 324 729 q 547 665 500 729 q 594 485 594 601 l 594 31 z "},"ñ":{"ha":632,"x_min":40,"x_max":594,"o":"m 282 850 q 236 821 254 850 q 225 812 232 814 q 213 815 218 810 l 144 865 q 138 888 133 874 q 187 967 153 940 q 263 993 221 993 q 351 961 304 993 q 371 948 356 958 q 406 938 386 938 q 451 963 438 938 q 475 969 464 979 l 542 921 q 549 899 554 913 q 488 825 525 847 q 411 803 450 803 q 338 825 381 803 q 317 838 328 831 q 298 847 306 844 q 282 850 290 850 m 401 729 q 547 665 500 729 q 594 485 594 601 l 594 17 q 590 5 594 10 q 578 0 585 0 l 381 0 q 369 5 374 0 q 364 17 364 10 l 364 469 q 319 532 364 532 q 283 515 296 532 q 271 468 271 499 l 271 17 q 266 5 271 10 q 254 0 261 0 l 57 0 q 45 5 50 0 q 40 17 40 10 l 40 701 q 45 713 40 708 q 57 718 50 718 l 254 718 q 266 713 261 718 q 271 701 271 708 l 271 674 q 274 671 271 671 q 285 679 279 671 q 401 729 326 729 z "},"o":{"ha":628,"x_min":33,"x_max":594,"o":"m 314 -11 q 107 53 181 -11 q 33 229 33 117 l 33 489 q 108 663 33 597 q 314 729 182 729 q 520 664 446 729 q 594 489 594 599 l 594 229 q 521 53 594 117 q 314 -11 447 -11 m 314 188 q 350 204 336 188 q 364 249 364 221 l 364 471 q 350 515 364 497 q 314 532 336 532 q 278 515 292 532 q 264 471 264 497 l 264 249 q 278 204 264 221 q 314 188 292 188 z "},"ó":{"ha":628,"x_min":33,"x_max":594,"o":"m 314 -11 q 107 53 181 -11 q 33 229 33 117 l 33 489 q 108 663 33 597 q 314 729 182 729 q 520 664 446 729 q 594 489 594 599 l 594 229 q 521 53 594 117 q 314 -11 447 -11 m 314 188 q 350 204 336 188 q 364 249 364 221 l 364 471 q 350 515 364 497 q 314 532 336 532 q 278 515 292 532 q 264 471 264 497 l 264 249 q 278 204 264 221 q 314 188 292 188 m 229 803 q 215 808 219 803 q 217 822 211 814 l 299 961 q 318 972 304 972 l 474 972 q 488 963 488 972 q 483 951 488 958 l 375 813 q 354 803 367 803 l 229 803 z "},"ŏ":{"ha":628,"x_min":33,"x_max":594,"o":"m 314 -11 q 107 53 181 -11 q 33 229 33 117 l 33 489 q 108 663 33 597 q 314 729 182 729 q 520 664 446 729 q 594 489 594 599 l 594 229 q 521 53 594 117 q 314 -11 447 -11 m 314 188 q 350 204 336 188 q 364 249 364 221 l 364 471 q 350 515 364 497 q 314 532 336 532 q 278 515 292 532 q 264 471 264 497 l 264 249 q 278 204 264 221 q 314 188 292 188 m 315 778 q 193 819 240 778 q 140 931 146 861 q 157 947 140 947 l 242 947 q 258 931 258 947 q 278 890 263 906 q 315 875 293 875 q 351 890 336 875 q 371 931 367 906 q 389 947 372 947 l 474 947 q 489 931 490 947 q 435 820 483 863 q 315 778 388 778 z "},"ô":{"ha":628,"x_min":33,"x_max":594,"o":"m 314 -11 q 107 53 181 -11 q 33 229 33 117 l 33 489 q 108 663 33 597 q 314 729 182 729 q 520 664 446 729 q 594 489 594 599 l 594 229 q 521 53 594 117 q 314 -11 447 -11 m 314 188 q 350 204 336 188 q 364 249 364 221 l 364 471 q 350 515 364 497 q 314 532 336 532 q 278 515 292 532 q 264 471 264 497 l 264 249 q 278 204 264 221 q 314 188 292 188 m 107 794 q 94 799 97 794 q 96 814 90 804 l 183 961 q 203 972 189 972 l 417 972 q 436 961 431 972 l 528 814 q 531 804 531 806 q 517 794 531 794 l 371 794 q 351 807 357 794 l 315 878 q 307 878 311 885 l 271 807 q 251 794 264 794 l 107 794 z "},"ố":{"ha":628,"x_min":33,"x_max":788,"o":"m 314 -11 q 107 53 181 -11 q 33 229 33 117 l 33 489 q 108 663 33 597 q 314 729 182 729 q 520 664 446 729 q 594 489 594 599 l 594 229 q 521 53 594 117 q 314 -11 447 -11 m 314 188 q 350 204 336 188 q 364 249 364 221 l 364 471 q 350 515 364 497 q 314 532 336 532 q 278 515 292 532 q 264 471 264 497 l 264 249 q 278 204 264 221 q 314 188 292 188 z "},"ộ":{"ha":628,"x_min":33,"x_max":594,"o":"m 314 -11 q 107 53 181 -11 q 33 229 33 117 l 33 489 q 108 663 33 597 q 314 729 182 729 q 520 664 446 729 q 594 489 594 599 l 594 229 q 521 53 594 117 q 314 -11 447 -11 m 314 188 q 350 204 336 188 q 364 249 364 221 l 364 471 q 350 515 364 497 q 314 532 336 532 q 278 515 292 532 q 264 471 264 497 l 264 249 q 278 204 264 221 q 314 188 292 188 m 315 -358 q 231 -326 264 -358 q 199 -243 199 -293 q 231 -159 199 -192 q 315 -126 264 -126 q 398 -159 365 -126 q 431 -243 431 -192 q 398 -325 431 -292 q 315 -358 365 -358 m 107 794 q 94 799 97 794 q 96 814 90 804 l 183 961 q 203 972 189 972 l 417 972 q 436 961 431 972 l 528 814 q 531 804 531 806 q 517 794 531 794 l 371 794 q 351 807 357 794 l 315 878 q 307 878 311 885 l 271 807 q 251 794 264 794 l 107 794 z "},"ồ":{"ha":628,"x_min":33,"x_max":629,"o":"m 314 -11 q 107 53 181 -11 q 33 229 33 117 l 33 489 q 108 663 33 597 q 314 729 182 729 q 520 664 446 729 q 594 489 594 599 l 594 229 q 521 53 594 117 q 314 -11 447 -11 m 314 188 q 350 204 336 188 q 364 249 364 221 l 364 471 q 350 515 364 497 q 314 532 336 532 q 278 515 292 532 q 264 471 264 497 l 264 249 q 278 204 264 221 q 314 188 292 188 z "},"ổ":{"ha":628,"x_min":33,"x_max":679,"o":"m 314 -11 q 107 53 181 -11 q 33 229 33 117 l 33 489 q 108 663 33 597 q 314 729 182 729 q 520 664 446 729 q 594 489 594 599 l 594 229 q 521 53 594 117 q 314 -11 447 -11 m 314 188 q 350 204 336 188 q 364 249 364 221 l 364 471 q 350 515 364 497 q 314 532 336 532 q 278 515 292 532 q 264 471 264 497 l 264 249 q 278 204 264 221 q 314 188 292 188 m 518 943 q 507 964 499 947 q 547 1029 522 1003 q 564 1052 558 1042 q 569 1078 569 1063 q 560 1097 569 1089 q 540 1104 551 1104 q 515 1097 526 1104 q 486 1068 503 1089 q 474 1060 481 1060 q 463 1064 469 1060 l 410 1103 q 403 1115 403 1110 q 407 1126 403 1121 q 468 1185 436 1168 q 546 1203 500 1203 q 643 1169 607 1203 q 679 1078 679 1136 q 667 1026 679 1047 q 631 982 654 1006 q 597 942 610 961 q 576 932 589 931 l 518 943 m 107 794 q 94 799 97 794 q 96 814 90 804 l 183 961 q 203 972 189 972 l 417 972 q 436 961 431 972 l 528 814 q 531 804 531 806 q 517 794 531 794 l 371 794 q 351 807 357 794 l 315 878 q 307 878 311 885 l 271 807 q 251 794 264 794 l 107 794 z "},"ỗ":{"ha":628,"x_min":33,"x_max":594,"o":"m 314 -11 q 107 53 181 -11 q 33 229 33 117 l 33 489 q 108 663 33 597 q 314 729 182 729 q 520 664 446 729 q 594 489 594 599 l 594 229 q 521 53 594 117 q 314 -11 447 -11 m 314 188 q 350 204 336 188 q 364 249 364 221 l 364 471 q 350 515 364 497 q 314 532 336 532 q 278 515 292 532 q 264 471 264 497 l 264 249 q 278 204 264 221 q 314 188 292 188 z "},"ö":{"ha":628,"x_min":33,"x_max":594,"o":"m 314 -11 q 107 53 181 -11 q 33 229 33 117 l 33 489 q 108 663 33 597 q 314 729 182 729 q 520 664 446 729 q 594 489 594 599 l 594 229 q 521 53 594 117 q 314 -11 447 -11 m 314 188 q 350 204 336 188 q 364 249 364 221 l 364 471 q 350 515 364 497 q 314 532 336 532 q 278 515 292 532 q 264 471 264 497 l 264 249 q 278 204 264 221 q 314 188 292 188 z "},"ọ":{"ha":628,"x_min":33,"x_max":594,"o":"m 314 -11 q 107 53 181 -11 q 33 229 33 117 l 33 489 q 108 663 33 597 q 314 729 182 729 q 520 664 446 729 q 594 489 594 599 l 594 229 q 521 53 594 117 q 314 -11 447 -11 m 314 188 q 350 204 336 188 q 364 249 364 221 l 364 471 q 350 515 364 497 q 314 532 336 532 q 278 515 292 532 q 264 471 264 497 l 264 249 q 278 204 264 221 q 314 188 292 188 m 315 -358 q 231 -326 264 -358 q 199 -243 199 -293 q 231 -159 199 -192 q 315 -126 264 -126 q 398 -159 365 -126 q 431 -243 431 -192 q 398 -325 431 -292 q 315 -358 365 -358 z "},"ò":{"ha":628,"x_min":33,"x_max":594,"o":"m 314 -11 q 107 53 181 -11 q 33 229 33 117 l 33 489 q 108 663 33 597 q 314 729 182 729 q 520 664 446 729 q 594 489 594 599 l 594 229 q 521 53 594 117 q 314 -11 447 -11 m 314 188 q 350 204 336 188 q 364 249 364 221 l 364 471 q 350 515 364 497 q 314 532 336 532 q 278 515 292 532 q 264 471 264 497 l 264 249 q 278 204 264 221 q 314 188 292 188 m 389 814 q 374 803 389 803 l 247 803 q 226 813 235 803 l 118 951 q 114 961 114 958 q 129 972 114 972 l 285 972 q 304 961 299 972 l 386 822 l 389 814 z "},"ỏ":{"ha":628,"x_min":33,"x_max":594,"o":"m 314 -11 q 107 53 181 -11 q 33 229 33 117 l 33 489 q 108 663 33 597 q 314 729 182 729 q 520 664 446 729 q 594 489 594 599 l 594 229 q 521 53 594 117 q 314 -11 447 -11 m 314 188 q 350 204 336 188 q 364 249 364 221 l 364 471 q 350 515 364 497 q 314 532 336 532 q 278 515 292 532 q 264 471 264 497 l 264 249 q 278 204 264 221 q 314 188 292 188 m 292 776 q 281 797 272 781 q 325 868 297 838 q 343 894 338 883 q 349 922 349 904 q 339 942 349 933 q 317 950 329 950 q 288 942 301 950 q 257 910 275 933 q 244 903 250 903 q 233 907 239 903 l 175 949 q 167 961 167 956 q 171 972 167 967 q 238 1038 203 1018 q 322 1057 272 1057 q 429 1022 390 1057 q 468 922 468 986 q 455 868 468 890 q 415 818 442 846 q 379 774 386 786 q 358 764 371 763 l 292 776 z "},"ơ":{"ha":628,"x_min":33,"x_max":604,"o":"m 533 660 q 533 650 529 656 q 594 489 594 589 l 594 229 q 521 53 594 117 q 314 -11 447 -11 q 107 53 181 -11 q 33 229 33 117 l 33 489 q 108 663 33 597 q 314 729 182 729 q 407 719 358 729 q 415 718 410 718 q 462 744 442 721 q 486 822 482 768 q 503 839 486 839 l 588 839 q 599 832 594 839 q 603 813 604 825 q 533 660 597 710 m 364 471 q 350 515 364 497 q 314 532 336 532 q 278 515 292 532 q 264 471 264 497 l 264 249 q 278 204 264 221 q 314 188 292 188 q 350 204 336 188 q 364 249 364 221 l 364 471 z "},"ớ":{"ha":628,"x_min":33,"x_max":604,"o":"m 533 660 q 533 650 529 656 q 594 489 594 589 l 594 229 q 521 53 594 117 q 314 -11 447 -11 q 107 53 181 -11 q 33 229 33 117 l 33 489 q 108 663 33 597 q 314 729 182 729 q 407 719 358 729 q 415 718 410 718 q 462 744 442 721 q 486 822 482 768 q 503 839 486 839 l 588 839 q 599 832 594 839 q 603 813 604 825 q 533 660 597 710 m 364 471 q 350 515 364 497 q 314 532 336 532 q 278 515 292 532 q 264 471 264 497 l 264 249 q 278 204 264 221 q 314 188 292 188 q 350 204 336 188 q 364 249 364 221 l 364 471 m 229 803 q 215 808 219 803 q 217 822 211 814 l 299 961 q 318 972 304 972 l 474 972 q 488 963 488 972 q 483 951 488 958 l 375 813 q 354 803 367 803 l 229 803 z "},"ợ":{"ha":628,"x_min":33,"x_max":604,"o":"m 533 660 q 533 650 529 656 q 594 489 594 589 l 594 229 q 521 53 594 117 q 314 -11 447 -11 q 107 53 181 -11 q 33 229 33 117 l 33 489 q 108 663 33 597 q 314 729 182 729 q 407 719 358 729 q 415 718 410 718 q 462 744 442 721 q 486 822 482 768 q 503 839 486 839 l 588 839 q 599 832 594 839 q 603 813 604 825 q 533 660 597 710 m 364 471 q 350 515 364 497 q 314 532 336 532 q 278 515 292 532 q 264 471 264 497 l 264 249 q 278 204 264 221 q 314 188 292 188 q 350 204 336 188 q 364 249 364 221 l 364 471 m 315 -358 q 231 -326 264 -358 q 199 -243 199 -293 q 231 -159 199 -192 q 315 -126 264 -126 q 398 -159 365 -126 q 431 -243 431 -192 q 398 -325 431 -292 q 315 -358 365 -358 z "},"ờ":{"ha":628,"x_min":33,"x_max":604,"o":"m 533 660 q 533 650 529 656 q 594 489 594 589 l 594 229 q 521 53 594 117 q 314 -11 447 -11 q 107 53 181 -11 q 33 229 33 117 l 33 489 q 108 663 33 597 q 314 729 182 729 q 407 719 358 729 q 415 718 410 718 q 462 744 442 721 q 486 822 482 768 q 503 839 486 839 l 588 839 q 599 832 594 839 q 603 813 604 825 q 533 660 597 710 m 364 471 q 350 515 364 497 q 314 532 336 532 q 278 515 292 532 q 264 471 264 497 l 264 249 q 278 204 264 221 q 314 188 292 188 q 350 204 336 188 q 364 249 364 221 l 364 471 m 389 814 q 374 803 389 803 l 247 803 q 226 813 235 803 l 118 951 q 114 961 114 958 q 129 972 114 972 l 285 972 q 304 961 299 972 l 386 822 l 389 814 z "},"ở":{"ha":628,"x_min":33,"x_max":604,"o":"m 533 660 q 533 650 529 656 q 594 489 594 589 l 594 229 q 521 53 594 117 q 314 -11 447 -11 q 107 53 181 -11 q 33 229 33 117 l 33 489 q 108 663 33 597 q 314 729 182 729 q 407 719 358 729 q 415 718 410 718 q 462 744 442 721 q 486 822 482 768 q 503 839 486 839 l 588 839 q 599 832 594 839 q 603 813 604 825 q 533 660 597 710 m 364 471 q 350 515 364 497 q 314 532 336 532 q 278 515 292 532 q 264 471 264 497 l 264 249 q 278 204 264 221 q 314 188 292 188 q 350 204 336 188 q 364 249 364 221 l 364 471 m 292 776 q 281 797 272 781 q 325 868 297 838 q 343 894 338 883 q 349 922 349 904 q 339 942 349 933 q 317 950 329 950 q 288 942 301 950 q 257 910 275 933 q 244 903 250 903 q 233 907 239 903 l 175 949 q 167 961 167 956 q 171 972 167 967 q 238 1038 203 1018 q 322 1057 272 1057 q 429 1022 390 1057 q 468 922 468 986 q 455 868 468 890 q 415 818 442 846 q 379 774 386 786 q 358 764 371 763 l 292 776 z "},"ỡ":{"ha":628,"x_min":33,"x_max":604,"o":"m 533 660 q 533 650 529 656 q 594 489 594 589 l 594 229 q 521 53 594 117 q 314 -11 447 -11 q 107 53 181 -11 q 33 229 33 117 l 33 489 q 108 663 33 597 q 314 729 182 729 q 407 719 358 729 q 415 718 410 718 q 462 744 442 721 q 486 822 482 768 q 503 839 486 839 l 588 839 q 599 832 594 839 q 603 813 604 825 q 533 660 597 710 m 364 471 q 350 515 364 497 q 314 532 336 532 q 278 515 292 532 q 264 471 264 497 l 264 249 q 278 204 264 221 q 314 188 292 188 q 350 204 336 188 q 364 249 364 221 l 364 471 m 364 818 q 288 840 332 818 q 267 852 276 846 q 249 862 258 858 q 231 865 240 865 q 185 836 203 865 q 174 827 181 829 q 161 831 167 825 l 90 881 q 83 903 79 889 q 135 982 101 956 q 211 1008 169 1008 q 303 976 254 1008 q 316 967 306 974 q 337 957 326 961 q 358 953 347 953 q 406 978 389 953 q 428 985 415 993 l 497 936 q 504 922 504 932 q 499 904 504 914 q 439 838 475 858 q 364 818 403 818 z "},"ő":{"ha":628,"x_min":33,"x_max":617,"o":"m 314 -11 q 107 53 181 -11 q 33 229 33 117 l 33 489 q 108 663 33 597 q 314 729 182 729 q 520 664 446 729 q 594 489 594 599 l 594 229 q 521 53 594 117 q 314 -11 447 -11 m 314 188 q 350 204 336 188 q 364 249 364 221 l 364 471 q 350 515 364 497 q 314 532 336 532 q 278 515 292 532 q 264 471 264 497 l 264 249 q 278 204 264 221 q 314 188 292 188 m 133 803 q 120 808 124 803 q 121 822 117 813 l 183 960 q 203 972 189 972 l 364 972 q 377 967 374 972 q 376 953 381 963 l 304 815 q 285 803 297 803 l 133 803 m 369 803 q 356 808 360 803 q 357 822 353 814 l 429 960 q 450 972 435 972 l 600 972 q 613 967 610 972 q 613 953 617 963 l 540 815 q 521 803 533 803 l 369 803 z "},"ō":{"ha":628,"x_min":33,"x_max":594,"o":"m 314 -11 q 107 53 181 -11 q 33 229 33 117 l 33 489 q 108 663 33 597 q 314 729 182 729 q 520 664 446 729 q 594 489 594 599 l 594 229 q 521 53 594 117 q 314 -11 447 -11 m 314 188 q 350 204 336 188 q 364 249 364 221 l 364 471 q 350 515 364 497 q 314 532 336 532 q 278 515 292 532 q 264 471 264 497 l 264 249 q 278 204 264 221 q 314 188 292 188 m 168 800 q 156 805 161 800 q 151 817 151 810 l 151 939 q 156 951 151 946 q 168 956 161 956 l 449 956 q 460 951 456 956 q 465 939 465 946 l 465 817 q 460 805 465 810 q 449 800 456 800 l 168 800 z "},"ø":{"ha":638,"x_min":14,"x_max":619,"o":"m 606 728 q 611 706 619 718 l 563 619 q 563 611 561 615 q 593 489 593 558 l 593 229 q 519 53 593 117 q 313 -11 446 -11 q 213 0 261 -11 q 204 -4 207 3 l 163 -81 q 152 -89 158 -87 q 139 -86 146 -90 l 26 -15 q 21 7 14 -7 l 65 90 q 65 99 67 96 q 32 229 32 156 l 32 489 q 106 663 32 597 q 313 729 181 729 q 418 715 365 729 q 426 719 425 714 l 467 793 q 477 802 471 800 q 490 800 483 804 l 606 728 m 363 471 q 349 515 363 497 q 313 532 335 532 q 276 515 290 532 q 263 471 263 497 l 263 249 q 276 204 263 221 q 313 188 290 188 q 349 204 335 188 q 363 249 363 221 l 363 471 z "},"ǿ":{"ha":628,"x_min":14,"x_max":619,"o":"m 606 728 q 611 706 619 718 l 563 619 q 563 611 561 615 q 593 489 593 558 l 593 229 q 519 53 593 117 q 313 -11 446 -11 q 213 0 261 -11 q 204 -4 207 3 l 163 -81 q 152 -89 158 -87 q 139 -86 146 -90 l 26 -15 q 21 7 14 -7 l 65 90 q 65 99 67 96 q 32 229 32 156 l 32 489 q 106 663 32 597 q 313 729 181 729 q 418 715 365 729 q 426 719 425 714 l 467 793 q 477 802 471 800 q 490 800 483 804 l 606 728 m 363 471 q 349 515 363 497 q 313 532 335 532 q 276 515 290 532 q 263 471 263 497 l 263 249 q 276 204 263 221 q 313 188 290 188 q 349 204 335 188 q 363 249 363 221 l 363 471 m 229 803 q 215 808 219 803 q 217 822 211 814 l 299 961 q 318 972 304 972 l 474 972 q 488 963 488 972 q 483 951 488 958 l 375 813 q 354 803 367 803 l 229 803 z "},"õ":{"ha":628,"x_min":33,"x_max":594,"o":"m 314 -11 q 107 53 181 -11 q 33 229 33 117 l 33 489 q 108 663 33 597 q 314 729 182 729 q 520 664 446 729 q 594 489 594 599 l 594 229 q 521 53 594 117 q 314 -11 447 -11 m 314 188 q 350 204 336 188 q 364 249 364 221 l 364 471 q 350 515 364 497 q 314 532 336 532 q 278 515 292 532 q 264 471 264 497 l 264 249 q 278 204 264 221 q 314 188 292 188 m 410 803 q 333 825 378 803 q 313 837 322 831 q 295 847 304 843 q 276 850 286 850 q 231 821 249 850 q 219 812 226 814 q 207 815 213 810 l 136 865 q 129 888 125 874 q 181 967 147 940 q 257 993 215 993 q 349 961 300 993 q 362 952 351 958 q 383 942 372 946 q 404 938 393 938 q 451 963 435 938 q 474 969 461 978 l 543 921 q 550 907 550 917 q 544 889 550 899 q 485 823 521 843 q 410 803 449 803 z "},"œ":{"ha":976,"x_min":33,"x_max":947,"o":"m 947 311 q 942 299 947 304 q 931 294 938 294 l 628 294 q 621 288 621 294 l 621 247 q 634 203 621 219 q 669 186 647 186 q 718 236 707 186 q 736 250 722 250 l 928 239 q 940 234 935 239 q 943 221 944 229 q 868 48 936 107 q 669 -11 800 -11 q 497 58 563 -11 q 488 58 493 64 q 314 -11 422 -11 q 107 53 181 -11 q 33 229 33 117 l 33 489 q 108 663 33 597 q 314 729 182 729 q 488 657 422 729 q 497 657 493 651 q 669 729 563 729 q 874 664 800 729 q 947 489 947 599 l 947 311 m 364 471 q 350 515 364 499 q 314 532 336 532 q 278 515 292 532 q 264 471 264 497 l 264 247 q 278 203 264 221 q 314 186 292 186 q 350 203 336 186 q 364 247 364 219 l 364 471 m 669 532 q 634 515 647 532 q 621 471 621 499 l 621 431 q 628 424 621 424 l 710 424 q 717 431 717 424 l 717 471 q 703 515 717 497 q 669 532 690 532 z "},"p":{"ha":633,"x_min":44,"x_max":600,"o":"m 410 729 q 600 489 600 729 l 600 229 q 410 -11 600 -11 q 283 50 329 -11 q 278 53 281 54 q 275 49 275 53 l 275 -237 q 270 -249 275 -244 q 258 -254 265 -254 l 61 -254 q 49 -249 54 -254 q 44 -237 44 -244 l 44 701 q 49 713 44 708 q 61 718 54 718 l 258 718 q 270 713 265 718 q 275 701 275 708 l 275 674 q 278 671 275 671 q 292 682 283 671 q 410 729 338 729 m 369 471 q 357 515 369 499 q 324 532 344 532 q 288 515 301 532 q 275 471 275 499 l 275 247 q 288 203 275 219 q 324 186 301 186 q 357 203 344 186 q 369 247 369 219 l 369 471 z "},"þ":{"ha":626,"x_min":38,"x_max":593,"o":"m 404 729 q 593 489 593 729 l 593 229 q 404 -11 593 -11 q 276 56 318 -11 q 271 59 274 60 q 268 53 268 58 l 268 -261 q 263 -273 268 -268 q 251 -278 258 -278 l 54 -278 q 42 -273 47 -278 q 38 -261 38 -268 l 38 956 q 42 967 38 963 q 54 972 47 972 l 251 972 q 263 967 258 972 q 268 956 268 963 l 268 664 q 271 661 268 661 q 282 671 276 661 q 404 729 324 729 m 363 471 q 350 515 363 499 q 317 532 338 532 q 281 515 294 532 q 268 471 268 499 l 268 247 q 281 203 268 219 q 317 186 294 186 q 350 203 338 186 q 363 247 363 219 l 363 471 z "},"q":{"ha":633,"x_min":33,"x_max":589,"o":"m 358 701 q 363 713 358 708 q 375 718 368 718 l 572 718 q 584 713 579 718 q 589 701 589 708 l 589 -237 q 584 -249 589 -244 q 572 -254 579 -254 l 375 -254 q 363 -249 368 -254 q 358 -237 358 -244 l 358 49 q 356 53 358 53 q 350 50 353 54 q 224 -11 304 -11 q 33 229 33 -11 l 33 489 q 224 729 33 729 q 350 671 304 729 q 356 669 353 668 q 358 674 358 669 l 358 701 m 310 186 q 345 203 332 186 q 358 247 358 219 l 358 471 q 345 515 358 499 q 310 532 332 532 q 276 515 289 532 q 264 471 264 499 l 264 247 q 276 203 264 219 q 310 186 289 186 z "},"r":{"ha":467,"x_min":40,"x_max":460,"o":"m 390 728 q 450 713 425 728 q 458 692 460 704 l 426 496 q 407 485 425 481 q 372 490 388 490 q 328 482 349 490 q 287 447 303 474 q 271 389 271 421 l 271 18 q 266 6 271 11 q 254 1 261 1 l 57 1 q 45 6 50 1 q 40 18 40 11 l 40 701 q 45 713 40 708 q 57 718 50 718 l 254 718 q 266 713 261 718 q 271 701 271 708 l 271 657 q 273 651 271 651 q 278 654 275 650 q 390 728 315 728 z "},"ŕ":{"ha":467,"x_min":40,"x_max":460,"o":"m 390 728 q 450 713 425 728 q 458 692 460 704 l 426 496 q 407 485 425 481 q 372 490 388 490 q 328 482 349 490 q 287 447 303 474 q 271 389 271 421 l 271 18 q 266 6 271 11 q 254 1 261 1 l 57 1 q 45 6 50 1 q 40 18 40 11 l 40 701 q 45 713 40 708 q 57 718 50 718 l 254 718 q 266 713 261 718 q 271 701 271 708 l 271 657 q 273 651 271 651 q 278 654 275 650 q 390 728 315 728 m 168 803 q 154 808 158 803 q 156 822 150 814 l 238 961 q 257 972 243 972 l 413 972 q 426 963 426 972 q 422 951 426 958 l 314 813 q 293 803 306 803 l 168 803 z "},"ř":{"ha":467,"x_min":40,"x_max":482,"o":"m 390 728 q 450 713 425 728 q 458 692 460 704 l 426 496 q 407 485 425 481 q 372 490 388 490 q 328 482 349 490 q 287 447 303 474 q 271 389 271 421 l 271 18 q 266 6 271 11 q 254 1 261 1 l 57 1 q 45 6 50 1 q 40 18 40 11 l 40 701 q 45 713 40 708 q 57 718 50 718 l 254 718 q 266 713 261 718 q 271 701 271 708 l 271 657 q 273 651 271 651 q 278 654 275 650 q 390 728 315 728 m 44 953 q 42 963 42 961 q 56 972 42 972 l 200 972 q 219 960 214 972 l 256 889 q 264 889 260 883 l 300 960 q 319 972 307 972 l 465 972 q 478 967 475 972 q 476 953 482 963 l 385 806 q 365 794 379 794 l 151 794 q 132 806 138 794 l 44 953 z "},"s":{"ha":592,"x_min":25,"x_max":574,"o":"m 301 -11 q 100 49 175 -11 q 25 208 25 110 l 25 217 q 30 228 25 224 q 42 233 35 233 l 228 233 q 240 228 235 233 q 244 217 244 224 l 244 214 q 262 174 244 189 q 300 160 279 160 q 331 172 319 160 q 342 201 342 183 q 318 240 342 226 q 243 269 294 253 l 213 279 q 33 501 33 340 q 104 668 33 607 q 293 729 175 729 q 486 663 414 729 q 558 489 558 597 q 542 474 558 474 l 361 474 q 349 478 354 474 q 344 490 344 483 l 344 501 q 332 537 344 524 q 299 550 319 550 q 266 535 278 550 q 254 501 254 521 q 282 454 254 471 q 360 421 310 438 q 465 377 421 400 q 542 312 510 354 q 574 204 574 269 q 499 47 574 104 q 301 -11 425 -11 z "},"ś":{"ha":592,"x_min":25,"x_max":574,"o":"m 301 -11 q 100 49 175 -11 q 25 208 25 110 l 25 217 q 30 228 25 224 q 42 233 35 233 l 228 233 q 240 228 235 233 q 244 217 244 224 l 244 214 q 262 174 244 189 q 300 160 279 160 q 331 172 319 160 q 342 201 342 183 q 318 240 342 226 q 243 269 294 253 l 213 279 q 33 501 33 340 q 104 668 33 607 q 293 729 175 729 q 486 663 414 729 q 558 489 558 597 q 542 474 558 474 l 361 474 q 349 478 354 474 q 344 490 344 483 l 344 501 q 332 537 344 524 q 299 550 319 550 q 266 535 278 550 q 254 501 254 521 q 282 454 254 471 q 360 421 310 438 q 465 377 421 400 q 542 312 510 354 q 574 204 574 269 q 499 47 574 104 q 301 -11 425 -11 m 207 803 q 193 808 197 803 q 194 822 189 814 l 276 961 q 296 972 282 972 l 451 972 q 465 963 465 972 q 461 951 465 958 l 353 813 q 332 803 344 803 l 207 803 z "},"š":{"ha":592,"x_min":25,"x_max":574,"o":"m 301 -11 q 100 49 175 -11 q 25 208 25 110 l 25 217 q 30 228 25 224 q 42 233 35 233 l 228 233 q 240 228 235 233 q 244 217 244 224 l 244 214 q 262 174 244 189 q 300 160 279 160 q 331 172 319 160 q 342 201 342 183 q 318 240 342 226 q 243 269 294 253 l 213 279 q 33 501 33 340 q 104 668 33 607 q 293 729 175 729 q 486 663 414 729 q 558 489 558 597 q 542 474 558 474 l 361 474 q 349 478 354 474 q 344 490 344 483 l 344 501 q 332 537 344 524 q 299 550 319 550 q 266 535 278 550 q 254 501 254 521 q 282 454 254 471 q 360 421 310 438 q 465 377 421 400 q 542 312 510 354 q 574 204 574 269 q 499 47 574 104 q 301 -11 425 -11 m 83 953 q 81 963 81 961 q 94 972 81 972 l 239 972 q 258 960 253 972 l 294 889 q 303 889 299 883 l 339 960 q 358 972 346 972 l 504 972 q 517 967 514 972 q 515 953 521 963 l 424 806 q 404 794 418 794 l 190 794 q 171 806 176 794 l 83 953 z "},"ş":{"ha":592,"x_min":25,"x_max":574,"o":"m 574 204 q 524 69 574 124 q 385 -4 474 15 q 380 -7 381 -4 q 382 -12 379 -10 q 431 -131 431 -72 q 425 -169 431 -144 q 301 -257 404 -257 q 228 -246 264 -257 q 215 -226 214 -242 l 225 -147 q 244 -135 226 -132 q 283 -106 276 -137 q 274 -60 288 -86 q 232 -8 261 -35 l 224 -4 q 78 69 132 13 q 25 208 25 126 l 25 217 q 30 228 25 224 q 42 233 35 233 l 228 233 q 240 228 235 233 q 244 217 244 224 l 244 214 q 262 174 244 189 q 300 160 279 160 q 331 172 319 160 q 342 201 342 183 q 318 240 342 226 q 243 269 294 253 l 213 279 q 33 501 33 340 q 104 668 33 607 q 293 729 175 729 q 486 663 414 729 q 558 489 558 597 q 542 474 558 474 l 361 474 q 349 478 354 474 q 344 490 344 483 l 344 501 q 332 537 344 524 q 299 550 319 550 q 266 535 278 550 q 254 501 254 521 q 282 454 254 471 q 360 421 310 438 q 465 377 421 400 q 542 312 510 354 q 574 204 574 269 z "}}}
